<?xml version="1.0" encoding="utf-8"?>
<!-- Generator: Adobe Illustrator 22.1.0, SVG Export Plug-In . SVG Version: 6.00 Build 0)  -->
<svg version="1.1" id="Layer_1" xmlns="http://www.w3.org/2000/svg" xmlns:xlink="http://www.w3.org/1999/xlink" x="0px" y="0px"
	 width="1440px" height="864px" viewBox="0 0 1440 864" enable-background="new 0 0 1440 864" xml:space="preserve">
<path fill="none" stroke="#000000" d="M414.644,427.062c-2.224,21.551,14.838,39.846,35.942,42.533
	c27.372,3.485,50.676-17.897,53.508-44.59c3.427-32.302-21.894-59.551-53.508-62.427c-37.229-3.386-68.437,25.892-71.345,62.426
	c-3.354,42.153,29.889,77.33,71.345,80.263c47.076,3.33,86.228-33.887,89.181-80.263c3.31-51.999-37.884-95.13-89.181-98.099
	c-56.921-3.294-104.035,41.882-107.017,98.099c-3.281,61.842,45.88,112.941,107.017,115.935
	c66.764,3.269,121.849-49.878,124.853-115.935c3.26-71.685-53.876-130.759-124.853-133.771
	c-76.605-3.251-139.669,57.873-142.689,133.771c-3.244,81.526,61.871,148.581,142.69,151.607
	c86.447,3.237,157.493-65.869,160.525-151.608c3.231-91.367-69.867-166.406-160.526-169.443
	c-96.288-3.226-175.319,73.866-178.361,169.444c-3.221,101.208,77.864,184.233,178.363,187.279
	c106.129,3.217,193.147-81.862,196.197-187.281c3.213-111.049-85.86-202.061-196.199-205.114
	c-115.969-3.209-210.976,89.858-214.032,205.117c-3.206,120.889,93.856,219.891,214.036,222.95
	c125.81,3.203,228.806-97.854,231.868-222.954c3.2-130.73-101.852-237.722-231.872-240.786
	c-135.65-3.197-246.637,105.851-249.704,240.791c-3.195,140.57,109.849,255.553,249.709,258.622
	c145.491,3.192,264.469-113.847,267.539-258.627c3.19-150.411-117.846-273.385-267.546-276.457
	c-155.331-3.188-282.301,121.844-285.375,276.464C162.022,585.259,291.05,716.225,450.59,719.301
	C615.761,722.485,750.724,589.46,753.801,425c3.182-170.091-133.839-309.05-303.219-312.128
	c-175.011-3.181-317.967,137.837-321.046,312.138c-3.179,179.931,141.836,326.883,321.056,329.964
	c184.851,3.178,335.8-145.834,338.882-329.975C792.649,235.227,639.641,80.282,450.58,77.199
	C255.889,74.024,96.947,231.03,93.863,425.01C90.69,624.622,251.692,787.56,450.592,790.645
	C655.123,793.818,822.058,628.82,825.145,425c3.172-209.451-165.822-380.384-374.562-383.473
	c-29.216-0.432-58.473,2.488-87.029,8.677"/>
<path fill="none" stroke="#000000" d="M537.618,799.805c-28.556,6.188-57.813,9.109-87.029,8.677
	C241.849,805.393,72.855,634.46,76.027,425.008C79.114,221.188,246.05,56.19,450.581,59.363
	c198.9,3.085,359.902,166.024,356.728,365.635c-3.084,193.981-162.025,350.986-356.717,347.811
	c-189.061-3.083-342.069-158.028-338.893-347.799c3.082-184.141,154.03-333.152,338.882-329.975
	c179.22,3.081,324.235,150.033,321.056,329.964c-3.08,174.3-146.035,315.318-321.046,312.138
	c-169.38-3.078-306.402-142.037-303.219-312.128c3.077-164.46,138.04-297.485,303.211-294.301
	C610.122,133.783,739.151,264.75,735.965,425c-3.074,154.62-130.044,279.652-285.375,276.464
	c-149.7-3.072-270.736-126.047-267.546-276.457c3.071-144.78,122.049-261.82,267.539-258.627
	c139.86,3.069,252.904,118.051,249.709,258.622c-3.067,134.94-114.054,243.988-249.704,240.791
	c-130.02-3.064-235.072-110.056-231.872-240.786c3.062-125.1,106.058-226.157,231.868-222.954
	c120.18,3.059,217.241,102.061,214.036,222.95c-3.056,115.259-98.063,208.326-214.032,205.117
	c-110.339-3.053-199.412-94.066-196.199-205.114c3.05-105.419,90.068-190.498,196.197-187.281
	c100.499,3.046,181.584,86.07,178.363,187.279c-3.042,95.579-82.073,172.67-178.361,169.444
	c-90.659-3.037-163.757-78.075-160.526-169.443c3.032-85.738,74.078-154.845,160.525-151.608
	c80.818,3.026,145.933,70.081,142.69,151.607c-3.02,75.898-66.083,137.023-142.689,133.771
	c-70.978-3.012-128.113-62.086-124.853-133.771c3.004-66.057,58.089-119.205,124.853-115.935
	c61.137,2.994,110.298,54.093,107.017,115.935c-2.982,56.217-50.096,101.393-107.017,98.099
	c-51.296-2.969-92.491-46.1-89.181-98.099c2.952-46.376,42.104-83.593,89.181-80.263c41.455,2.932,74.699,38.11,71.345,80.263
	c-2.907,36.535-34.116,65.812-71.345,62.426c-31.614-2.875-56.936-30.125-53.508-62.427c2.832-26.694,26.137-48.075,53.508-44.59
	c21.104,2.687,38.166,20.982,35.942,42.533"/>
<path fill="none" stroke="#000000" d="M452.643,460.946c21.551,2.224,39.846-14.838,42.533-35.942
	c3.485-27.372-17.897-50.676-44.59-53.508c-32.302-3.427-59.551,21.894-62.427,53.508c-3.386,37.229,25.892,68.437,62.426,71.345
	c42.153,3.354,77.33-29.889,80.263-71.345c3.33-47.076-33.887-86.228-80.263-89.181c-51.999-3.31-95.13,37.884-98.099,89.181
	c-3.294,56.921,41.882,104.035,98.099,107.017c61.842,3.281,112.941-45.88,115.935-107.017
	c3.269-66.764-49.878-121.849-115.935-124.853c-71.685-3.26-130.759,53.876-133.771,124.853
	c-3.251,76.605,57.874,139.669,133.772,142.689c81.526,3.244,148.581-61.871,151.607-142.69
	c3.237-86.447-65.869-157.493-151.608-160.525c-91.367-3.231-166.406,69.867-169.443,160.526
	c-3.226,96.288,73.866,175.319,169.444,178.361c101.208,3.221,184.233-77.864,187.279-178.363
	c3.217-106.129-81.862-193.147-187.281-196.197c-111.049-3.213-202.061,85.86-205.114,196.199
	c-3.209,115.969,89.858,210.976,205.117,214.032c120.889,3.206,219.891-93.856,222.95-214.036
	c3.203-125.81-97.854-228.806-222.954-231.868c-130.73-3.2-237.722,101.853-240.786,231.872
	c-3.197,135.65,105.851,246.637,240.791,249.704c140.57,3.195,255.553-109.849,258.622-249.709
	c3.192-145.491-113.847-264.469-258.627-267.539c-150.411-3.19-273.385,117.846-276.457,267.546
	C170.938,580.338,295.97,707.308,450.59,710.383C610.841,713.569,741.807,584.54,744.883,425
	c3.184-165.171-129.841-300.134-294.301-303.211c-170.091-3.182-309.05,133.839-312.128,303.219
	c-3.181,175.011,137.837,317.967,312.138,321.046c179.931,3.179,326.883-141.836,329.964-321.056
	c3.178-184.851-145.834-335.8-329.975-338.882C260.809,82.941,105.864,235.949,102.781,425.01
	c-3.175,194.692,153.831,353.633,347.811,356.717c199.611,3.173,362.549-157.828,365.635-356.728
	C819.4,220.468,654.402,53.532,450.582,50.445C241.131,47.273,70.198,216.267,67.109,425.007
	c-0.432,29.216,2.488,58.473,8.677,87.029"/>
<path fill="none" stroke="#000000" d="M825.387,337.972c6.188,28.556,9.109,57.813,8.677,87.029
	c-3.089,208.74-174.022,377.735-383.473,374.562c-203.82-3.087-368.818-170.023-365.645-374.554
	c3.085-198.9,166.024-359.902,365.635-356.728c193.981,3.084,350.986,162.025,347.811,356.717
	c-3.083,189.061-158.028,342.069-347.799,338.893c-184.141-3.082-333.152-154.03-329.975-338.882
	c3.081-179.22,150.033-324.235,329.964-321.056c174.3,3.08,315.318,146.035,312.138,321.046
	c-3.078,169.38-142.037,306.402-312.128,303.219c-164.46-3.077-297.485-138.04-294.301-303.211
	c3.076-159.54,134.042-288.568,294.293-285.382c154.62,3.074,279.652,130.044,276.464,285.375
	C723.974,574.701,601,695.736,450.589,692.546c-144.78-3.071-261.82-122.049-258.627-267.539
	c3.069-139.86,118.051-252.904,258.622-249.709c134.94,3.067,243.988,114.054,240.791,249.704
	c-3.064,130.02-110.056,235.072-240.786,231.872c-125.1-3.062-226.157-106.058-222.954-231.868
	c3.059-120.18,102.061-217.241,222.95-214.036c115.259,3.056,208.327,98.063,205.117,214.032
	c-3.053,110.339-94.066,199.412-205.115,196.199c-105.419-3.05-190.498-90.068-187.281-196.197
	c3.046-100.499,86.07-181.584,187.279-178.363c95.579,3.042,172.67,82.073,169.444,178.361
	c-3.037,90.659-78.076,163.757-169.443,160.526c-85.738-3.032-154.845-74.078-151.608-160.525
	c3.026-80.818,70.081-145.933,151.607-142.69c75.898,3.02,137.023,66.083,133.771,142.689
	c-3.012,70.978-62.086,128.113-133.771,124.853c-66.057-3.004-119.205-58.089-115.935-124.853
	c2.994-61.137,54.093-110.298,115.935-107.017c56.217,2.982,101.393,50.096,98.099,107.017c-2.969,51.296-46.1,92.491-98.099,89.181
	c-46.376-2.952-83.593-42.104-80.263-89.181c2.932-41.455,38.11-74.699,80.263-71.345c36.535,2.907,65.812,34.116,62.426,71.345
	c-2.875,31.614-30.125,56.936-62.426,53.508c-26.694-2.832-48.075-26.137-44.59-53.508c2.687-21.104,20.982-38.166,42.533-35.942"/>
<circle fill="none" stroke="#FF6400" cx="450.586" cy="425.004" r="410.4"/>
<circle fill="none" stroke="#0000FF" cx="450.586" cy="425.004" r="3.543"/>
<g>
</g>
<g>
</g>
<g>
</g>
<g>
</g>
<g>
</g>
<g>
</g>
</svg>
