<?xml version="1.0" encoding="utf-8"?>
<!-- Generator: Adobe Illustrator 22.0.1, SVG Export Plug-In . SVG Version: 6.00 Build 0)  -->
<svg version="1.1" xmlns="http://www.w3.org/2000/svg" xmlns:xlink="http://www.w3.org/1999/xlink" x="0px" y="0px" width="1440px"
	 height="864px" viewBox="0 0 1440 864" enable-background="new 0 0 1440 864" xml:space="preserve">
<g id="Layer_2" display="none">
	<line display="inline" fill="none" stroke="#000000" x1="96.119" y1="432.386" x2="910.667" y2="432.386"/>
	<line display="inline" fill="none" stroke="#000000" x1="503.393" y1="839.659" x2="503.393" y2="25.112"/>
</g>
<g id="Layer_1">
	<polyline fill="none" stroke="#000000" points="521.393,432.385 521.393,450.386 485.393,450.386 485.393,432.385 	"/>
	<path fill="none" stroke="#000000" d="M539.333,432.25c-0.047,2.11-8.161,0.754-6.933,3.741c1.387,3.374,4.737,6.045,5.473,11.272
		c0.231,1.639,0.919,4.032,1.519,5.829c0.002,8.337,0.002,15.294,0.002,15.294s-8.27,0-17.416,0.001
		c-1.642-0.769-3.787-1.711-5.346-2.221c-4.442-1.453-7.293-3.099-10.135-4.628c-2.957-1.591-0.854,6.835-2.968,6.789
		c-2.11-0.047-0.754-8.161-3.741-6.933c-3.374,1.387-6.045,4.737-11.272,5.473c-1.639,0.231-4.032,0.919-5.829,1.52
		c-7.649,0-15.295,0-15.295,0s0-8.307-0.001-17.416c0.685-1.463,1.508-3.326,2.04-4.817c0.065-0.182,0.126-0.359,0.181-0.529
		c1.453-4.442,3.099-7.293,4.628-10.135c1.591-2.957-6.835-0.854-6.789-2.968c0.047-2.11,8.161-0.754,6.933-3.741
		c-1.387-3.374-4.737-6.045-5.473-11.271c-0.231-1.639-0.919-4.032-1.52-5.829c0-7.703,0-15.295,0-15.295s8.245,0,17.416,0
		c1.642,0.768,3.787,1.71,5.346,2.22c4.442,1.453,7.293,3.099,10.135,4.628c2.957,1.591,0.854-6.835,2.968-6.789"/>
	<path fill="none" stroke="#000000" d="M845.44,432.39c0.047-2.114-8.38-0.011-6.789-2.968c1.529-2.841,3.175-5.692,4.628-10.135
		c0.487-1.489,1.368-3.511,2.114-5.12c0-55.42,0-323.782,0-323.782s-157.584,0-321.477,0c-1.752,0.574-3.963,1.197-5.506,1.414
		c-5.227,0.735-7.897,4.086-11.272,5.473c-2.987,1.228-1.631-6.887-3.741-6.933c-2.114-0.047-0.011,8.38-2.968,6.789
		c-2.841-1.529-5.692-3.175-10.135-4.628c-1.489-0.487-3.511-1.368-5.12-2.114c-164.717,0-323.782,0-323.782,0
		s0,157.584,0.001,321.476c0.573,1.753,1.196,3.964,1.413,5.507c0.735,5.227,4.086,7.897,5.473,11.271
		c1.228,2.987-6.887,1.631-6.933,3.741c-0.047,2.114,8.38,0.011,6.789,2.968c-1.529,2.841-3.175,5.692-4.628,10.135
		c-0.487,1.489-1.368,3.511-2.116,5.12c0.002,164.716,0.002,323.781,0.002,323.781s242.312,0,321.477,0
		c1.753-0.574,3.964-1.197,5.506-1.414c2.479-0.349,4.383-1.286,6.06-2.323c1.858-1.149,3.438-2.421,5.211-3.15
		c2.987-1.228,1.631,6.887,3.741,6.933"/>
	<path fill="none" stroke="#000000" d="M503.397,108.339c-2.114-0.047-0.011,8.38-2.968,6.789
		c-2.841-1.529-5.692-3.175-10.135-4.628c-1.489-0.487-3.511-1.368-5.12-2.114c-155.705,0-305.782,0-305.782,0
		s0,148.599,0.001,303.476c0.573,1.753,1.196,3.964,1.413,5.507c0.735,5.227,4.086,7.897,5.473,11.271
		c1.228,2.987-6.887,1.631-6.933,3.741c-0.047,2.114,8.38,0.011,6.789,2.968c-1.529,2.841-3.175,5.692-4.628,10.135
		c-0.487,1.489-1.368,3.511-2.116,5.12c0.002,155.705,0.002,305.781,0.002,305.781s226.421,0,303.476-0.001
		c1.753-0.573,3.964-1.195,5.507-1.412c2.562-0.36,4.51-1.35,6.228-2.428c1.786-1.121,3.323-2.338,5.043-3.045
		c2.987-1.228,1.631,6.887,3.741,6.933c2.114,0.047,0.011-8.38,2.968-6.789c2.841,1.529,5.692,3.175,10.135,4.628
		c1.488,0.487,3.511,1.368,5.12,2.114c60.601,0,305.782,0,305.782,0s0-224.602-0.001-303.476c-0.025-0.076-0.05-0.152-0.074-0.229
		c-0.551-1.713-1.13-3.801-1.338-5.278c-0.735-5.227-4.086-7.897-5.473-11.272c-1.228-2.987,6.887-1.631,6.933-3.741"/>
	<path fill="none" stroke="#000000" d="M197.346,432.381c-0.047,2.114,8.38,0.011,6.789,2.968
		c-1.529,2.841-3.175,5.692-4.628,10.135c-0.487,1.489-1.368,3.511-2.116,5.12c0.002,146.692,0.002,287.781,0.002,287.781
		s211.717,0,285.476-0.001c1.753-0.573,3.964-1.195,5.507-1.412c2.618-0.368,4.595-1.393,6.34-2.498
		c1.739-1.101,3.248-2.283,4.932-2.975c2.987-1.228,1.631,6.887,3.741,6.933c2.114,0.047,0.011-8.38,2.968-6.789
		c2.841,1.529,5.692,3.175,10.135,4.628c1.488,0.487,3.511,1.368,5.12,2.114c59.026,0,287.782,0,287.782,0s0-210.054,0-285.477
		c-0.031-0.096-0.063-0.193-0.095-0.292c-0.546-1.701-1.114-3.756-1.319-5.215c-0.735-5.227-4.086-7.897-5.473-11.272
		c-1.228-2.987,6.887-1.631,6.933-3.741c0.047-2.114-8.38-0.011-6.789-2.968c1.529-2.841,3.175-5.692,4.628-10.135
		c0.487-1.489,1.368-3.511,2.114-5.12c0-56.205,0-287.782,0-287.782s-139.615,0-285.477,0c-1.752,0.574-3.963,1.197-5.506,1.414
		c-5.227,0.735-7.897,4.086-11.272,5.473c-2.987,1.228-1.631-6.887-3.741-6.933"/>
	<path fill="none" stroke="#000000" d="M503.389,720.433c2.114,0.047,0.011-8.38,2.968-6.789c2.841,1.529,5.692,3.175,10.135,4.628
		c1.488,0.487,3.511,1.368,5.12,2.114c57.046,0,269.782,0,269.782,0s0-194.625,0-267.191c0-0.095,0-0.191,0-0.286
		c-0.574-1.752-1.197-3.964-1.414-5.506c-0.735-5.227-4.086-7.897-5.473-11.272c-1.228-2.987,6.887-1.631,6.933-3.741
		c0.047-2.114-8.38-0.011-6.789-2.968c1.529-2.841,3.175-5.692,4.628-10.135c0.487-1.489,1.368-3.511,2.116-5.12
		c-0.002-54.076-0.002-269.782-0.002-269.782s-130.633,0-267.477,0c-1.752,0.574-3.963,1.197-5.506,1.414
		c-5.227,0.735-7.897,4.086-11.272,5.473c-2.987,1.228-1.631-6.887-3.741-6.933c-2.114-0.047-0.011,8.38-2.968,6.789
		c-2.841-1.529-5.692-3.175-10.135-4.628c-1.489-0.487-3.511-1.368-5.12-2.114c-137.678,0-269.782,0-269.782,0
		s0,130.633,0.001,267.476c0.573,1.753,1.196,3.964,1.413,5.507c0.735,5.227,4.086,7.897,5.473,11.271
		c1.228,2.987-6.887,1.631-6.933,3.741"/>
	<path fill="none" stroke="#000000" d="M773.44,432.39c0.047-2.114-8.38-0.011-6.789-2.968c1.529-2.841,3.175-5.692,4.628-10.135
		c0.487-1.489,1.368-3.511,2.114-5.12c0-51.332,0-251.782,0-251.782s-119.998,0-246.859,0c-0.872,0-1.745,0-2.618,0
		c-1.752,0.574-3.963,1.197-5.506,1.414c-5.227,0.735-7.897,4.086-11.272,5.473c-2.987,1.228-1.631-6.887-3.741-6.933
		c-2.114-0.047-0.011,8.38-2.968,6.789c-2.841-1.529-5.692-3.175-10.135-4.628c-1.489-0.487-3.511-1.368-5.12-2.114
		c-128.662,0-251.782,0-251.782,0s0,121.653,0.001,249.476c0.573,1.753,1.196,3.964,1.413,5.507
		c0.735,5.227,4.086,7.897,5.473,11.271c1.228,2.987-6.887,1.631-6.933,3.741c-0.047,2.114,8.38,0.011,6.789,2.968
		c-1.529,2.841-3.175,5.692-4.628,10.135c-0.487,1.489-1.368,3.511-2.116,5.12c0.002,128.661,0.002,251.781,0.002,251.781
		s183.043,0,249.477,0c1.753-0.574,3.964-1.197,5.506-1.414c2.342-0.329,4.171-1.184,5.78-2.152c1.982-1.192,3.63-2.556,5.492-3.321
		c2.987-1.228,1.631,6.887,3.741,6.933"/>
	<path fill="none" stroke="#000000" d="M431.346,432.381c0.047-2.11,8.161-0.754,6.933-3.741c-1.387-3.374-4.737-6.045-5.473-11.271
		c-0.217-1.543-0.84-3.754-1.413-5.507c-0.001-27.996-0.001-51.476-0.001-51.476s24.78,0,53.782,0
		c1.608,0.746,3.631,1.627,5.12,2.114c4.442,1.453,7.293,3.099,10.135,4.628c2.957,1.591,0.854-6.835,2.968-6.789
		c2.11,0.047,0.754,8.161,3.741,6.933c3.374-1.387,6.045-4.737,11.272-5.473c1.543-0.217,3.754-0.84,5.507-1.413
		c27.996-0.001,51.476-0.001,51.476-0.001s0,31.224,0,53.782c-0.746,1.609-1.627,3.631-2.114,5.12
		c-1.453,4.442-3.099,7.293-4.628,10.135c-0.368,0.683-0.201,1.096,0.273,1.354c1.577,0.857,6.551-0.012,6.515,1.614
		c-0.047,2.11-8.161,0.754-6.933,3.741c1.387,3.374,4.737,6.045,5.473,11.272c0.217,1.543,0.84,3.754,1.414,5.506
		c0,19.954,0,51.477,0,51.477s-33.56,0-53.782,0c-1.609-0.746-3.631-1.627-5.12-2.114c-4.442-1.453-7.293-3.099-10.135-4.628
		c-2.957-1.591-0.854,6.835-2.968,6.789"/>
	<path fill="none" stroke="#000000" d="M143.346,432.381c0.047-2.11,8.161-0.754,6.933-3.741c-1.387-3.374-4.737-6.045-5.473-11.271
		c-0.217-1.543-0.84-3.754-1.414-5.506c0-172.905,0-339.477,0-339.477s168.055,0,341.782,0c1.608,0.746,3.631,1.627,5.12,2.114
		c4.442,1.453,7.293,3.099,10.135,4.628c2.957,1.591,0.854-6.835,2.968-6.789c2.11,0.047,0.754,8.161,3.741,6.933
		c3.374-1.387,6.045-4.737,11.272-5.473c1.543-0.217,3.754-0.84,5.506-1.414c172.905,0,339.477,0,339.477,0s0,288.109,0.002,341.782
		c-0.748,1.609-1.629,3.632-2.116,5.12c-1.453,4.442-3.099,7.293-4.628,10.135c-1.591,2.957,6.835,0.854,6.789,2.968"/>
	<path fill="none" stroke="#000000" d="M359.346,432.381c0.047-2.11,8.161-0.754,6.933-3.741c-1.387-3.374-4.737-6.045-5.473-11.271
		c-0.217-1.543-0.84-3.754-1.414-5.506c0-64.546,0-123.477,0-123.477s60.34,0,125.782,0c1.608,0.746,3.631,1.627,5.12,2.114
		c4.442,1.453,7.293,3.099,10.135,4.628c2.957,1.591,0.854-6.835,2.968-6.789c2.11,0.047,0.754,8.161,3.741,6.933
		c3.374-1.387,6.045-4.737,11.272-5.473c1.543-0.217,3.754-0.84,5.506-1.414c64.547,0,123.477,0,123.477,0s0,84.045,0,125.782
		c-0.746,1.609-1.627,3.631-2.114,5.12c-1.453,4.442-3.099,7.293-4.628,10.135c-1.591,2.957,6.835,0.854,6.789,2.968
		c-0.047,2.11-8.161,0.754-6.933,3.741c1.387,3.374,4.737,6.045,5.473,11.272c0.205,1.458,0.773,3.514,1.318,5.215
		c0.032,0.099,0.063,0.196,0.095,0.292c0.001,36.468,0.001,123.476,0.001,123.476s-89.927,0-125.782,0.002
		c-1.609-0.748-3.631-1.629-5.12-2.116c-0.093-0.03-0.185-0.061-0.276-0.091c-4.285-1.431-7.077-3.04-9.859-4.537
		c-2.957-1.591-0.854,6.836-2.968,6.789"/>
	<path fill="none" stroke="#000000" d="M503.397,180.339c-2.114-0.047-0.011,8.38-2.968,6.789
		c-2.841-1.529-5.692-3.175-10.135-4.628c-1.489-0.487-3.511-1.368-5.12-2.116c-119.643,0.002-233.781,0.002-233.781,0.002
		s0,112.326,0,230.922c0,0.185,0,0.37,0.001,0.554c0.573,1.753,1.196,3.964,1.413,5.507c0.735,5.227,4.086,7.897,5.473,11.271
		c1.228,2.987-6.887,1.631-6.933,3.741c-0.047,2.114,8.38,0.011,6.789,2.968c-1.529,2.841-3.175,5.692-4.628,10.135
		c-0.487,1.489-1.368,3.511-2.114,5.12c0,119.644,0,233.782,0,233.782s167.472,0,231.477,0c1.753-0.574,3.964-1.197,5.506-1.414
		c2.507-0.353,4.426-1.307,6.117-2.358c1.834-1.14,3.399-2.393,5.155-3.115c2.987-1.228,1.631,6.887,3.741,6.933
		c2.114,0.047,0.011-8.38,2.968-6.789c2.841,1.529,5.692,3.175,10.135,4.628c1.488,0.487,3.511,1.368,5.12,2.114
		c52.77,0,233.782,0,233.782,0s0-179.308-0.001-231.476c-0.005-0.014-0.009-0.028-0.014-0.042c-0.569-1.746-1.183-3.935-1.399-5.465
		c-0.735-5.227-4.086-7.897-5.473-11.272c-1.228-2.987,6.887-1.631,6.933-3.741"/>
	<path fill="none" stroke="#000000" d="M269.346,432.381c-0.047,2.114,8.38,0.011,6.789,2.968
		c-1.529,2.841-3.175,5.692-4.628,10.135c-0.487,1.489-1.368,3.511-2.114,5.12c0,110.622,0,215.782,0,215.782
		s152.025,0,213.476-0.001c1.753-0.573,3.964-1.195,5.507-1.412c2.452-0.345,4.341-1.265,6.005-2.289
		c1.882-1.158,3.475-2.448,5.267-3.184c2.987-1.228,1.631,6.887,3.741,6.933c2.114,0.047,0.011-8.38,2.968-6.789
		c2.841,1.529,5.692,3.175,10.135,4.628c1.488,0.487,3.511,1.368,5.12,2.114c49.053,0,215.782,0,215.782,0s0-162.665-0.001-213.191
		c0-0.095,0-0.19,0-0.285c-0.573-1.753-1.195-3.964-1.412-5.507c-0.735-5.227-4.086-7.897-5.473-11.272
		c-1.228-2.987,6.887-1.631,6.933-3.741c0.047-2.114-8.38-0.011-6.789-2.968c1.529-2.841,3.175-5.692,4.628-10.135
		c0.487-1.489,1.368-3.511,2.116-5.12c-0.002-60.951-0.002-215.782-0.002-215.782s-103.703,0-213.477,0
		c-1.752,0.574-3.963,1.197-5.506,1.414c-5.227,0.735-7.897,4.086-11.272,5.473c-2.987,1.228-1.631-6.887-3.741-6.933"/>
	<path fill="none" stroke="#000000" d="M287.346,432.381c0.047-2.11,8.161-0.754,6.933-3.741c-1.387-3.374-4.737-6.045-5.473-11.271
		c-0.217-1.543-0.84-3.754-1.413-5.507c-0.001-0.042-0.001-0.084-0.001-0.127c0-100.695,0-195.349,0-195.349s96.184,0,197.782,0
		c1.608,0.746,3.631,1.627,5.12,2.114c4.442,1.453,7.293,3.099,10.135,4.628c2.957,1.591,0.854-6.835,2.968-6.789
		c2.11,0.047,0.754,8.161,3.741,6.933c3.374-1.387,6.045-4.737,11.272-5.473c1.543-0.217,3.754-0.84,5.507-1.413
		c100.742-0.001,195.476-0.001,195.476-0.001s0,140.556,0,197.782c-0.746,1.609-1.627,3.631-2.114,5.12
		c-1.453,4.442-3.099,7.293-4.628,10.135c-1.591,2.957,6.835,0.854,6.789,2.968c-0.047,2.11-8.161,0.754-6.933,3.741
		c1.387,3.374,4.737,6.045,5.473,11.272c0.198,1.405,0.732,3.364,1.258,5.027c0.052,0.163,0.103,0.324,0.155,0.48
		c0.001,48.035,0.001,195.476,0.001,195.476s-149.846,0-197.782,0c-1.609-0.746-3.631-1.627-5.12-2.114
		c-0.157-0.051-0.312-0.103-0.464-0.155c-4.179-1.415-6.929-2.998-9.67-4.473c-2.957-1.591-0.854,6.836-2.968,6.789"/>
	<path fill="none" stroke="#000000" d="M503.389,630.433c-2.11-0.047-0.754-8.161-3.741-6.933
		c-3.374,1.387-6.045,4.737-11.272,5.473c-1.543,0.217-3.754,0.84-5.506,1.414c-53.259,0-177.477,0-177.477,0
		s0-87.213-0.002-179.781c0.748-1.609,1.629-3.632,2.116-5.12c1.453-4.442,3.099-7.293,4.628-10.135
		c1.591-2.957-6.836-0.854-6.789-2.968c0.047-2.11,8.161-0.754,6.933-3.741c-1.387-3.374-4.737-6.045-5.473-11.271
		c-0.217-1.543-0.84-3.754-1.413-5.507c-0.001-0.059-0.001-0.12-0.001-0.18c0-91.638,0-177.295,0-177.295s87.213,0,179.782,0
		c1.608,0.746,3.631,1.627,5.12,2.114c4.442,1.453,7.293,3.099,10.135,4.628c2.957,1.591,0.854-6.835,2.968-6.789
		c2.11,0.047,0.754,8.161,3.741,6.933c3.374-1.387,6.045-4.737,11.272-5.473c1.543-0.217,3.754-0.84,5.507-1.413
		c0.863-0.001,1.726-0.001,2.589-0.001c90.725,0,174.887,0,174.887,0s0,125.963,0.002,179.782c-0.748,1.609-1.629,3.632-2.116,5.12
		c-1.453,4.442-3.099,7.293-4.628,10.135c-1.591,2.957,6.835,0.854,6.789,2.968"/>
	<path fill="none" stroke="#000000" d="M683.44,432.39c-0.047,2.11-8.161,0.754-6.933,3.741c1.387,3.374,4.737,6.045,5.473,11.272
		c0.217,1.543,0.84,3.754,1.412,5.507c0,0.029,0,0.059,0,0.088c0.001,42.837,0.001,159.388,0.001,159.388s-119.019,0-161.782,0
		c-1.609-0.746-3.631-1.627-5.12-2.114c-0.157-0.051-0.312-0.103-0.465-0.155c-4.179-1.415-6.929-2.998-9.67-4.473
		c-2.957-1.591-0.854,6.836-2.968,6.789c-2.11-0.047-0.754-8.161-3.741-6.933c-3.374,1.387-6.045,4.737-11.272,5.473
		c-1.543,0.217-3.754,0.84-5.507,1.412c-49.513,0.001-159.476,0.001-159.476,0.001s0-78.247-0.002-161.781
		c0.748-1.609,1.629-3.632,2.116-5.12c1.453-4.442,3.099-7.293,4.628-10.135c1.591-2.957-6.836-0.854-6.789-2.968
		c0.047-2.11,8.161-0.754,6.933-3.741c-1.387-3.374-4.737-6.045-5.473-11.271c-0.217-1.543-0.84-3.754-1.414-5.506
		c0-82.663,0-159.477,0-159.477s78.247,0,161.782,0c1.608,0.746,3.631,1.627,5.12,2.114c4.442,1.453,7.293,3.099,10.135,4.628
		c2.957,1.591,0.854-6.835,2.968-6.789"/>
	<path fill="none" stroke="#000000" d="M503.397,270.339c2.11,0.047,0.754,8.161,3.741,6.933c3.374-1.387,6.045-4.737,11.272-5.473
		c1.543-0.217,3.754-0.84,5.507-1.413c0.92-0.001,1.84-0.001,2.759-0.001c72.538,0,138.716,0,138.716,0s0,97.589,0.002,143.782
		c-0.748,1.609-1.629,3.632-2.116,5.12c-1.453,4.442-3.099,7.293-4.628,10.135c-1.591,2.957,6.835,0.854,6.789,2.968
		c-0.047,2.11-8.161,0.754-6.933,3.741c1.387,3.374,4.737,6.045,5.473,11.272c0.217,1.543,0.84,3.754,1.414,5.506
		c0,0.051,0,0.103,0,0.155c0,39.311,0,141.322,0,141.322s-103.93,0-143.782,0.002c-1.609-0.748-3.631-1.629-5.12-2.116
		c-0.051-0.017-0.101-0.033-0.151-0.05c-4.356-1.441-7.174-3.067-9.983-4.578c-2.957-1.591-0.854,6.836-2.968,6.789
		c-2.11-0.047-0.754-8.161-3.741-6.933c-3.374,1.387-6.045,4.737-11.272,5.473c-1.543,0.217-3.754,0.84-5.506,1.414
		c-45.526,0-141.477,0-141.477,0s0-69.289-0.002-143.781c0.748-1.609,1.629-3.632,2.116-5.12c1.453-4.442,3.099-7.293,4.628-10.135
		c1.591-2.957-6.836-0.854-6.789-2.968"/>
	<path fill="none" stroke="#000000" d="M503.389,558.433c-2.11-0.047-0.754-8.161-3.741-6.933
		c-3.374,1.387-6.045,4.737-11.272,5.473c-1.543,0.217-3.754,0.84-5.506,1.414c-37.359,0-105.477,0-105.477,0s0-51.406,0-107.782
		c0.746-1.608,1.627-3.631,2.114-5.12c1.453-4.442,3.099-7.293,4.628-10.135c1.591-2.957-6.836-0.854-6.789-2.968
		c0.047-2.11,8.161-0.754,6.933-3.741c-1.387-3.374-4.737-6.045-5.473-11.271c-0.217-1.543-0.84-3.754-1.413-5.507
		c-0.001-55.464-0.001-105.476-0.001-105.476s51.406,0,107.782,0c1.608,0.746,3.631,1.627,5.12,2.114
		c4.442,1.453,7.293,3.099,10.135,4.628c2.957,1.591,0.854-6.835,2.968-6.789c2.11,0.047,0.754,8.161,3.741,6.933
		c3.374-1.387,6.045-4.737,11.272-5.473c1.543-0.217,3.754-0.84,5.507-1.413c0.854-0.001,1.707-0.001,2.559-0.001
		c54.434,0,102.916,0,102.916,0s0,70.174,0,107.782c-0.746,1.609-1.627,3.631-2.114,5.12c-1.453,4.442-3.099,7.293-4.628,10.135
		c-0.233,0.434-0.251,0.759-0.112,1.004c0.811,1.427,6.94,0.16,6.9,1.964"/>
	<path fill="none" stroke="#000000" d="M503.397,324.339c-2.114-0.047-0.011,8.38-2.968,6.789
		c-2.841-1.529-5.692-3.175-10.135-4.628c-1.489-0.487-3.511-1.368-5.12-2.116c-47.29,0.002-89.781,0.002-89.781,0.002
		s0,41.12,0,87.477c0.574,1.752,1.197,3.963,1.414,5.506c0.735,5.227,4.086,7.897,5.473,11.271c1.228,2.987-6.887,1.631-6.933,3.741
		c-0.047,2.114,8.38,0.011,6.789,2.968c-1.529,2.841-3.175,5.692-4.628,10.135c-0.487,1.489-1.368,3.511-2.116,5.12
		c0.002,47.29,0.002,89.781,0.002,89.781s54.642,0,87.476-0.001c1.753-0.573,3.964-1.195,5.507-1.412
		c2.396-0.337,4.255-1.224,5.891-2.219c1.932-1.176,3.553-2.502,5.38-3.253c2.987-1.228,1.631,6.887,3.741,6.933
		c2.114,0.047,0.011-8.38,2.968-6.789c2.841,1.529,5.692,3.175,10.135,4.628c1.488,0.487,3.511,1.368,5.12,2.114
		c28.692,0,89.782,0,89.782,0s0-59.868-0.001-87.476c-0.071-0.217-0.142-0.44-0.214-0.669c-0.507-1.621-1.008-3.486-1.199-4.838
		c-0.735-5.227-4.086-7.897-5.473-11.272c-1.228-2.987,6.887-1.631,6.933-3.741"/>
	<path fill="none" stroke="#000000" d="M503.397,342.339c2.11,0.047,0.754,8.161,3.741,6.933c3.374-1.387,6.045-4.737,11.272-5.473
		c1.543-0.217,3.754-0.84,5.507-1.413c37.209-0.001,69.476-0.001,69.476-0.001s0,43.848,0,71.782
		c-0.746,1.609-1.627,3.631-2.114,5.12c-1.453,4.442-3.099,7.293-4.628,10.135c-0.352,0.655-0.213,1.062,0.216,1.321
		c1.51,0.911,6.609,0.001,6.573,1.647c-0.047,2.11-8.161,0.754-6.933,3.741c1.387,3.374,4.737,6.045,5.473,11.272
		c0.217,1.543,0.84,3.754,1.414,5.506c0,24.792,0,69.477,0,69.477s-46.524,0-71.782,0c-1.609-0.746-3.631-1.627-5.12-2.114
		c-0.157-0.051-0.312-0.103-0.465-0.155c-4.179-1.415-6.929-2.998-9.67-4.473c-2.957-1.591-0.854,6.836-2.968,6.789
		c-2.11-0.047-0.754-8.161-3.741-6.933c-3.374,1.387-6.045,4.737-11.272,5.473c-1.543,0.217-3.754,0.84-5.507,1.412
		c-27.347,0.001-69.476,0.001-69.476,0.001s0-33.609,0-71.782c0.746-1.608,1.627-3.631,2.114-5.12
		c1.453-4.442,3.099-7.293,4.628-10.135c1.591-2.957-6.836-0.854-6.789-2.968"/>
	<path fill="none" stroke="#000000" d="M557.44,432.39c0.047-2.114-8.38-0.011-6.789-2.968c1.529-2.841,3.175-5.692,4.628-10.135
		c0.487-1.489,1.368-3.511,2.114-5.12c0-16.568,0-35.782,0-35.782s-13.51,0-30.974,0c-0.826,0-1.661,0-2.503,0
		c-1.752,0.574-3.964,1.197-5.507,1.414c-5.227,0.735-7.897,4.086-11.272,5.473c-2.987,1.228-1.631-6.887-3.741-6.933
		c-2.114-0.047-0.011,8.38-2.968,6.789c-2.841-1.529-5.692-3.175-10.135-4.628c-1.489-0.487-3.511-1.368-5.12-2.116
		c-19.728,0.002-35.781,0.002-35.781,0.002s0,14.807,0,33.477c0.574,1.752,1.197,3.963,1.414,5.506
		c0.735,5.227,4.086,7.897,5.473,11.271c1.228,2.987-6.887,1.631-6.933,3.741c-0.047,2.114,8.38,0.011,6.789,2.968
		c-1.529,2.841-3.175,5.692-4.628,10.135c-0.487,1.489-1.368,3.511-2.114,5.12c0,19.728,0,35.782,0,35.782s17.722,0,33.476-0.001
		c1.753-0.573,3.964-1.195,5.507-1.412c2.342-0.329,4.17-1.184,5.779-2.151c1.982-1.192,3.63-2.556,5.492-3.321
		c2.987-1.228,1.631,6.887,3.741,6.933"/>
	<rect x="107.392" y="36.386" fill="none" stroke="#FFFF00" width="792" height="792"/>
	<g>
	</g>
	<g>
	</g>
	<g>
	</g>
	<g>
	</g>
	<g>
	</g>
	<g>
	</g>
</g>
</svg>
