<?xml version="1.0" encoding="utf-8"?>
<!-- Generator: Adobe Illustrator 22.0.1, SVG Export Plug-In . SVG Version: 6.00 Build 0)  -->
<svg version="1.1" id="Layer_1" xmlns="http://www.w3.org/2000/svg" xmlns:xlink="http://www.w3.org/1999/xlink" x="0px" y="0px"
	 width="1440px" height="864px" viewBox="0 0 1440 864" enable-background="new 0 0 1440 864" xml:space="preserve">
<path fill="none" stroke="#0000FF" d="M793.475,178.765c32.504,32.479,59.29,71.761,77.969,116.856
	c76.086,183.688-11.143,394.277-194.831,470.363s-394.277-11.143-470.363-194.831"/>
<path fill="none" stroke="#0000FF" d="M588.74,412.72c2.65,6.37,4.11,13.35,4.11,20.67c0,29.82-24.18,54-54,54
	c-29.82,0-54-24.18-54-54"/>
<path fill="none" stroke="#0000FF" d="M573.3,350.22c10.614,4.391,20.563,10.904,29.189,19.53
	c35.143,35.143,35.143,92.136,0,127.279c-35.15,35.15-92.136,35.143-127.279,0"/>
<path fill="none" stroke="#0000FF" d="M490.62,316.95c14.85-6.16,31.15-9.56,48.23-9.56c69.58,0,126,56.41,126,126
	s-56.42,126-126,126"/>
<path fill="none" stroke="#0064FF" d="M389.148,371.384c7.898-19.113,19.615-37.01,35.15-52.545
	c63.265-63.265,165.838-63.265,229.103,0s63.265,165.838,0,229.103"/>
<path fill="none" stroke="#0064FF" d="M355.87,509.18c-9.68-23.34-15.02-48.94-15.02-75.79c0-109.35,88.65-198,198-198
	s198,88.65,198,198"/>
<path fill="none" stroke="#0064FF" d="M449.281,649.63c-27.605-11.413-53.457-28.341-75.894-50.777
	c-91.379-91.379-91.379-239.547,0-330.926c91.386-91.386,239.547-91.379,330.926,0"/>
<path fill="none" stroke="#0064FF" d="M642.205,682.901c-31.835,13.201-66.742,20.487-103.352,20.487
	c-149.117,0-270-120.883-270-270s120.883-270,270-270"/>
<path fill="none" stroke="#0000FF" d="M821.633,550.518c-14.933,36.091-37.068,69.905-66.406,99.243
	c-119.5,119.5-313.249,119.5-432.749,0s-119.5-313.249,0-432.749"/>
<path fill="none" stroke="#0000FF" d="M854.899,302.478c16.721,40.323,25.949,84.538,25.949,130.908c0,188.881-153.119,342-342,342
	s-342-153.119-342-342"/>
<path fill="none" stroke="#0000FF" d="M589.769,382.468c6.51,6.493,11.865,14.352,15.6,23.369
	c15.215,36.733-2.233,78.857-38.966,94.073c-36.743,15.219-78.857-2.233-94.073-38.966"/>
<path fill="none" stroke="#0000FF" d="M538.849,325.367c13.785-0.016,27.796,2.638,41.331,8.244
	c55.1,22.823,81.276,85.999,58.449,141.109c-22.827,55.109-86.009,81.272-141.109,58.449"/>
<path fill="none" stroke="#0000FF" d="M437.002,331.543c12.993-13.002,28.698-23.718,46.742-31.192
	c73.476-30.435,157.71,4.456,188.145,77.932s-4.456,157.71-77.932,188.145"/>
<path fill="none" stroke="#0064FF" d="M358.805,433.39c-0.01-22.972,4.405-46.331,13.747-68.883
	c38.043-91.843,143.338-135.458,235.181-97.415s135.458,143.339,97.415,235.181"/>
<path fill="none" stroke="#0064FF" d="M386.084,586.16c-19.512-19.486-35.583-43.05-46.792-70.11
	c-45.65-110.21,6.689-236.567,116.898-282.218c110.219-45.654,236.567,6.689,282.218,116.898"/>
<path fill="none" stroke="#0064FF" d="M538.852,685.448c-32.167,0.022-64.869-6.164-96.438-19.24
	C313.837,612.95,252.774,465.53,306.032,336.954c53.262-128.586,200.678-189.639,329.254-136.381"/>
<path fill="none" stroke="#0000FF" d="M742.553,637.087c-25.984,26.004-57.41,47.434-93.487,62.377
	c-146.95,60.869-315.421-8.914-376.29-155.864s8.914-315.421,155.864-376.29"/>
<path fill="none" stroke="#0000FF" d="M862.935,433.386c0.016,41.356-7.936,83.402-24.748,123.989
	C769.709,722.695,580.18,801.201,414.861,732.723S171.036,474.716,239.513,309.397"/>
<circle fill="none" stroke="#FF6400" cx="538.851" cy="433.392" r="432"/>
<g>
</g>
<g>
</g>
<g>
</g>
<g>
</g>
<g>
</g>
<g>
</g>
</svg>
