<?xml version="1.0" encoding="utf-8"?>
<!-- Generator: Adobe Illustrator 22.1.0, SVG Export Plug-In . SVG Version: 6.00 Build 0)  -->
<svg version="1.1" xmlns="http://www.w3.org/2000/svg" xmlns:xlink="http://www.w3.org/1999/xlink" x="0px" y="0px" width="1440px"
	 height="864px" viewBox="0 0 1440 864" enable-background="new 0 0 1440 864" xml:space="preserve">
<g id="Layer_2" display="none">
	<line display="inline" fill="none" stroke="#000000" x1="26.906" y1="433.386" x2="838.791" y2="433.386"/>
	<line display="inline" fill="none" stroke="#000000" x1="432.848" y1="839.329" x2="432.848" y2="27.444"/>
	<line display="inline" fill="none" stroke="#000000" x1="145.804" y1="720.431" x2="719.893" y2="146.341"/>
	<line display="inline" fill="none" stroke="#000000" x1="719.893" y1="720.431" x2="145.804" y2="146.341"/>
</g>
<g id="Layer_1">
	<circle fill="none" stroke="#FFFF00" cx="432.848" cy="433.386" r="360"/>
	<circle fill="none" stroke="#000000" cx="432.848" cy="433.386" r="54"/>
	<path fill="none" stroke="#000000" d="M369.209,369.747c16.287-16.287,38.787-26.36,63.64-26.36c49.706,0,90,40.294,90,90
		c0,24.853-10.074,47.353-26.36,63.64"/>
	<path fill="none" stroke="#0000FF" d="M432.848,307.386c69.588,0,126,56.412,126,126s-56.412,126-126,126"/>
	<path fill="none" stroke="#0000FF" d="M547.4,318.835c29.316,29.316,47.449,69.816,47.449,114.551c0,89.47-72.53,162-162,162
		c-44.735,0-85.235-18.132-114.551-47.449"/>
	<path fill="none" stroke="#006400" d="M630.849,433.386c0,109.352-88.648,198-198,198s-198-88.648-198-198"/>
	<path fill="none" stroke="#006400" d="M598.311,598.849c-42.346,42.346-100.846,68.537-165.463,68.537
		c-129.235,0-234-104.765-234-234c0-64.617,26.191-123.117,68.537-165.463"/>
	<path fill="none" stroke="#006400" d="M432.848,703.386c-149.117,0-270-120.883-270-270s120.883-270,270-270"/>
	<path fill="none" stroke="#0064FF" d="M216.847,650.133c-55.594-55.404-89.998-132.058-89.998-216.747
		c0-168.999,137.001-306,306-306c84.31,0,160.657,34.097,216.002,89.253"/>
	<path fill="none" stroke="#0064FF" d="M90.848,433.386c0-188.881,153.119-342,342-342s342,153.119,342,342"/>
	<path fill="none" stroke="#000000" d="M483.76,484.298c-13.029,13.029-31.029,21.088-50.912,21.088c-39.764,0-72-32.236-72-72
		c0-19.882,8.059-37.882,21.088-50.912"/>
	<path fill="none" stroke="#000000" d="M432.848,541.386c-59.647,0-108-48.353-108-108s48.353-108,108-108"/>
	<path fill="none" stroke="#0000FF" d="M331.025,535.21c-26.059-26.059-42.177-62.059-42.177-101.823c0-79.529,64.471-144,144-144
		c39.764,0,75.764,16.118,101.823,42.177"/>
	<path fill="none" stroke="#0000FF" d="M252.848,433.386c0-99.411,80.589-180,180-180s180,80.589,180,180"/>
	<path fill="none" stroke="#006400" d="M280.113,280.651c39.088-39.088,93.088-63.265,152.735-63.265c119.293,0,216,96.706,216,216
		c0,59.647-24.177,113.647-63.265,152.735"/>
	<path fill="none" stroke="#006400" d="M432.848,181.386c139.176,0,252,112.824,252,252s-112.824,252-252,252"/>
	<path fill="none" stroke="#0064FF" d="M636.495,229.74c52.118,52.118,84.353,124.118,84.353,203.647c0,159.058-128.942,288-288,288
		c-79.529,0-151.529-32.235-203.647-84.353"/>
	<path fill="none" stroke="#0064FF" d="M756.849,433.386c0,178.94-145.06,324-324,324s-324-145.06-324-324"/>
	<line fill="none" stroke="#64FF00" x1="756.849" y1="433.386" x2="774.849" y2="433.386"/>
	<line fill="none" stroke="#64FF00" x1="630.849" y1="433.386" x2="612.849" y2="433.386"/>
	<line fill="none" stroke="#64FF00" x1="234.848" y1="433.386" x2="252.848" y2="433.386"/>
	<line fill="none" stroke="#64FF00" x1="90.848" y1="433.386" x2="108.848" y2="433.386"/>
	<line fill="none" stroke="#64FF00" x1="432.848" y1="541.386" x2="432.848" y2="559.386"/>
	<line fill="none" stroke="#64FF00" x1="432.848" y1="685.386" x2="432.848" y2="703.386"/>
	<line fill="none" stroke="#64FF00" x1="432.848" y1="307.386" x2="432.848" y2="325.386"/>
	<line fill="none" stroke="#64FF00" x1="432.848" y1="163.386" x2="432.848" y2="181.386"/>
	<line fill="none" stroke="#64FF00" x1="648.85" y1="216.64" x2="636.123" y2="229.367"/>
	<line fill="none" stroke="#64FF00" x1="547.4" y1="318.835" x2="534.672" y2="331.563"/>
	<line fill="none" stroke="#64FF00" x1="331.025" y1="535.21" x2="318.297" y2="547.938"/>
	<line fill="none" stroke="#64FF00" x1="229.202" y1="637.033" x2="216.474" y2="649.761"/>
	<line fill="none" stroke="#64FF00" x1="267.385" y1="267.923" x2="280.113" y2="280.651"/>
	<line fill="none" stroke="#64FF00" x1="369.209" y1="369.747" x2="381.937" y2="382.475"/>
	<line fill="none" stroke="#64FF00" x1="483.76" y1="484.298" x2="496.488" y2="497.026"/>
	<line fill="none" stroke="#64FF00" x1="585.584" y1="586.121" x2="598.311" y2="598.849"/>
	<g>
	</g>
	<g>
	</g>
	<g>
	</g>
	<g>
	</g>
	<g>
	</g>
	<g>
	</g>
</g>
</svg>
