<?xml version="1.0" encoding="utf-8"?>
<!-- Generator: Adobe Illustrator 22.0.1, SVG Export Plug-In . SVG Version: 6.00 Build 0)  -->
<svg version="1.1" id="Layer_1" xmlns="http://www.w3.org/2000/svg" xmlns:xlink="http://www.w3.org/1999/xlink" x="0px" y="0px"
	 width="1440px" height="864px" viewBox="0 0 1440 864" enable-background="new 0 0 1440 864" xml:space="preserve">
<path fill="none" stroke="#FF0000" stroke-width="2" d="M756.307,431.566c0.093,9.333-3.421,18.695-10.542,25.816
	c-14.059,14.059-36.853,14.059-50.912,0c-14.059-14.059-14.059-36.853,0-50.912"/>
<path fill="none" stroke="#FF0000" stroke-width="2" d="M770.76,381.475c13.029,13.029,21.088,31.029,21.088,50.912
	c0,39.764-32.236,72-72,72c-39.765,0-72-32.236-72-72"/>
<path fill="none" stroke="#FF0000" stroke-width="2" d="M719.848,324.386c27.64,0,55.279,10.544,76.368,31.632
	c42.177,42.177,42.177,110.558,0,152.735c-42.177,42.177-110.558,42.177-152.735,0"/>
<path fill="none" stroke="#FF0000" stroke-width="2" d="M618.025,330.563c26.059-26.059,62.059-42.177,101.823-42.177
	c79.529,0,144,64.471,144,144s-64.471,144-144,144"/>
<path fill="none" stroke="#FF0000" stroke-width="2" d="M539.849,432.386c0-46.066,17.574-92.132,52.721-127.279
	c70.294-70.294,184.264-70.294,254.558,0s70.294,184.264,0,254.558"/>
<path fill="none" stroke="#FF0000" stroke-width="2" d="M935.849,432.386c0-119.294-96.707-216-216-216s-216,96.706-216,216
	c0,59.647,24.177,113.647,63.265,152.735"/>
<path fill="none" stroke="#FF0000" stroke-width="2" d="M719.849,684.386c-64.492,0-128.985-24.603-178.191-73.809
	c-98.412-98.412-98.412-257.97,0-356.382s257.97-98.412,356.382,0"/>
<path fill="none" stroke="#FF0000" stroke-width="2" d="M923.495,636.033c-52.118,52.118-124.118,84.353-203.647,84.353
	c-159.058,0-288-128.942-288-288s128.942-288,288-288"/>
<path fill="none" stroke="#FF0000" stroke-width="2" d="M948.951,661.489c-126.53,126.53-331.675,126.53-458.205,0
	s-126.53-331.675,0-458.205"/>
<line fill="none" stroke="#0064FF" stroke-width="2" x1="643.481" y1="508.754" x2="796.216" y2="356.019"/>
<line fill="none" stroke="#0064FF" stroke-width="2" x1="719.849" y1="576.386" x2="719.849" y2="288.386"/>
<line fill="none" stroke="#0064FF" stroke-width="2" x1="847.128" y1="559.666" x2="592.569" y2="305.107"/>
<line fill="none" stroke="#0064FF" stroke-width="2" x1="935.849" y1="432.386" x2="503.848" y2="432.386"/>
<line fill="none" stroke="#0064FF" stroke-width="2" x1="898.039" y1="254.195" x2="541.658" y2="610.577"/>
<line fill="none" stroke="#0064FF" stroke-width="2" x1="719.849" y1="144.386" x2="719.849" y2="720.386"/>
<line fill="none" stroke="#0064FF" stroke-width="2" x1="490.746" y1="203.284" x2="948.951" y2="661.489"/>
<circle fill="none" stroke="#FF6400" stroke-width="2" cx="719.462" cy="432" r="397"/>
<g>
</g>
<g>
</g>
<g>
</g>
<g>
</g>
<g>
</g>
<g>
</g>
</svg>
