<?xml version="1.0" encoding="utf-8"?>
<!-- Generator: Adobe Illustrator 22.0.1, SVG Export Plug-In . SVG Version: 6.00 Build 0)  -->
<svg version="1.1" xmlns="http://www.w3.org/2000/svg" xmlns:xlink="http://www.w3.org/1999/xlink" x="0px" y="0px" width="1440px"
	 height="864px" viewBox="0 0 1440 864" enable-background="new 0 0 1440 864" xml:space="preserve">
<g id="Layer_2" display="none">
	<line display="inline" fill="none" stroke="#640000" stroke-width="0.25" x1="25.697" y1="433.386" x2="840" y2="433.386"/>
	<line display="inline" fill="none" stroke="#640000" stroke-width="0.25" x1="33.871" y1="514.559" x2="831.826" y2="352.213"/>
	<line display="inline" fill="none" stroke="#640000" stroke-width="0.25" x1="56.69" y1="589.197" x2="809.007" y2="277.576"/>
	<line display="inline" fill="none" stroke="#640000" stroke-width="0.25" x1="95.305" y1="661.063" x2="770.392" y2="205.71"/>
	<line display="inline" fill="none" stroke="#640000" stroke-width="0.25" x1="144.949" y1="721.286" x2="720.748" y2="145.487"/>
	<line display="inline" fill="none" stroke="#640000" stroke-width="0.25" x1="208.127" y1="772.904" x2="657.57" y2="93.868"/>
	<line display="inline" fill="none" stroke="#640000" stroke-width="0.25" x1="277.038" y1="809.545" x2="588.659" y2="57.227"/>
	<line display="inline" fill="none" stroke="#640000" stroke-width="0.25" x1="355.16" y1="833.057" x2="510.537" y2="33.715"/>
	<line display="inline" fill="none" stroke="#640000" stroke-width="0.25" x1="432.848" y1="840.538" x2="432.848" y2="26.235"/>
	<line display="inline" fill="none" stroke="#640000" stroke-width="0.25" x1="514.021" y1="832.364" x2="351.676" y2="34.409"/>
	<line display="inline" fill="none" stroke="#640000" stroke-width="0.25" x1="588.659" y1="809.545" x2="277.038" y2="57.227"/>
	<line display="inline" fill="none" stroke="#640000" stroke-width="0.25" x1="660.525" y1="770.93" x2="205.172" y2="95.842"/>
	<line display="inline" fill="none" stroke="#640000" stroke-width="0.25" x1="720.748" y1="721.286" x2="144.949" y2="145.487"/>
	<line display="inline" fill="none" stroke="#640000" stroke-width="0.25" x1="772.366" y1="658.108" x2="93.331" y2="208.664"/>
	<line display="inline" fill="none" stroke="#640000" stroke-width="0.25" x1="809.007" y1="589.197" x2="56.69" y2="277.576"/>
	<line display="inline" fill="none" stroke="#640000" stroke-width="0.25" x1="832.519" y1="511.075" x2="33.178" y2="355.698"/>
</g>
<g id="Layer_1" display="none">
	<rect x="72.848" y="73.386" display="inline" fill="none" stroke="#FFFF00" width="720" height="720"/>
	<circle display="inline" fill="none" stroke="#FF0000" cx="432.848" cy="433.386" r="360"/>
	<circle display="inline" fill="none" stroke="#FF0000" cx="432.848" cy="433.386" r="81"/>
	<circle display="inline" fill="none" stroke="#FF0000" cx="432.848" cy="433.386" r="117"/>
	<circle display="inline" fill="none" stroke="#FF0000" cx="432.848" cy="433.386" r="153"/>
	<circle display="inline" fill="none" stroke="#FF0000" cx="432.848" cy="433.386" r="189"/>
	<circle display="inline" fill="none" stroke="#FF0000" cx="432.848" cy="433.386" r="225"/>
	<circle display="inline" fill="none" stroke="#FF0000" cx="432.848" cy="433.386" r="261"/>
	<circle display="inline" fill="none" stroke="#FF0000" cx="432.848" cy="433.386" r="63"/>
	<circle display="inline" fill="none" stroke="#FF0000" cx="432.848" cy="433.386" r="99"/>
	<circle display="inline" fill="none" stroke="#FF0000" cx="432.848" cy="433.386" r="135"/>
	<circle display="inline" fill="none" stroke="#FF0000" cx="432.848" cy="433.386" r="171"/>
	<circle display="inline" fill="none" stroke="#FF0000" cx="432.848" cy="433.386" r="207"/>
	<circle display="inline" fill="none" stroke="#FF0000" cx="432.848" cy="433.386" r="243"/>
	<circle display="inline" fill="none" stroke="#FF0000" cx="432.848" cy="433.386" r="279"/>
	<circle display="inline" fill="none" stroke="#FF0000" cx="432.848" cy="433.386" r="315"/>
	<circle display="inline" fill="none" stroke="#FF0000" cx="432.848" cy="433.386" r="297"/>
	<circle display="inline" fill="none" stroke="#FF0000" cx="432.848" cy="433.386" r="333"/>
	<circle display="inline" fill="none" stroke="#FF0000" cx="432.848" cy="433.386" r="351"/>
	<circle display="inline" fill="none" stroke="#FF0000" cx="432.848" cy="433.386" r="342"/>
	<circle display="inline" fill="none" stroke="#FF0000" cx="432.848" cy="433.386" r="54"/>
	<circle display="inline" fill="none" stroke="#FF0000" cx="432.848" cy="433.386" r="90"/>
	<circle display="inline" fill="none" stroke="#FF0000" cx="432.848" cy="433.386" r="126"/>
	<circle display="inline" fill="none" stroke="#FF0000" cx="432.848" cy="433.386" r="162"/>
	<circle display="inline" fill="none" stroke="#FF0000" cx="432.848" cy="433.386" r="198"/>
	<circle display="inline" fill="none" stroke="#FF0000" cx="432.848" cy="433.386" r="234"/>
	<circle display="inline" fill="none" stroke="#FF0000" cx="432.848" cy="433.386" r="270"/>
	<circle display="inline" fill="none" stroke="#FF0000" cx="432.848" cy="433.386" r="306"/>
	<circle display="inline" fill="none" stroke="#FF0000" cx="432.848" cy="433.386" r="72"/>
	<circle display="inline" fill="none" stroke="#FF0000" cx="432.848" cy="433.386" r="108"/>
	<circle display="inline" fill="none" stroke="#FF0000" cx="432.848" cy="433.386" r="144"/>
	<circle display="inline" fill="none" stroke="#FF0000" cx="432.848" cy="433.386" r="180"/>
	<circle display="inline" fill="none" stroke="#FF0000" cx="432.848" cy="433.386" r="216"/>
	<circle display="inline" fill="none" stroke="#FF0000" cx="432.848" cy="433.386" r="252"/>
	<circle display="inline" fill="none" stroke="#FF0000" cx="432.848" cy="433.386" r="288"/>
	<circle display="inline" fill="none" stroke="#FF0000" cx="432.848" cy="433.386" r="324"/>
</g>
<g id="edit">
	<path fill="none" stroke="#FF0000" d="M72.848,433.386c0-198.823,161.177-360,360-360s360,161.177,360,360"/>
	<path display="none" fill="none" stroke="#FF0000" d="M792.849,433.386c0,198.822-161.177,360-360,360s-360-161.177-360-360"/>
	<path fill="none" stroke="#FF0000" d="M353.322,417.928c7.216-37.341,40.078-65.542,79.527-65.542c44.735,0,81,36.265,81,81
		c0,10.983-2.186,21.455-6.146,31.005"/>
	<path fill="none" stroke="#FF0000" d="M367.416,336.379c18.677-12.622,41.194-19.993,65.432-19.993c64.617,0,117,52.383,117,117
		c0,48.753-29.819,90.542-72.214,108.122"/>
	<path fill="none" stroke="#FF0000" d="M462.048,283.169c70.533,13.63,123.801,75.703,123.801,150.217c0,84.5-68.5,153-153,153
		c-20.745,0-40.526-4.129-58.566-11.609"/>
	<path fill="none" stroke="#FF0000" d="M589.552,327.688c20.39,30.17,32.296,66.544,32.296,105.698c0,104.382-84.618,189-189,189
		c-78.755,0-146.26-48.17-174.659-116.654"/>
	<path fill="none" stroke="#FF0000" d="M653.756,476.326c-20.044,103.725-111.328,182.06-220.907,182.06
		c-124.264,0-225-100.736-225-225c0-30.508,6.072-59.597,17.073-86.126"/>
	<path fill="none" stroke="#FF0000" d="M578.813,649.787c-41.663,28.157-91.893,44.599-145.964,44.599
		c-144.146,0-261-116.854-261-261c0-108.757,66.52-201.978,161.093-241.196"/>
	<path fill="none" stroke="#FF0000" d="M371.128,446.083c-0.839-4.101-1.28-8.347-1.28-12.697c0-34.794,28.206-63,63-63
		s63,28.206,63,63"/>
	<path fill="none" stroke="#FF0000" d="M350.285,378.739c17.727-26.729,48.087-44.352,82.564-44.352c54.676,0,99,44.324,99,99
		c0,27.338-11.081,52.088-28.996,70.004"/>
	<path fill="none" stroke="#FF0000" d="M405.641,301.129c8.788-1.798,17.887-2.743,27.207-2.743c74.558,0,135,60.442,135,135
		s-60.442,135-135,135"/>
	<path fill="none" stroke="#FF0000" d="M527.24,290.776c46.169,30.62,76.609,83.06,76.609,142.61c0,94.441-76.559,171-171,171
		c-47.22,0-89.97-19.14-120.915-50.085"/>
	<path fill="none" stroke="#FF0000" d="M635.733,392.109c2.699,13.339,4.116,27.143,4.116,41.277c0,114.323-92.677,207-207,207
		s-207-92.677-207-207"/>
	<path fill="none" stroke="#FF0000" d="M635.505,567.522c-43.512,65.608-118.033,108.865-202.656,108.865
		c-134.205,0-243-108.795-243-243c0-67.103,27.199-127.853,71.173-171.827"/>
	<path fill="none" stroke="#FF0000" d="M488.483,706.839c-17.978,3.638-36.583,5.547-55.635,5.547c-154.087,0-279-124.913-279-279
		s124.913-279,279-279"/>
	<path fill="none" stroke="#FF0000" d="M258.969,696.089c-85.048-56.405-141.121-153.005-141.121-262.703
		c0-173.97,141.03-315,315-315c86.985,0,165.735,35.258,222.739,92.261"/>
	<path fill="none" stroke="#FF0000" d="M376.168,724.984C239.25,698.526,135.848,578.032,135.848,433.386
		c0-164.029,132.971-297,297-297c40.27,0,78.668,8.015,113.687,22.536"/>
	<path fill="none" stroke="#FF0000" d="M156.751,619.616c-35.925-53.156-56.903-117.243-56.903-186.23
		c0-183.911,149.089-333,333-333c138.759,0,257.696,84.87,307.732,205.533"/>
	<path fill="none" stroke="#FF0000" d="M88.828,503.378c-4.577-22.618-6.979-46.024-6.979-69.992c0-193.852,157.148-351,351-351
		s351,157.148,351,351"/>
	<path display="none" fill="none" stroke="#FF0000" d="M783.849,433.386c0,193.852-157.148,351-351,351
		c-169.62,0-311.139-120.316-343.869-280.261"/>
	<path display="none" fill="none" stroke="#FF0000" d="M767.9,364.461c4.556,22.263,6.948,45.315,6.948,68.925
		c0,188.881-153.119,342-342,342c-141.661,0-263.206-86.129-315.124-208.878"/>
	<path fill="none" stroke="#FF0000" d="M116.799,564.298c-16.721-40.324-25.951-84.54-25.951-130.912c0-188.881,153.119-342,342-342
		c165.271,0,303.162,117.231,335.052,273.075"/>
	<path fill="none" stroke="#FF0000" d="M379.946,444.269c-0.719-3.515-1.097-7.155-1.097-10.883c0-29.823,24.177-54,54-54
		c26.095,0,47.868,18.51,52.903,43.117"/>
	<path fill="none" stroke="#FF0000" d="M349.678,398.936c13.523-32.612,45.668-55.549,83.171-55.549c49.706,0,90,40.294,90,90
		c0,18.364-5.5,35.443-14.942,49.68"/>
	<path fill="none" stroke="#FF0000" d="M384.618,316.947c14.856-6.161,31.146-9.561,48.231-9.561c69.588,0,126,56.412,126,126
		c0,60.889-43.191,111.691-100.607,123.44"/>
	<path fill="none" stroke="#FF0000" d="M494.859,283.679c58.701,24.342,99.989,82.203,99.989,149.708c0,89.47-72.53,162-162,162
		c-33.054,0-63.797-9.9-89.423-26.896"/>
	<path fill="none" stroke="#FF0000" d="M615.825,357.595c9.681,23.346,15.024,48.944,15.024,75.791c0,109.352-88.648,198-198,198
		c-95.683,0-175.515-67.871-193.977-158.096"/>
	<path fill="none" stroke="#FF0000" d="M649.093,522.958c-35.161,84.79-118.738,144.429-216.244,144.429
		c-129.235,0-234-104.765-234-234c0-47.745,14.299-92.151,38.849-129.167"/>
	<path fill="none" stroke="#FF0000" d="M536.2,682.899c-31.835,13.201-66.742,20.487-103.352,20.487c-149.117,0-270-120.883-270-270
		c0-130.477,92.551-239.338,215.586-264.515"/>
	<path fill="none" stroke="#FF0000" d="M315.717,716.167c-110.879-45.979-188.868-155.272-188.868-282.781
		c0-168.999,137.001-306,306-306c62.436,0,120.505,18.699,168.911,50.803"/>
	<path fill="none" stroke="#FF0000" d="M360.848,433.386c0-39.765,32.236-72,72-72s72,32.235,72,72c0,4.699-0.45,9.293-1.31,13.741"
		/>
	<path fill="none" stroke="#FF0000" d="M356.481,357.019c19.544-19.544,46.544-31.632,76.368-31.632c59.647,0,108,48.353,108,108
		c0,37.273-18.881,70.135-47.601,89.545"/>
	<path fill="none" stroke="#FF0000" d="M432.848,289.386c79.529,0,144,64.471,144,144s-64.471,144-144,144
		c-9.398,0-18.586-0.9-27.482-2.619"/>
	<path fill="none" stroke="#FF0000" d="M560.128,306.107c32.574,32.574,52.721,77.574,52.721,127.279c0,99.411-80.589,180-180,180
		c-62.121,0-116.892-31.469-149.242-79.335"/>
	<path fill="none" stroke="#FF0000" d="M648.849,433.386c0,119.293-96.707,216-216,216s-216-96.706-216-216
		c0-14.097,1.35-27.879,3.929-41.222"/>
	<path fill="none" stroke="#FF0000" d="M611.039,611.577c-45.603,45.603-108.603,73.809-178.191,73.809
		c-139.176,0-252-112.824-252-252c0-86.97,44.057-163.649,111.069-208.939"/>
	<path fill="none" stroke="#FF0000" d="M432.848,721.386c-159.058,0-288-128.942-288-288s128.942-288,288-288
		c18.796,0,37.171,1.801,54.963,5.239"/>
	<path fill="none" stroke="#FF0000" d="M203.746,662.489c-58.632-58.632-94.897-139.633-94.897-229.103c0-178.94,145.06-324,324-324
		c111.818,0,210.406,56.644,268.635,142.803"/>
</g>
<g id="Layer_4">
	<line fill="none" stroke="#0064FF" x1="783.849" y1="433.386" x2="792.849" y2="433.386"/>
	<line fill="none" stroke="#0064FF" x1="776.869" y1="363.395" x2="767.9" y2="365.219"/>
	<line fill="none" stroke="#0064FF" x1="740.581" y1="305.919" x2="748.897" y2="302.475"/>
	<line fill="none" stroke="#0064FF" x1="701.484" y1="252.19" x2="708.945" y2="247.157"/>
	<line fill="none" stroke="#0064FF" x1="655.587" y1="210.648" x2="661.95" y2="204.285"/>
	<line fill="none" stroke="#0064FF" x1="601.76" y1="178.189" x2="606.727" y2="170.684"/>
	<line fill="none" stroke="#0064FF" x1="546.535" y1="158.922" x2="549.98" y2="150.606"/>
	<line fill="none" stroke="#0064FF" x1="487.812" y1="150.625" x2="489.529" y2="141.789"/>
	<line fill="none" stroke="#0064FF" x1="432.848" y1="154.386" x2="432.848" y2="145.386"/>
	<line fill="none" stroke="#0064FF" x1="379.032" y1="168.872" x2="377.214" y2="159.934"/>
	<line fill="none" stroke="#0064FF" x1="332.942" y1="192.191" x2="329.497" y2="183.874"/>
	<line fill="none" stroke="#0064FF" x1="291.918" y1="224.448" x2="286.885" y2="216.986"/>
	<line fill="none" stroke="#0064FF" x1="261.022" y1="261.559" x2="254.658" y2="255.196"/>
	<line fill="none" stroke="#0064FF" x1="237.698" y1="304.219" x2="230.192" y2="299.251"/>
	<line fill="none" stroke="#0064FF" x1="224.921" y1="347.26" x2="216.604" y2="343.815"/>
	<line fill="none" stroke="#0064FF" x1="220.777" y1="392.164" x2="211.941" y2="390.446"/>
	<line fill="none" stroke="#0064FF" x1="225.848" y1="433.386" x2="216.848" y2="433.386"/>
	<line fill="none" stroke="#0064FF" x1="229.965" y1="474.664" x2="238.871" y2="472.852"/>
	<line fill="none" stroke="#0064FF" x1="258.19" y1="505.732" x2="249.873" y2="509.177"/>
	<line fill="none" stroke="#0064FF" x1="283.607" y1="534.051" x2="276.145" y2="539.084"/>
	<line fill="none" stroke="#0064FF" x1="311.933" y1="554.302" x2="305.57" y2="560.665"/>
	<line fill="none" stroke="#0064FF" x1="343.425" y1="568.491" x2="338.457" y2="575.996"/>
	<line fill="none" stroke="#0064FF" x1="374.283" y1="574.777" x2="370.838" y2="583.094"/>
	<line fill="none" stroke="#0064FF" x1="405.367" y1="574.767" x2="403.649" y2="583.603"/>
	<line fill="none" stroke="#0064FF" x1="432.848" y1="568.386" x2="432.848" y2="577.386"/>
	<line fill="none" stroke="#0064FF" x1="459.768" y1="565.702" x2="457.891" y2="556.826"/>
	<line fill="none" stroke="#0064FF" x1="477.634" y1="541.509" x2="481.079" y2="549.825"/>
	<line fill="none" stroke="#0064FF" x1="493.247" y1="522.931" x2="498.28" y2="530.393"/>
	<line fill="none" stroke="#0064FF" x1="502.852" y1="503.39" x2="509.215" y2="509.753"/>
	<line fill="none" stroke="#0064FF" x1="507.906" y1="483.066" x2="515.411" y2="488.034"/>
	<line fill="none" stroke="#0064FF" x1="507.702" y1="464.392" x2="516.019" y2="467.837"/>
	<line fill="none" stroke="#0064FF" x1="503.539" y1="447.127" x2="512.374" y2="448.845"/>
	<line fill="none" stroke="#0064FF" x1="495.848" y1="433.386" x2="504.848" y2="433.386"/>
	<line fill="none" stroke="#0064FF" x1="485.751" y1="422.503" x2="494.595" y2="420.824"/>
	<line fill="none" stroke="#0064FF" x1="379.946" y1="444.269" x2="371.128" y2="446.083"/>
	<line fill="none" stroke="#0064FF" x1="369.848" y1="433.386" x2="360.848" y2="433.386"/>
	<line fill="none" stroke="#0064FF" x1="353.322" y1="417.928" x2="362.159" y2="419.646"/>
	<line fill="none" stroke="#0064FF" x1="349.678" y1="398.936" x2="357.995" y2="402.381"/>
	<line fill="none" stroke="#0064FF" x1="350.285" y1="378.739" x2="357.791" y2="383.707"/>
	<line fill="none" stroke="#0064FF" x1="356.481" y1="357.019" x2="362.846" y2="363.384"/>
	<line fill="none" stroke="#0064FF" x1="367.416" y1="336.379" x2="372.45" y2="343.842"/>
	<line fill="none" stroke="#0064FF" x1="384.618" y1="316.947" x2="388.063" y2="325.265"/>
	<line fill="none" stroke="#0064FF" x1="405.929" y1="301.071" x2="407.723" y2="309.892"/>
	<line fill="none" stroke="#0064FF" x1="432.848" y1="289.386" x2="432.848" y2="298.386"/>
	<line fill="none" stroke="#0064FF" x1="462.048" y1="283.169" x2="460.33" y2="292.006"/>
	<line fill="none" stroke="#0064FF" x1="494.859" y1="283.679" x2="491.414" y2="291.996"/>
	<line fill="none" stroke="#0064FF" x1="527.24" y1="290.776" x2="522.272" y2="298.283"/>
	<line fill="none" stroke="#0064FF" x1="560.128" y1="306.107" x2="553.763" y2="312.472"/>
	<line fill="none" stroke="#0064FF" x1="589.552" y1="327.688" x2="582.09" y2="332.722"/>
	<line fill="none" stroke="#0064FF" x1="615.825" y1="357.595" x2="607.507" y2="361.04"/>
	<line fill="none" stroke="#0064FF" x1="635.733" y1="392.109" x2="626.91" y2="393.904"/>
	<line fill="none" stroke="#0064FF" x1="648.849" y1="433.386" x2="639.849" y2="433.386"/>
	<line fill="none" stroke="#0064FF" x1="653.756" y1="476.326" x2="644.919" y2="474.609"/>
	<line fill="none" stroke="#0064FF" x1="649.093" y1="522.958" x2="640.775" y2="519.512"/>
	<line fill="none" stroke="#0064FF" x1="635.505" y1="567.522" x2="627.998" y2="562.553"/>
	<line fill="none" stroke="#0064FF" x1="611.039" y1="611.577" x2="604.674" y2="605.212"/>
	<line fill="none" stroke="#0064FF" x1="578.813" y1="649.787" x2="573.779" y2="642.325"/>
	<line fill="none" stroke="#0064FF" x1="536.2" y1="682.899" x2="532.755" y2="674.581"/>
	<line fill="none" stroke="#0064FF" x1="488.483" y1="706.839" x2="486.688" y2="698.017"/>
	<line fill="none" stroke="#0064FF" x1="432.848" y1="721.386" x2="432.848" y2="712.386"/>
	<line fill="none" stroke="#0064FF" x1="376.168" y1="724.984" x2="377.881" y2="716.167"/>
	<line fill="none" stroke="#0064FF" x1="315.717" y1="716.167" x2="319.162" y2="707.85"/>
	<line fill="none" stroke="#0064FF" x1="258.969" y1="696.089" x2="263.938" y2="688.582"/>
	<line fill="none" stroke="#0064FF" x1="203.746" y1="662.489" x2="210.111" y2="656.124"/>
	<line fill="none" stroke="#0064FF" x1="156.751" y1="619.616" x2="164.214" y2="614.583"/>
	<line fill="none" stroke="#0064FF" x1="116.799" y1="564.298" x2="125.117" y2="560.853"/>
	<line fill="none" stroke="#0064FF" x1="97.649" y1="501.583" x2="88.828" y2="503.378"/>
	<line fill="none" stroke="#0064FF" x1="72.848" y1="433.386" x2="81.848" y2="433.386"/>
	<circle fill="none" stroke="#FFFF00" cx="432.848" cy="433.386" r="396"/>
	<g>
	</g>
	<g>
	</g>
	<g>
	</g>
	<g>
	</g>
	<g>
	</g>
	<g>
	</g>
</g>
</svg>
