<?xml version="1.0" encoding="utf-8"?>
<!-- Generator: Adobe Illustrator 22.1.0, SVG Export Plug-In . SVG Version: 6.00 Build 0)  -->
<svg version="1.1" xmlns="http://www.w3.org/2000/svg" xmlns:xlink="http://www.w3.org/1999/xlink" x="0px" y="0px" width="1440px"
	 height="864px" viewBox="0 0 1440 864" style="enable-background:new 0 0 1440 864;" xml:space="preserve">
<style type="text/css">
	.st0{display:none;}
	.st1{display:inline;fill:none;stroke:#000000;}
	.st2{display:inline;}
	.st3{fill:#0064FF;}
	.st4{fill:none;stroke:#FF6400;}
	.st5{fill:none;stroke:#000000;}
	.st6{fill:none;stroke:#00FFFF;}
	.st7{fill:none;stroke:#64FF00;}
</style>
<g id="Layer_2" class="st0">
	<line class="st1" x1="96.1" y1="432.4" x2="910.7" y2="432.4"/>
	<line class="st1" x1="503.4" y1="839.7" x2="503.4" y2="25.1"/>
	<g class="st2">
		
			<rect x="493.4" y="-76.7" transform="matrix(0.7071 -0.7071 0.7071 0.7071 -158.3026 482.5951)" class="st3" width="20" height="1018.2"/>
	</g>
	<g class="st2">
		
			<rect x="-5.7" y="422.4" transform="matrix(0.7071 -0.7071 0.7071 0.7071 -158.3026 482.5953)" class="st3" width="1018.2" height="20"/>
	</g>
</g>
<g id="Layer_1">
	<rect x="143.4" y="72.4" class="st4" width="720" height="720"/>
	<polyline class="st5" points="525.3,468.4 467.4,468.4 467.4,410.5 	"/>
	<polyline class="st5" points="481.5,396.4 539.4,396.4 539.4,454.2 	"/>
	<polyline class="st5" points="431.4,490.2 431.4,360.4 561.3,360.4 	"/>
	<polyline class="st5" points="575.4,374.5 575.4,504.4 445.5,504.4 	"/>
	<polyline class="st5" points="597.2,540.4 395.4,540.4 395.4,338.5 	"/>
	<polyline class="st5" points="409.5,324.4 611.4,324.4 611.4,526.2 	"/>
	<polyline class="st6" points="359.4,562.2 359.4,288.4 633.3,288.4 	"/>
	<polyline class="st6" points="647.4,302.5 647.4,576.4 373.5,576.4 	"/>
	<polyline class="st6" points="669.2,612.4 323.4,612.4 323.4,266.5 	"/>
	<polyline class="st6" points="337.5,252.4 683.4,252.4 683.4,598.2 	"/>
	<polyline class="st6" points="719.4,230.5 719.4,648.4 301.5,648.4 	"/>
	<polyline class="st6" points="287.4,634.2 287.4,216.4 705.3,216.4 	"/>
	<polyline class="st7" points="265.5,180.4 755.4,180.4 755.4,670.2 	"/>
	<polyline class="st7" points="741.2,684.4 251.4,684.4 251.4,194.5 	"/>
	<polyline class="st7" points="215.4,706.2 215.4,144.4 777.3,144.4 	"/>
	<polyline class="st7" points="791.4,158.5 791.4,720.4 229.5,720.4 	"/>
	<polyline class="st7" points="813.2,756.4 179.4,756.4 179.4,122.5 	"/>
	<polyline class="st7" points="193.5,108.4 827.4,108.4 827.4,742.2 	"/>
	<g>
	</g>
	<g>
	</g>
	<g>
	</g>
	<g>
	</g>
	<g>
	</g>
	<g>
	</g>
</g>
</svg>
