<?xml version="1.0" encoding="utf-8"?>
<!-- Generator: Adobe Illustrator 22.1.0, SVG Export Plug-In . SVG Version: 6.00 Build 0)  -->
<svg version="1.1" id="Layer_1" xmlns="http://www.w3.org/2000/svg" xmlns:xlink="http://www.w3.org/1999/xlink" x="0px" y="0px"
	 width="1404px" height="792px" viewBox="0 0 1404 792" enable-background="new 0 0 1404 792" xml:space="preserve">
<path fill="none" stroke="#000000" d="M652.489,421.764c18.385,8.263,38.663-8.172,44.263-25.764
	c10.62-33.364-15.81-64.85-47.752-71.628c-46.787-9.928-88.323,26.509-95.504,71.628c-9.559,60.061,37.213,111.958,95.504,119.38
	c73.281,9.33,135.673-47.914,143.256-119.38C801.432,309.519,733.64,236.566,649,228.868
	C549.33,219.803,465.776,298.186,457.992,396C449.011,508.855,538.013,603.033,649,610.884
	C775.035,619.799,879.855,520.161,887.76,396C896.623,256.786,786.334,141.312,649,133.364
	C496.608,124.544,370.473,245.493,362.488,396C353.704,561.568,485.32,698.373,649,706.388
	C827.744,715.141,975.222,572.852,983.264,396C991.937,205.266,840.809,47.602,652,38"/>
<path fill="none" stroke="#000000" d="M646,754c-188.809-9.602-339.937-167.266-331.264-358
	C322.778,219.148,470.256,76.859,649,85.612C812.68,93.627,944.296,230.432,935.512,396
	C927.527,546.507,801.392,667.456,649,658.636C511.666,650.688,401.377,535.214,410.24,396
	c7.904-124.16,112.725-223.799,238.76-214.884C759.987,188.967,848.989,283.145,840.008,396
	C832.224,493.814,748.67,572.197,649,563.132C564.36,555.434,496.568,482.481,505.744,396
	c7.583-71.466,69.975-128.71,143.256-119.38c58.292,7.422,105.063,59.319,95.504,119.38c-7.181,45.119-48.717,81.556-95.504,71.628
	c-31.942-6.778-58.372-38.264-47.752-71.628c5.584-17.543,25.768-33.937,44.112-25.831"/>
<path fill="none" stroke="#000000" d="M674.763,392.512c8.263-18.385-8.172-38.664-25.763-44.264
	c-33.364-10.62-64.85,15.81-71.628,47.752c-9.928,46.787,26.509,88.323,71.628,95.504c60.061,9.559,111.958-37.213,119.38-95.504
	c9.33-73.281-47.914-135.673-119.38-143.256C562.519,243.568,489.566,311.36,481.868,396
	C472.803,495.67,551.186,579.224,649,587.008C761.855,595.989,856.033,506.987,863.884,396
	C872.799,269.965,773.161,165.145,649,157.24C509.786,148.377,394.312,258.666,386.364,396
	C377.544,548.392,498.493,674.527,649,682.512C814.568,691.296,951.373,559.68,959.388,396
	C968.141,217.256,825.852,69.778,649,61.736C458.266,53.063,300.602,204.191,291,393"/>
<path fill="none" stroke="#000000" d="M1007,399c-9.602,188.809-167.266,339.937-358,331.264
	C472.148,722.222,329.859,574.744,338.612,396C346.627,232.32,483.432,100.704,649,109.488
	C799.507,117.473,920.456,243.608,911.636,396C903.688,533.334,788.214,643.623,649,634.76
	C524.839,626.856,425.201,522.035,434.116,396C441.967,285.013,536.145,196.011,649,204.992
	C746.814,212.776,825.197,296.33,816.132,396C808.434,480.64,735.481,548.432,649,539.256
	C577.534,531.673,520.29,469.281,529.62,396c7.422-58.291,59.319-105.063,119.38-95.504c45.119,7.181,81.556,48.717,71.628,95.504
	c-6.778,31.942-38.264,58.372-71.628,47.752c-17.543-5.584-33.937-25.768-25.831-44.112"/>
<path fill="none" stroke="#000000" d="M669.687,411.75c18.841-7.159,21.558-33.118,13.079-49.515
	c-16.082-31.101-57.035-34.677-84.414-16.883c-40.104,26.063-43.709,81.199-16.883,118.18
	c35.71,49.228,105.48,52.853,151.946,16.883c58.415-45.22,62.055-129.816,16.883-185.712
	c-54.663-67.639-154.185-71.289-219.477-16.883c-76.887,64.068-80.544,178.575-16.883,253.243
	c73.45,86.151,202.978,89.811,287.009,16.883c95.425-82.817,99.089-227.391,16.883-320.775
	c-92.172-104.706-251.811-108.373-354.541-16.883c-113.994,101.521-117.661,276.236-16.883,388.306
	c110.863,123.285,300.665,126.954,422.072,16.883c132.58-120.201,136.25-325.098,16.882-455.838
	C756.624,18.638,538.275,14.016,397.977,140.735"/>
<path fill="none" stroke="#000000" d="M900.023,651.265C759.725,777.984,541.376,773.362,412.64,632.361
	c-119.367-130.74-115.698-335.637,16.882-455.838C550.929,66.451,740.731,70.12,851.595,193.405
	c100.778,112.07,97.111,286.786-16.883,388.306c-102.73,91.489-262.368,87.823-354.541-16.883
	c-82.205-93.384-78.542-237.958,16.883-320.775c84.031-72.928,213.559-69.268,287.009,16.883
	c63.661,74.669,60.004,189.175-16.883,253.243c-65.292,54.406-164.815,50.756-219.477-16.883
	c-45.172-55.896-41.532-140.492,16.883-185.712c46.466-35.97,116.236-32.346,151.946,16.883
	c26.826,36.982,23.221,92.118-16.883,118.18c-27.38,17.794-68.332,14.218-84.414-16.883c-8.456-16.354-5.776-42.217,12.927-49.457"
	/>
<path fill="none" stroke="#000000" d="M664.75,375.315c-7.158-18.842-33.118-21.56-49.516-13.081
	c-31.101,16.082-34.677,57.035-16.883,84.414c26.063,40.104,81.198,43.709,118.18,16.883c49.228-35.71,52.853-105.48,16.883-151.946
	c-45.22-58.415-129.816-62.055-185.712-16.883c-67.639,54.663-71.289,154.185-16.883,219.477
	c64.068,76.887,178.575,80.544,253.243,16.883c86.151-73.45,89.811-202.978,16.883-287.009
	c-82.817-95.425-227.391-99.089-320.775-16.883c-104.706,92.172-108.373,251.811-16.883,354.541
	c101.521,113.994,276.236,117.661,388.306,16.883c123.285-110.863,126.954-300.665,16.883-422.072
	C748.276,43.942,543.38,40.273,412.639,159.64c-141.002,128.736-145.624,347.085-18.905,487.383"/>
<path fill="none" stroke="#000000" d="M904.265,144.977c126.719,140.298,122.097,358.647-18.905,487.383
	c-130.74,119.367-335.637,115.698-455.838-16.882C319.451,494.071,323.12,304.269,446.405,193.405
	c112.07-100.778,286.786-97.111,388.306,16.883c91.489,102.73,87.823,262.368-16.883,354.541
	c-93.384,82.205-237.958,78.542-320.775-16.883c-72.928-84.031-69.268-213.559,16.883-287.009
	c74.669-63.661,189.175-60.004,253.243,16.883c54.406,65.292,50.756,164.815-16.883,219.477
	c-55.896,45.172-140.492,41.532-185.712-16.883c-35.97-46.466-32.346-116.236,16.883-151.946
	c36.982-26.826,92.118-23.221,118.18,16.883c17.794,27.38,14.218,68.332-16.883,84.414c-16.354,8.456-42.217,5.776-49.457-12.927"/>
<path fill="none" stroke="#000000" d="M662.084,418.467c20.147,0.597,32.592-22.347,31.033-40.741
	c-2.956-34.888-39.423-53.863-71.528-47.902c-47.025,8.732-71.455,58.291-60.823,102.723
	c14.153,59.147,77.224,89.195,133.919,73.745c71.273-19.423,107.01-96.187,86.667-165.114
	c-24.617-83.409-115.167-124.867-196.31-99.588c-95.552,29.768-142.75,134.159-112.51,227.505
	c34.89,107.701,153.158,160.651,258.701,125.431c119.853-39.995,178.565-172.162,138.353-289.896
	c-45.087-132.009-191.17-196.487-321.092-151.275c-144.167,50.169-214.416,210.182-164.196,352.287
	c55.245,156.326,229.195,232.35,383.483,177.118c168.487-60.315,250.288-248.21,190.039-414.679
	C892.842,88.549,692.882,0.72,514.771,64.103"/>
<path fill="none" stroke="#000000" d="M783.229,727.897c-178.112,63.383-378.071-24.445-443.049-203.979
	c-60.249-166.468,21.552-354.363,190.039-414.679c154.288-55.232,328.238,20.791,383.483,177.118
	c50.22,142.106-20.03,302.118-164.196,352.287c-129.921,45.212-276.005-19.266-321.092-151.275
	c-40.211-117.734,18.5-249.901,138.353-289.896c105.543-35.22,223.81,17.731,258.701,125.431
	c30.24,93.347-16.958,197.738-112.51,227.505c-81.143,25.279-171.693-16.179-196.31-99.588
	c-20.343-68.928,15.393-145.691,86.667-165.114c56.695-15.45,119.766,14.598,133.919,73.745
	c10.632,44.433-13.799,93.992-60.823,102.723c-32.105,5.961-68.572-13.014-71.528-47.902c-1.554-18.345,10.819-41.214,30.87-40.746"
	/>
<path fill="none" stroke="#000000" d="M671.467,382.917c0.598-20.147-22.346-32.592-40.741-31.034
	c-34.888,2.956-53.863,39.423-47.902,71.528c8.732,47.025,58.291,71.455,102.723,60.823c59.147-14.153,89.195-77.224,73.745-133.919
	c-19.423-71.273-96.187-107.01-165.114-86.666c-83.409,24.617-124.867,115.167-99.588,196.31
	c29.768,95.552,134.159,142.75,227.505,112.51c107.701-34.891,160.651-153.158,125.432-258.701
	c-39.995-119.853-172.162-178.565-289.896-138.353c-132.009,45.087-196.487,191.17-151.275,321.092
	c50.169,144.167,210.182,214.416,352.287,164.196c156.326-55.245,232.35-229.195,177.118-383.483
	C875.446,108.733,687.55,26.931,521.082,87.181C341.549,152.158,253.72,352.118,317.103,530.229"/>
<path fill="none" stroke="#000000" d="M980.897,261.771c63.383,178.112-24.445,378.071-203.979,443.049
	c-166.468,60.249-354.363-21.552-414.679-190.039c-55.232-154.288,20.792-328.238,177.118-383.483
	c142.106-50.22,302.118,20.03,352.287,164.196c45.212,129.921-19.266,276.005-151.275,321.092
	c-117.734,40.211-249.901-18.5-289.896-138.353c-35.22-105.543,17.731-223.81,125.432-258.701
	c93.347-30.24,197.738,16.958,227.505,112.51c25.279,81.143-16.179,171.693-99.588,196.31
	c-68.928,20.343-145.691-15.393-165.114-86.666c-15.45-56.695,14.598-119.766,73.745-133.919
	c44.433-10.632,93.992,13.799,102.723,60.823c5.961,32.105-13.014,68.572-47.902,71.528c-18.345,1.554-41.214-10.819-40.746-30.87"
	/>
<path fill="none" stroke="#000000" d="M674.147,402.627c14.656-13.825,7.233-38.841-6.873-50.744
	c-26.76-22.579-65.963-10.211-84.45,16.706c-27.077,39.426-9.309,91.744,29.628,115.645c51.831,31.815,117.676,8.465,146.841-42.549
	c36.663-64.132,7.653-143.682-55.471-178.036c-76.386-41.572-169.729-6.859-209.231,68.393
	c-46.517,88.615-6.075,195.804,81.314,240.427c100.827,51.485,221.896,5.299,271.622-94.236
	c56.468-113.03,4.527-248.001-107.157-302.818c-125.226-61.463-274.115-3.759-334.014,120.079
	c-66.466,137.416-2.994,300.236,133.001,365.209c149.603,71.475,326.362,2.231,396.405-145.922
	c76.489-161.788,1.469-352.492-158.844-427.6C604.021,6.177,400.524,85.465,319.399,256.228"/>
<path fill="none" stroke="#000000" d="M978.601,535.772C897.476,706.535,693.979,785.823,521.083,704.82
	C360.77,629.712,285.75,439.008,362.239,277.22C432.282,129.067,609.04,59.822,758.643,131.297
	C894.638,196.271,958.11,359.09,891.644,496.507C831.745,620.345,682.856,678.049,557.63,616.585
	c-111.684-54.817-163.625-189.788-107.157-302.818c49.726-99.534,170.795-145.72,271.623-94.236
	c87.389,44.623,127.831,151.812,81.314,240.427c-39.502,75.251-132.845,109.965-209.232,68.393
	c-63.124-34.354-92.134-113.904-55.471-178.036c29.164-51.014,95.01-74.365,146.841-42.549
	c38.937,23.901,56.705,76.219,29.628,115.645c-18.486,26.917-57.69,39.286-84.45,16.706c-14.071-11.873-21.492-36.793-6.983-50.64"
	/>
<path fill="none" stroke="#000000" d="M655.626,370.852c-13.825-14.655-38.841-7.232-50.743,6.874
	c-22.579,26.76-10.211,65.963,16.706,84.45c39.426,27.077,91.744,9.309,115.645-29.628c31.815-51.831,8.465-117.676-42.549-146.841
	c-64.132-36.663-143.682-7.653-178.036,55.471c-41.572,76.386-6.859,169.73,68.393,209.231
	c88.615,46.517,195.804,6.075,240.427-81.314c51.485-100.827,5.299-221.896-94.236-271.622
	c-113.03-56.468-248.001-4.527-302.818,107.157c-61.463,125.226-3.759,274.115,120.079,334.014
	c137.416,66.466,300.236,2.994,365.209-133.001c71.475-149.603,2.231-326.362-145.922-396.405
	c-161.788-76.489-352.492-1.469-427.6,158.844c-81.003,172.896-1.715,376.393,169.048,457.518"/>
<path fill="none" stroke="#000000" d="M788.772,66.399c170.763,81.125,250.051,284.622,169.048,457.518
	C882.712,684.23,692.008,759.25,530.22,682.761C382.067,612.718,312.822,435.96,384.297,286.357
	C449.271,150.362,612.09,86.89,749.507,153.356c123.838,59.899,181.542,208.788,120.079,334.014
	c-54.817,111.684-189.788,163.625-302.818,107.157c-99.534-49.726-145.72-170.795-94.236-271.622
	c44.623-87.389,151.812-127.831,240.427-81.314c75.251,39.502,109.965,132.845,68.393,209.231
	c-34.354,63.124-113.904,92.134-178.036,55.471c-51.014-29.164-74.365-95.01-42.549-146.841
	c23.901-38.937,76.219-56.705,115.645-29.628c26.917,18.486,39.286,57.69,16.706,84.45c-11.873,14.071-36.793,21.492-50.64,6.983"/>
<circle fill="none" stroke="#FF6400" cx="649" cy="396" r="2.443"/>
<circle fill="none" stroke="#FF0000" cx="649" cy="396" r="396"/>
<g>
</g>
<g>
</g>
<g>
</g>
<g>
</g>
<g>
</g>
<g>
</g>
</svg>
