<?xml version="1.0" encoding="utf-8"?>
<!-- Generator: Adobe Illustrator 22.1.0, SVG Export Plug-In . SVG Version: 6.00 Build 0)  -->
<svg version="1.1" xmlns="http://www.w3.org/2000/svg" xmlns:xlink="http://www.w3.org/1999/xlink" x="0px" y="0px" width="1440px"
	 height="864px" viewBox="0 0 1440 864" enable-background="new 0 0 1440 864" xml:space="preserve">
<g id="Layer_1" display="none">
	<g display="inline">
		<rect x="41.697" y="425.387" fill="#0064FF" width="782.303" height="16"/>
	</g>
	<g display="inline">
		
			<rect x="41.697" y="425.387" transform="matrix(0.9239 -0.3827 0.3827 0.9239 -132.9013 198.6335)" fill="#0064FF" width="782.303" height="16"/>
	</g>
	<g display="inline">
		
			<rect x="41.697" y="425.387" transform="matrix(0.7071 -0.7071 0.7071 0.7071 -179.6723 433.0061)" fill="#0064FF" width="782.303" height="16"/>
	</g>
	<g display="inline">
		
			<rect x="41.697" y="425.387" transform="matrix(0.3827 -0.9239 0.9239 0.3827 -133.1926 667.4366)" fill="#0064FF" width="782.303" height="16"/>
	</g>
	<g display="inline">
		<rect x="424.848" y="42.235" fill="#0064FF" width="16" height="782.303"/>
	</g>
	<g display="inline">
		
			<rect x="424.848" y="42.235" transform="matrix(0.9239 -0.3827 0.3827 0.9239 -132.9013 198.6335)" fill="#0064FF" width="16" height="782.303"/>
	</g>
	<g display="inline">
		
			<rect x="424.848" y="42.235" transform="matrix(0.7071 -0.7071 0.7071 0.7071 -179.6723 433.0061)" fill="#0064FF" width="16" height="782.303"/>
	</g>
	<g display="inline">
		
			<rect x="424.848" y="42.235" transform="matrix(0.3827 -0.9239 0.9239 0.3827 -133.1926 667.4366)" fill="#0064FF" width="16" height="782.303"/>
	</g>
	<line display="inline" fill="none" stroke="#6400FF" x1="41.697" y1="433.386" x2="824" y2="433.386"/>
	<line display="inline" fill="none" stroke="#6400FF" x1="71.471" y1="583.074" x2="794.225" y2="283.699"/>
	<line display="inline" fill="none" stroke="#6400FF" x1="156.262" y1="709.972" x2="709.434" y2="156.8"/>
	<line display="inline" fill="none" stroke="#6400FF" x1="283.161" y1="794.763" x2="582.536" y2="72.009"/>
	<line display="inline" fill="none" stroke="#6400FF" x1="432.848" y1="824.538" x2="432.848" y2="42.235"/>
	<line display="inline" fill="none" stroke="#6400FF" x1="582.536" y1="794.763" x2="283.161" y2="72.009"/>
	<line display="inline" fill="none" stroke="#6400FF" x1="709.434" y1="709.972" x2="156.262" y2="156.8"/>
	<line display="inline" fill="none" stroke="#6400FF" x1="794.225" y1="583.074" x2="71.471" y2="283.699"/>
</g>
<g id="Layer_2">
	<circle fill="none" stroke="#FFFF00" cx="432.848" cy="433.386" r="360"/>
	<circle fill="none" stroke="#6400FF" cx="432.848" cy="433.386" r="36"/>
	<circle fill="none" stroke="#6400FF" cx="432.848" cy="433.386" r="46.8"/>
	<path fill="none" stroke="#000000" d="M488.623,418.943c1.192,4.615,1.826,9.455,1.826,14.443"/>
	<path fill="none" stroke="#000000" d="M473.209,392.291c3.587,3.524,6.716,7.513,9.286,11.871"/>
	<path fill="none" stroke="#000000" d="M486.542,391.008c7.652,9.682,12.741,21.483,14.244,34.379"/>
	<path fill="none" stroke="#000000" d="M508.726,410.616c2.161,7.212,3.322,14.855,3.322,22.77"/>
	<path fill="none" stroke="#000000" d="M488.624,377.157c5.526,5.482,10.248,11.772,13.974,18.679"/>
	<path fill="none" stroke="#000000" d="M501.905,375.667c11.225,13.415,18.613,31.352,20.479,49.72"/>
	<path fill="none" stroke="#000000" d="M528.769,402.314c3.168,9.787,4.88,20.23,4.88,31.072"/>
	<path fill="none" stroke="#000000" d="M504.125,362.11c7.51,7.384,13.661,16.09,18.573,25.516"/>
	<path fill="none" stroke="#000000" d="M517.217,360.332c15.332,17.691,25.193,40.253,26.949,65.054"/>
	<path fill="none" stroke="#000000" d="M548.782,394.025c4.193,12.353,6.467,25.592,6.467,39.362"/>
	<path fill="none" stroke="#000000" d="M519.398,346.836c9.411,9.411,17.297,20.348,23.255,32.408"/>
	<path fill="none" stroke="#000000" d="M532.523,345.026c19.206,21.65,31.467,49.601,33.289,80.361"/>
	<path fill="none" stroke="#000000" d="M568.78,385.742c5.227,14.913,8.069,30.947,8.069,47.645"/>
	<path fill="none" stroke="#000000" d="M533.754,330.654c11.811,11.602,21.629,25.224,28.897,40.308"/>
	<path fill="none" stroke="#000000" d="M547.813,329.721c23.095,25.595,37.763,58.942,39.632,95.666"/>
	<path fill="none" stroke="#000000" d="M588.768,377.462c6.267,17.47,9.681,36.298,9.681,55.924"/>
	<path fill="none" stroke="#000000" d="M549.471,315.817c13.604,13.496,24.879,29.336,33.168,46.865"/>
	<path fill="none" stroke="#000000" d="M563.112,314.437c26.753,29.282,43.765,68.693,45.907,110.949"/>
	<path fill="none" stroke="#000000" d="M608.749,369.185c7.31,20.024,11.299,41.647,11.299,64.201"/>
	<path fill="none" stroke="#000000" d="M565.134,301.042c15.404,15.389,28.146,33.434,37.469,53.371"/>
	<path fill="none" stroke="#000000" d="M578.399,299.15c30.875,33.461,50.358,77.592,52.291,126.237"/>
	<path fill="none" stroke="#000000" d="M628.727,360.91c8.357,22.577,12.922,46.993,12.922,72.476"/>
	<path fill="none" stroke="#000000" d="M580.492,285.742c17.372,17.372,31.698,37.792,42.106,60.388"/>
	<path fill="none" stroke="#000000" d="M593.684,283.865c34.772,37.387,56.666,86.914,58.622,141.522"/>
	<path fill="none" stroke="#000000" d="M648.701,352.637c9.405,25.129,14.547,52.339,14.547,80.75"/>
	<path fill="none" stroke="#000000" d="M595.766,270.469c19.445,19.364,35.225,42.345,46.836,67.376"/>
	<path fill="none" stroke="#000000" d="M608.966,268.582c38.672,41.31,62.978,96.233,64.952,156.804"/>
	<path fill="none" stroke="#000000" d="M668.673,344.364c10.454,27.68,16.175,57.683,16.175,89.022"/>
	<path fill="none" stroke="#000000" d="M611.039,255.195c21.352,21.352,38.89,46.518,51.505,74.389"/>
	<path fill="none" stroke="#000000" d="M624.248,253.301c42.573,45.23,69.292,105.551,71.281,172.085"/>
	<path fill="none" stroke="#000000" d="M688.644,336.092c11.505,30.23,17.805,63.027,17.805,97.294"/>
	<path fill="none" stroke="#000000" d="M626.313,239.922c23.342,23.342,42.486,50.882,56.202,81.39"/>
	<path fill="none" stroke="#000000" d="M639.528,238.021c46.475,49.149,75.608,114.867,77.611,187.365"/>
	<path fill="none" stroke="#000000" d="M708.613,327.821c12.556,32.78,19.436,68.369,19.436,105.566"/>
	<path fill="none" stroke="#000000" d="M641.521,224.583c25.361,25.346,46.134,55.283,60.963,88.458"/>
	<path fill="none" stroke="#000000" d="M654.807,222.742c50.378,53.067,81.926,124.183,83.939,202.644"/>
	<path fill="none" stroke="#000000" d="M728.581,319.55c13.608,35.329,21.068,73.712,21.068,113.837"/>
	<path fill="none" stroke="#000000" d="M656.86,209.375c27.321,27.321,49.676,59.61,65.592,95.395"/>
	<path fill="none" stroke="#000000" d="M670.085,207.464c54.282,56.983,88.244,133.497,90.268,217.923"/>
	<path fill="none" stroke="#000000" d="M748.434,310.986c14.733,37.959,22.815,79.236,22.815,122.401"/>
	<path fill="none" stroke="#000000" d="M672.133,194.101c29.311,29.311,53.27,63.974,70.286,102.398"/>
	<path fill="none" stroke="#000000" d="M685.362,192.185c58.187,60.898,94.565,142.811,96.597,233.202"/>
	<path fill="none" stroke="#000000" d="M462.074,383.735c4.106,2.421,7.977,5.395,11.504,8.922"/>
	<path fill="none" stroke="#000000" d="M432.329,375.789c5.028-0.045,10.061,0.564,14.961,1.828"/>
	<path fill="none" stroke="#000000" d="M440.849,365.453c12.257,1.435,24.2,6.181,34.381,14.238"/>
	<path fill="none" stroke="#000000" d="M470.401,363.632c6.627,3.571,12.853,8.155,18.45,13.752"/>
	<path fill="none" stroke="#000000" d="M432.527,354.187c7.783-0.031,15.571,1.078,23.089,3.327"/>
	<path fill="none" stroke="#000000" d="M440.865,343.742c17.423,1.549,35.331,9.008,49.638,20.677"/>
	<path fill="none" stroke="#000000" d="M478.703,343.59c9.161,4.68,17.755,10.854,25.422,18.521"/>
	<path fill="none" stroke="#000000" d="M432.848,332.586c10.532-0.089,21.037,1.718,31.175,4.909"/>
	<path fill="none" stroke="#000000" d="M440.849,322.072c23.351,1.668,46.277,10.65,65.056,26.944"/>
	<path fill="none" stroke="#000000" d="M486.993,323.576c11.699,5.77,22.669,13.524,32.405,23.26"/>
	<path fill="none" stroke="#000000" d="M432.848,310.986c13.31,0,26.62,2.157,39.36,6.472"/>
	<path fill="none" stroke="#000000" d="M440.849,300.425c28.889,1.728,57.323,12.823,80.362,33.285"/>
	<path fill="none" stroke="#000000" d="M495.276,303.579c14.241,6.849,27.588,16.177,39.396,27.984"/>
	<path fill="none" stroke="#000000" d="M431.557,289.392c16.555-0.148,33.131,2.542,48.935,8.069"/>
	<path fill="none" stroke="#000000" d="M440.838,278.791c34.429,1.768,68.38,14.976,95.67,39.622"/>
	<path fill="none" stroke="#000000" d="M503.556,283.59c16.784,7.922,32.512,18.821,46.39,32.699"/>
	<path fill="none" stroke="#000000" d="M432.18,267.788c19.163-0.077,38.336,3.152,56.591,9.685"/>
	<path fill="none" stroke="#000000" d="M440.849,257.167c39.623,1.788,79.52,17.626,110.914,45.992"/>
	<path fill="none" stroke="#000000" d="M511.832,263.609c19.328,8.99,37.438,21.459,53.387,37.407"/>
	<path fill="none" stroke="#000000" d="M432.807,246.264c21.774-0.011,43.544,3.74,64.234,11.245"/>
	<path fill="none" stroke="#000000" d="M440.849,235.547c45.492,1.828,90.474,19.258,126.238,52.288"/>
	<path fill="none" stroke="#000000" d="M520.107,243.631c21.873,10.055,42.366,24.092,60.385,42.111"/>
	<path fill="none" stroke="#000000" d="M432.848,224.586c24.568,0,49.137,4.309,72.474,12.928"/>
	<path fill="none" stroke="#000000" d="M440.849,213.931c51.024,1.849,101.527,21.388,141.523,58.619"/>
	<path fill="none" stroke="#000000" d="M528.381,223.657c24.419,11.119,47.295,26.723,67.385,46.812"/>
	<path fill="none" stroke="#000000" d="M432.848,202.986c27.442-0.057,54.851,5.035,80.76,14.524"/>
	<path fill="none" stroke="#000000" d="M440.849,192.318c56.555,1.865,112.58,23.515,156.805,64.949"/>
	<path fill="none" stroke="#000000" d="M536.654,203.685c26.965,12.18,52.226,29.351,74.386,51.511"/>
	<path fill="none" stroke="#000000" d="M432.848,181.386c30.197,0,60.393,5.394,89.021,16.181"/>
	<path fill="none" stroke="#000000" d="M440.849,170.707c62.086,1.879,123.633,25.639,172.086,71.279"/>
	<path fill="none" stroke="#000000" d="M544.925,183.714c29.511,13.241,57.156,31.977,81.388,56.208"/>
	<path fill="none" stroke="#000000" d="M432.848,159.786c33.011,0,66.021,5.937,97.293,17.811"/>
	<path fill="none" stroke="#000000" d="M440.849,149.098c67.616,1.891,134.687,27.76,187.366,77.608"/>
	<path fill="none" stroke="#000000" d="M553.197,163.745c32.057,14.3,62.088,34.601,88.389,60.903"/>
	<path fill="none" stroke="#000000" d="M432.756,138.186c35.855-0.011,71.712,6.469,105.657,19.442"/>
	<path fill="none" stroke="#000000" d="M440.849,127.49c73.146,1.901,145.741,29.88,202.645,83.937"/>
	<path fill="none" stroke="#000000" d="M561.468,143.777c34.604,15.359,67.019,37.225,95.392,65.598"/>
	<path fill="none" stroke="#000000" d="M432.848,116.586c38.638,0,77.277,7.025,113.835,21.074"/>
	<path fill="none" stroke="#000000" d="M440.849,105.883c78.676,1.91,156.795,31.999,217.924,90.266"/>
	<path fill="none" stroke="#000000" d="M569.451,123.683c37.259,16.423,72.161,39.896,102.683,70.418"/>
	<path fill="none" stroke="#000000" d="M432.848,94.986c41.452,0,82.904,7.569,122.106,22.707"/>
	<path fill="none" stroke="#000000" d="M440.847,84.277c84.206,1.917,167.851,34.115,233.203,96.594"/>
	<path fill="none" stroke="#000000" d="M418.406,377.612c4.615-1.192,9.455-1.826,14.443-1.826"/>
	<path fill="none" stroke="#000000" d="M391.753,393.026c3.524-3.587,7.514-6.716,11.871-9.286"/>
	<path fill="none" stroke="#000000" d="M390.47,379.693c9.682-7.652,21.483-12.741,34.379-14.244"/>
	<path fill="none" stroke="#000000" d="M410.078,357.508c7.212-2.161,14.855-3.322,22.77-3.322"/>
	<path fill="none" stroke="#000000" d="M376.619,377.611c5.482-5.526,11.772-10.248,18.679-13.974"/>
	<path fill="none" stroke="#000000" d="M375.129,364.33c13.415-11.225,31.352-18.613,49.72-20.479"/>
	<path fill="none" stroke="#000000" d="M401.777,337.466c9.787-3.168,20.23-4.88,31.072-4.88"/>
	<path fill="none" stroke="#000000" d="M361.572,362.11c7.384-7.51,16.09-13.661,25.516-18.573"/>
	<path fill="none" stroke="#000000" d="M359.794,349.018c17.691-15.332,40.253-25.193,65.054-26.949"/>
	<path fill="none" stroke="#000000" d="M393.487,317.453c12.353-4.193,25.592-6.467,39.362-6.467"/>
	<path fill="none" stroke="#000000" d="M346.299,346.837c9.411-9.411,20.348-17.297,32.408-23.255"/>
	<path fill="none" stroke="#000000" d="M344.488,333.712c21.65-19.206,49.601-31.467,80.361-33.289"/>
	<path fill="none" stroke="#000000" d="M385.204,297.455c14.913-5.227,30.947-8.069,47.645-8.069"/>
	<path fill="none" stroke="#000000" d="M330.116,332.481c11.602-11.811,25.224-21.629,40.308-28.897"/>
	<path fill="none" stroke="#000000" d="M329.183,318.422c25.595-23.095,58.941-37.763,95.666-39.632"/>
	<path fill="none" stroke="#000000" d="M376.924,277.467c17.47-6.267,36.298-9.681,55.924-9.681"/>
	<path fill="none" stroke="#000000" d="M315.28,316.763c13.496-13.604,29.336-24.879,46.865-33.168"/>
	<path fill="none" stroke="#000000" d="M313.899,303.123c29.282-26.753,68.693-43.765,110.949-45.907"/>
	<path fill="none" stroke="#000000" d="M368.647,257.485c20.024-7.31,41.647-11.299,64.201-11.299"/>
	<path fill="none" stroke="#000000" d="M300.504,301.101c15.389-15.404,33.434-28.146,53.371-37.469"/>
	<path fill="none" stroke="#000000" d="M298.612,287.836c33.461-30.875,77.592-50.358,126.237-52.291"/>
	<path fill="none" stroke="#000000" d="M360.373,237.508c22.577-8.357,46.993-12.922,72.476-12.922"/>
	<path fill="none" stroke="#000000" d="M285.205,285.743c17.372-17.372,37.792-31.698,60.388-42.106"/>
	<path fill="none" stroke="#000000" d="M283.327,272.551c37.387-34.772,86.914-56.666,141.522-58.622"/>
	<path fill="none" stroke="#000000" d="M352.099,217.534c25.129-9.405,52.339-14.547,80.75-14.547"/>
	<path fill="none" stroke="#000000" d="M269.931,270.469c19.364-19.445,42.345-35.225,67.376-46.836"/>
	<path fill="none" stroke="#000000" d="M268.045,257.268c41.31-38.672,96.233-62.978,156.804-64.952"/>
	<path fill="none" stroke="#000000" d="M343.826,197.561c27.68-10.454,57.683-16.175,89.022-16.175"/>
	<path fill="none" stroke="#000000" d="M254.658,255.196c21.352-21.352,46.518-38.89,74.389-51.505"/>
	<path fill="none" stroke="#000000" d="M252.763,241.987c45.23-42.573,105.551-69.292,172.085-71.281"/>
	<path fill="none" stroke="#000000" d="M335.554,177.591c30.23-11.505,63.027-17.805,97.294-17.805"/>
	<path fill="none" stroke="#000000" d="M239.384,239.922c23.342-23.342,50.882-42.486,81.39-56.202"/>
	<path fill="none" stroke="#000000" d="M237.483,226.707c49.149-46.475,114.867-75.608,187.365-77.611"/>
	<path fill="none" stroke="#000000" d="M327.283,157.622c32.78-12.556,68.369-19.436,105.566-19.436"/>
	<path fill="none" stroke="#000000" d="M224.045,224.714c25.346-25.361,55.283-46.134,88.458-60.963"/>
	<path fill="none" stroke="#000000" d="M222.204,211.428c53.067-50.378,124.183-81.926,202.644-83.939"/>
	<path fill="none" stroke="#000000" d="M319.012,137.654c35.329-13.608,73.712-21.068,113.837-21.068"/>
	<path fill="none" stroke="#000000" d="M208.837,209.375c27.321-27.321,59.61-49.676,95.395-65.592"/>
	<path fill="none" stroke="#000000" d="M206.926,196.15c56.983-54.282,133.497-88.244,217.923-90.268"/>
	<path fill="none" stroke="#000000" d="M310.448,117.801c37.959-14.733,79.236-22.815,122.401-22.815"/>
	<path fill="none" stroke="#000000" d="M193.563,194.102c29.311-29.311,63.974-53.27,102.398-70.286"/>
	<path fill="none" stroke="#000000" d="M191.647,180.873c60.898-58.187,142.811-94.565,233.202-96.597"/>
	<path fill="none" stroke="#000000" d="M383.197,404.161c2.421-4.106,5.395-7.977,8.922-11.504"/>
	<path fill="none" stroke="#000000" d="M375.251,433.906c-0.045-5.028,0.564-10.061,1.828-14.961"/>
	<path fill="none" stroke="#000000" d="M364.915,425.386c1.435-12.257,6.181-24.2,14.238-34.381"/>
	<path fill="none" stroke="#000000" d="M363.094,395.834c3.571-6.627,8.155-12.853,13.752-18.45"/>
	<path fill="none" stroke="#000000" d="M353.649,433.707c-0.031-7.783,1.078-15.571,3.327-23.089"/>
	<path fill="none" stroke="#000000" d="M343.204,425.37c1.549-17.423,9.008-35.331,20.677-49.638"/>
	<path fill="none" stroke="#000000" d="M343.052,387.532c4.68-9.161,10.854-17.755,18.521-25.422"/>
	<path fill="none" stroke="#000000" d="M332.048,433.386c-0.089-10.532,1.718-21.037,4.909-31.175"/>
	<path fill="none" stroke="#000000" d="M321.534,425.386c1.668-23.351,10.65-46.277,26.944-65.056"/>
	<path fill="none" stroke="#000000" d="M323.038,379.242c5.77-11.699,13.524-22.669,23.26-32.405"/>
	<path fill="none" stroke="#000000" d="M310.448,433.386c0-13.31,2.157-26.62,6.472-39.36"/>
	<path fill="none" stroke="#000000" d="M299.887,425.386c1.728-28.889,12.823-57.323,33.285-80.362"/>
	<path fill="none" stroke="#000000" d="M303.041,370.958c6.849-14.241,16.177-27.588,27.984-39.396"/>
	<path fill="none" stroke="#000000" d="M288.854,434.678c-0.148-16.555,2.542-33.131,8.069-48.935"/>
	<path fill="none" stroke="#000000" d="M278.254,425.397c1.768-34.429,14.976-68.38,39.622-95.67"/>
	<path fill="none" stroke="#000000" d="M283.053,362.679c7.922-16.784,18.821-32.512,32.699-46.39"/>
	<path fill="none" stroke="#000000" d="M267.25,434.055c-0.077-19.163,3.152-38.336,9.685-56.591"/>
	<path fill="none" stroke="#000000" d="M256.629,425.386c1.788-39.623,17.626-79.52,45.992-110.914"/>
	<path fill="none" stroke="#000000" d="M263.071,354.403c8.99-19.328,21.459-37.438,37.407-53.387"/>
	<path fill="none" stroke="#000000" d="M245.727,433.428c-0.011-21.774,3.74-43.544,11.245-64.234"/>
	<path fill="none" stroke="#000000" d="M235.009,425.386c1.828-45.492,19.257-90.474,52.288-126.238"/>
	<path fill="none" stroke="#000000" d="M243.093,346.128c10.055-21.873,24.092-42.366,42.111-60.385"/>
	<path fill="none" stroke="#000000" d="M224.048,433.386c0-24.568,4.309-49.137,12.928-72.474"/>
	<path fill="none" stroke="#000000" d="M213.393,425.386c1.849-51.024,21.388-101.527,58.619-141.523"/>
	<path fill="none" stroke="#000000" d="M223.119,337.854c11.119-24.419,26.723-47.295,46.812-67.385"/>
	<path fill="none" stroke="#000000" d="M202.448,433.386c-0.057-27.442,5.035-54.851,14.524-80.76"/>
	<path fill="none" stroke="#000000" d="M191.78,425.386c1.865-56.555,23.515-112.58,64.949-156.805"/>
	<path fill="none" stroke="#000000" d="M203.147,329.581c12.18-26.965,29.351-52.226,51.511-74.386"/>
	<path fill="none" stroke="#000000" d="M180.848,433.386c0-30.197,5.394-60.393,16.181-89.021"/>
	<path fill="none" stroke="#000000" d="M170.17,425.386c1.879-62.086,25.639-123.633,71.279-172.086"/>
	<path fill="none" stroke="#000000" d="M183.176,321.309c13.241-29.511,31.977-57.156,56.208-81.387"/>
	<path fill="none" stroke="#000000" d="M159.248,433.386c0-33.011,5.937-66.021,17.811-97.293"/>
	<path fill="none" stroke="#000000" d="M148.56,425.386c1.891-67.616,27.76-134.687,77.608-187.366"/>
	<path fill="none" stroke="#000000" d="M163.207,313.038c14.3-32.057,34.601-62.088,60.903-88.389"/>
	<path fill="none" stroke="#000000" d="M137.648,433.479c-0.011-35.855,6.469-71.712,19.442-105.657"/>
	<path fill="none" stroke="#000000" d="M126.952,425.386c1.901-73.146,29.88-145.741,83.937-202.645"/>
	<path fill="none" stroke="#000000" d="M143.24,304.767c15.359-34.604,37.225-67.019,65.598-95.392"/>
	<path fill="none" stroke="#000000" d="M116.048,433.386c0-38.638,7.025-77.277,21.074-113.835"/>
	<path fill="none" stroke="#000000" d="M105.346,425.386c1.91-78.676,31.999-156.795,90.266-217.924"/>
	<path fill="none" stroke="#000000" d="M123.145,296.784c16.423-37.259,39.896-72.161,70.418-102.683"/>
	<path fill="none" stroke="#000000" d="M94.448,433.386c0-41.452,7.569-82.904,22.707-122.106"/>
	<path fill="none" stroke="#000000" d="M83.74,425.388c1.917-84.206,34.115-167.851,96.594-233.203"/>
	<path fill="none" stroke="#000000" d="M377.074,447.829c-1.192-4.615-1.826-9.455-1.826-14.443"/>
	<path fill="none" stroke="#000000" d="M392.488,474.481c-3.587-3.524-6.716-7.514-9.286-11.871"/>
	<path fill="none" stroke="#000000" d="M379.155,475.765c-7.652-9.682-12.741-21.483-14.244-34.379"/>
	<path fill="none" stroke="#000000" d="M356.971,456.157c-2.161-7.212-3.322-14.855-3.322-22.77"/>
	<path fill="none" stroke="#000000" d="M377.073,489.616c-5.526-5.482-10.248-11.772-13.974-18.679"/>
	<path fill="none" stroke="#000000" d="M363.792,491.106c-11.225-13.415-18.613-31.352-20.479-49.72"/>
	<path fill="none" stroke="#000000" d="M336.928,464.458c-3.168-9.787-4.88-20.23-4.88-31.072"/>
	<path fill="none" stroke="#000000" d="M361.572,504.663c-7.51-7.384-13.661-16.09-18.573-25.516"/>
	<path fill="none" stroke="#000000" d="M348.48,506.441c-15.332-17.691-25.193-40.253-26.949-65.054"/>
	<path fill="none" stroke="#000000" d="M316.915,472.748c-4.193-12.353-6.467-25.592-6.467-39.362"/>
	<path fill="none" stroke="#000000" d="M346.299,519.936c-9.411-9.411-17.297-20.348-23.255-32.408"/>
	<path fill="none" stroke="#000000" d="M333.174,521.747c-19.206-21.65-31.467-49.601-33.289-80.361"/>
	<path fill="none" stroke="#000000" d="M296.917,481.031c-5.227-14.913-8.069-30.947-8.069-47.645"/>
	<path fill="none" stroke="#000000" d="M331.943,536.119c-11.811-11.602-21.629-25.224-28.897-40.308"/>
	<path fill="none" stroke="#000000" d="M317.884,537.052c-23.095-25.595-37.763-58.941-39.632-95.666"/>
	<path fill="none" stroke="#000000" d="M276.929,489.311c-6.267-17.47-9.681-36.298-9.681-55.924"/>
	<path fill="none" stroke="#000000" d="M316.226,550.955c-13.604-13.496-24.879-29.336-33.168-46.865"/>
	<path fill="none" stroke="#000000" d="M302.585,552.335c-26.753-29.282-43.765-68.693-45.907-110.949"/>
	<path fill="none" stroke="#000000" d="M256.948,497.587c-7.31-20.024-11.299-41.647-11.299-64.201"/>
	<path fill="none" stroke="#000000" d="M300.563,565.731c-15.404-15.389-28.146-33.434-37.469-53.371"/>
	<path fill="none" stroke="#000000" d="M287.298,567.623c-30.875-33.461-50.358-77.592-52.291-126.237"/>
	<path fill="none" stroke="#000000" d="M236.97,505.862c-8.357-22.577-12.922-46.993-12.922-72.476"/>
	<path fill="none" stroke="#000000" d="M285.205,581.03c-17.372-17.372-31.698-37.792-42.106-60.388"/>
	<path fill="none" stroke="#000000" d="M272.013,582.908c-34.772-37.387-56.666-86.914-58.622-141.522"/>
	<path fill="none" stroke="#000000" d="M216.996,514.136c-9.405-25.129-14.547-52.339-14.547-80.75"/>
	<path fill="none" stroke="#000000" d="M269.931,596.304c-19.445-19.364-35.225-42.345-46.836-67.376"/>
	<path fill="none" stroke="#000000" d="M256.731,598.19c-38.672-41.31-62.978-96.233-64.952-156.804"/>
	<path fill="none" stroke="#000000" d="M197.024,522.409c-10.454-27.68-16.175-57.683-16.175-89.022"/>
	<path fill="none" stroke="#000000" d="M254.658,611.577c-21.352-21.352-38.89-46.518-51.505-74.389"/>
	<path fill="none" stroke="#000000" d="M241.449,613.471c-42.573-45.23-69.292-105.551-71.281-172.085"/>
	<path fill="none" stroke="#000000" d="M177.053,530.681c-11.505-30.23-17.805-63.027-17.805-97.294"/>
	<path fill="none" stroke="#000000" d="M239.384,626.851c-23.342-23.342-42.486-50.882-56.202-81.39"/>
	<path fill="none" stroke="#000000" d="M226.169,628.751c-46.475-49.149-75.608-114.867-77.611-187.365"/>
	<path fill="none" stroke="#000000" d="M157.084,538.952c-12.556-32.78-19.436-68.369-19.436-105.566"/>
	<path fill="none" stroke="#000000" d="M224.176,642.19c-25.361-25.346-46.134-55.283-60.963-88.458"/>
	<path fill="none" stroke="#000000" d="M210.89,644.031c-50.378-53.067-81.926-124.183-83.939-202.645"/>
	<path fill="none" stroke="#000000" d="M137.116,547.223c-13.608-35.329-21.068-73.712-21.068-113.837"/>
	<path fill="none" stroke="#000000" d="M208.837,657.398c-27.321-27.321-49.676-59.61-65.592-95.395"/>
	<path fill="none" stroke="#000000" d="M195.612,659.309c-54.282-56.983-88.244-133.497-90.268-217.923"/>
	<path fill="none" stroke="#000000" d="M117.263,555.787c-14.733-37.959-22.815-79.236-22.815-122.401"/>
	<path fill="none" stroke="#000000" d="M193.564,672.671c-29.311-29.311-53.27-63.974-70.286-102.398"/>
	<path fill="none" stroke="#000000" d="M180.335,674.588c-58.187-60.898-94.565-142.811-96.597-233.202"/>
	<path fill="none" stroke="#000000" d="M403.623,483.037c-4.106-2.421-7.977-5.395-11.504-8.922"/>
	<path fill="none" stroke="#000000" d="M433.368,490.984c-5.028,0.045-10.061-0.564-14.961-1.828"/>
	<path fill="none" stroke="#000000" d="M424.848,501.32c-12.257-1.435-24.2-6.181-34.381-14.238"/>
	<path fill="none" stroke="#000000" d="M395.296,503.141c-6.627-3.571-12.853-8.155-18.45-13.752"/>
	<path fill="none" stroke="#000000" d="M433.169,512.586c-7.783,0.031-15.571-1.078-23.089-3.327"/>
	<path fill="none" stroke="#000000" d="M424.832,523.031c-17.423-1.549-35.331-9.008-49.638-20.677"/>
	<path fill="none" stroke="#000000" d="M386.994,523.183c-9.161-4.68-17.755-10.854-25.422-18.52"/>
	<path fill="none" stroke="#000000" d="M432.848,534.186c-10.532,0.089-21.037-1.718-31.175-4.909"/>
	<path fill="none" stroke="#000000" d="M424.848,544.701c-23.351-1.668-46.277-10.65-65.056-26.944"/>
	<path fill="none" stroke="#000000" d="M378.704,543.197c-11.699-5.77-22.669-13.524-32.405-23.26"/>
	<path fill="none" stroke="#000000" d="M432.849,555.786c-13.31,0-26.62-2.157-39.36-6.472"/>
	<path fill="none" stroke="#000000" d="M424.848,566.347c-28.889-1.728-57.323-12.823-80.362-33.285"/>
	<path fill="none" stroke="#000000" d="M370.421,563.194c-14.241-6.849-27.588-16.177-39.396-27.984"/>
	<path fill="none" stroke="#000000" d="M434.14,577.381c-16.555,0.148-33.131-2.542-48.935-8.069"/>
	<path fill="none" stroke="#000000" d="M424.859,587.981c-34.429-1.768-68.38-14.976-95.67-39.622"/>
	<path fill="none" stroke="#000000" d="M362.141,583.182c-16.784-7.922-32.512-18.821-46.39-32.699"/>
	<path fill="none" stroke="#000000" d="M433.517,598.985c-19.162,0.077-38.336-3.152-56.591-9.685"/>
	<path fill="none" stroke="#000000" d="M424.848,609.606c-39.623-1.788-79.52-17.626-110.914-45.992"/>
	<path fill="none" stroke="#000000" d="M353.865,603.164c-19.328-8.99-37.438-21.459-53.387-37.407"/>
	<path fill="none" stroke="#000000" d="M432.89,620.508c-21.774,0.011-43.544-3.74-64.234-11.245"/>
	<path fill="none" stroke="#000000" d="M424.848,631.226c-45.492-1.828-90.474-19.258-126.238-52.288"/>
	<path fill="none" stroke="#000000" d="M345.59,623.142c-21.873-10.055-42.366-24.092-60.385-42.111"/>
	<path fill="none" stroke="#000000" d="M432.849,642.186c-24.568,0-49.137-4.309-72.474-12.928"/>
	<path fill="none" stroke="#000000" d="M424.848,652.841c-51.024-1.849-101.527-21.388-141.523-58.619"/>
	<path fill="none" stroke="#000000" d="M337.316,643.116c-24.419-11.119-47.295-26.723-67.385-46.812"/>
	<path fill="none" stroke="#000000" d="M432.848,663.786c-27.442,0.057-54.851-5.035-80.76-14.524"/>
	<path fill="none" stroke="#000000" d="M424.848,674.454c-56.555-1.865-112.58-23.515-156.805-64.949"/>
	<path fill="none" stroke="#000000" d="M329.043,663.088c-26.965-12.18-52.226-29.351-74.386-51.511"/>
	<path fill="none" stroke="#000000" d="M432.849,685.386c-30.197,0-60.393-5.394-89.021-16.181"/>
	<path fill="none" stroke="#000000" d="M424.848,696.065c-62.086-1.879-123.633-25.639-172.086-71.279"/>
	<path fill="none" stroke="#000000" d="M320.772,683.059c-29.511-13.241-57.156-31.977-81.387-56.208"/>
	<path fill="none" stroke="#000000" d="M432.849,706.986c-33.01,0-66.021-5.937-97.293-17.811"/>
	<path fill="none" stroke="#000000" d="M424.848,717.674c-67.616-1.891-134.687-27.76-187.366-77.608"/>
	<path fill="none" stroke="#000000" d="M312.5,703.027c-32.057-14.3-62.088-34.601-88.389-60.903"/>
	<path fill="none" stroke="#000000" d="M432.941,728.586c-35.855,0.011-71.712-6.469-105.657-19.442"/>
	<path fill="none" stroke="#000000" d="M424.848,739.282c-73.146-1.901-145.741-29.88-202.645-83.937"/>
	<path fill="none" stroke="#000000" d="M304.229,722.995c-34.604-15.359-67.019-37.225-95.392-65.598"/>
	<path fill="none" stroke="#000000" d="M432.849,750.186c-38.638,0-77.277-7.025-113.835-21.074"/>
	<path fill="none" stroke="#000000" d="M424.848,760.889c-78.676-1.91-156.795-31.999-217.924-90.266"/>
	<path fill="none" stroke="#000000" d="M296.246,743.089c-37.259-16.423-72.161-39.896-102.683-70.418"/>
	<path fill="none" stroke="#000000" d="M432.849,771.786c-41.452,0-82.904-7.569-122.106-22.707"/>
	<path fill="none" stroke="#000000" d="M424.85,782.495c-84.206-1.917-167.851-34.115-233.203-96.594"/>
	<path fill="none" stroke="#000000" d="M447.291,489.161c-4.615,1.192-9.455,1.826-14.443,1.826"/>
	<path fill="none" stroke="#000000" d="M473.944,473.747c-3.524,3.587-7.513,6.716-11.871,9.286"/>
	<path fill="none" stroke="#000000" d="M475.227,487.08c-9.682,7.652-21.483,12.741-34.379,14.244"/>
	<path fill="none" stroke="#000000" d="M455.619,509.264c-7.212,2.161-14.855,3.322-22.77,3.322"/>
	<path fill="none" stroke="#000000" d="M489.078,489.162c-5.482,5.526-11.772,10.248-18.679,13.974"/>
	<path fill="none" stroke="#000000" d="M490.568,502.443c-13.415,11.225-31.352,18.613-49.72,20.478"/>
	<path fill="none" stroke="#000000" d="M463.92,529.306c-9.787,3.168-20.23,4.88-31.072,4.88"/>
	<path fill="none" stroke="#000000" d="M504.125,504.663c-7.384,7.51-16.09,13.661-25.516,18.573"/>
	<path fill="none" stroke="#000000" d="M505.903,517.755c-17.691,15.332-40.253,25.193-65.054,26.949"/>
	<path fill="none" stroke="#000000" d="M472.21,549.32c-12.353,4.193-25.592,6.467-39.362,6.467"/>
	<path fill="none" stroke="#000000" d="M519.398,519.936c-9.411,9.411-20.348,17.297-32.408,23.255"/>
	<path fill="none" stroke="#000000" d="M521.209,533.061c-21.65,19.206-49.601,31.467-80.361,33.289"/>
	<path fill="none" stroke="#000000" d="M480.493,569.318c-14.913,5.227-30.947,8.069-47.645,8.069"/>
	<path fill="none" stroke="#000000" d="M535.581,534.292c-11.602,11.81-25.224,21.629-40.308,28.897"/>
	<path fill="none" stroke="#000000" d="M536.514,548.351c-25.595,23.095-58.941,37.763-95.666,39.632"/>
	<path fill="none" stroke="#000000" d="M488.773,589.306c-17.47,6.267-36.298,9.681-55.924,9.681"/>
	<path fill="none" stroke="#000000" d="M550.417,550.009c-13.496,13.604-29.336,24.879-46.865,33.167"/>
	<path fill="none" stroke="#000000" d="M551.798,563.649c-29.282,26.753-68.693,43.765-110.949,45.907"/>
	<path fill="none" stroke="#000000" d="M497.05,609.287c-20.024,7.31-41.647,11.299-64.201,11.299"/>
	<path fill="none" stroke="#000000" d="M565.193,565.672c-15.389,15.404-33.434,28.146-53.371,37.469"/>
	<path fill="none" stroke="#000000" d="M567.085,578.937c-33.461,30.875-77.592,50.358-126.237,52.291"/>
	<path fill="none" stroke="#000000" d="M505.324,629.265c-22.577,8.357-46.993,12.922-72.476,12.922"/>
	<path fill="none" stroke="#000000" d="M580.492,581.03c-17.372,17.372-37.792,31.698-60.388,42.106"/>
	<path fill="none" stroke="#000000" d="M582.37,594.222c-37.387,34.772-86.914,56.666-141.522,58.622"/>
	<path fill="none" stroke="#000000" d="M513.598,649.239c-25.129,9.405-52.339,14.547-80.75,14.547"/>
	<path fill="none" stroke="#000000" d="M595.766,596.304c-19.364,19.445-42.345,35.225-67.376,46.836"/>
	<path fill="none" stroke="#000000" d="M597.652,609.504c-41.31,38.672-96.233,62.978-156.804,64.952"/>
	<path fill="none" stroke="#000000" d="M521.871,669.211c-27.68,10.454-57.683,16.175-89.022,16.175"/>
	<path fill="none" stroke="#000000" d="M611.039,611.577c-21.352,21.352-46.518,38.891-74.389,51.505"/>
	<path fill="none" stroke="#000000" d="M612.934,624.785c-45.23,42.573-105.551,69.292-172.085,71.281"/>
	<path fill="none" stroke="#000000" d="M530.143,689.182c-30.23,11.505-63.027,17.805-97.295,17.805"/>
	<path fill="none" stroke="#000000" d="M626.313,626.851c-23.342,23.342-50.882,42.486-81.39,56.202"/>
	<path fill="none" stroke="#000000" d="M628.214,640.065c-49.149,46.475-114.867,75.608-187.365,77.611"/>
	<path fill="none" stroke="#000000" d="M538.414,709.151c-32.78,12.556-68.369,19.436-105.566,19.436"/>
	<path fill="none" stroke="#000000" d="M641.652,642.059c-25.346,25.361-55.283,46.134-88.458,60.963"/>
	<path fill="none" stroke="#000000" d="M643.493,655.345c-53.067,50.378-124.183,81.926-202.644,83.939"/>
	<path fill="none" stroke="#000000" d="M546.685,729.119c-35.329,13.608-73.712,21.068-113.837,21.068"/>
	<path fill="none" stroke="#000000" d="M656.86,657.398c-27.321,27.321-59.61,49.676-95.395,65.592"/>
	<path fill="none" stroke="#000000" d="M658.771,670.623c-56.983,54.282-133.497,88.244-217.923,90.268"/>
	<path fill="none" stroke="#000000" d="M555.249,748.972c-37.959,14.733-79.236,22.815-122.401,22.815"/>
	<path fill="none" stroke="#000000" d="M672.133,672.671c-29.311,29.311-63.974,53.27-102.398,70.286"/>
	<path fill="none" stroke="#000000" d="M674.05,685.9c-60.898,58.187-142.811,94.565-233.202,96.597"/>
	<path fill="none" stroke="#000000" d="M482.5,462.612c-2.421,4.106-5.395,7.977-8.922,11.504"/>
	<path fill="none" stroke="#000000" d="M490.446,432.867c0.045,5.028-0.564,10.061-1.828,14.961"/>
	<path fill="none" stroke="#000000" d="M500.782,441.387c-1.435,12.257-6.181,24.2-14.238,34.381"/>
	<path fill="none" stroke="#000000" d="M502.603,470.939c-3.571,6.627-8.155,12.853-13.752,18.45"/>
	<path fill="none" stroke="#000000" d="M512.048,433.065c0.031,7.783-1.078,15.571-3.327,23.089"/>
	<path fill="none" stroke="#000000" d="M522.493,441.403c-1.549,17.423-9.008,35.331-20.677,49.638"/>
	<path fill="none" stroke="#000000" d="M522.645,479.241c-4.68,9.161-10.854,17.755-18.521,25.422"/>
	<path fill="none" stroke="#000000" d="M533.648,433.386c0.089,10.532-1.718,21.037-4.909,31.175"/>
	<path fill="none" stroke="#000000" d="M544.163,441.387c-1.668,23.351-10.65,46.277-26.944,65.056"/>
	<path fill="none" stroke="#000000" d="M542.659,487.531c-5.77,11.699-13.524,22.669-23.26,32.405"/>
	<path fill="none" stroke="#000000" d="M555.248,433.386c0,13.31-2.157,26.62-6.472,39.36"/>
	<path fill="none" stroke="#000000" d="M565.81,441.387c-1.728,28.889-12.823,57.323-33.285,80.362"/>
	<path fill="none" stroke="#000000" d="M562.656,495.814c-6.849,14.241-16.177,27.588-27.984,39.396"/>
	<path fill="none" stroke="#000000" d="M576.843,432.095c0.148,16.555-2.542,33.131-8.069,48.935"/>
	<path fill="none" stroke="#000000" d="M587.443,441.376c-1.768,34.429-14.976,68.38-39.622,95.67"/>
	<path fill="none" stroke="#000000" d="M582.644,504.093c-7.922,16.784-18.821,32.512-32.699,46.39"/>
	<path fill="none" stroke="#000000" d="M598.447,432.717c0.077,19.162-3.152,38.336-9.685,56.591"/>
	<path fill="none" stroke="#000000" d="M609.068,441.387c-1.788,39.623-17.626,79.52-45.992,110.914"/>
	<path fill="none" stroke="#000000" d="M602.626,512.37c-8.99,19.328-21.459,37.438-37.407,53.387"/>
	<path fill="none" stroke="#000000" d="M619.97,433.345c0.011,21.774-3.74,43.544-11.245,64.234"/>
	<path fill="none" stroke="#000000" d="M630.688,441.387c-1.828,45.492-19.258,90.474-52.288,126.238"/>
	<path fill="none" stroke="#000000" d="M622.604,520.645c-10.055,21.873-24.092,42.366-42.111,60.385"/>
	<path fill="none" stroke="#000000" d="M641.648,433.386c0,24.568-4.309,49.137-12.928,72.474"/>
	<path fill="none" stroke="#000000" d="M652.304,441.387c-1.849,51.024-21.388,101.527-58.619,141.523"/>
	<path fill="none" stroke="#000000" d="M642.578,528.919c-11.119,24.419-26.723,47.295-46.812,67.385"/>
	<path fill="none" stroke="#000000" d="M663.248,433.386c0.057,27.442-5.035,54.851-14.524,80.76"/>
	<path fill="none" stroke="#000000" d="M673.917,441.387c-1.865,56.555-23.515,112.58-64.949,156.805"/>
	<path fill="none" stroke="#000000" d="M662.55,537.191c-12.18,26.965-29.351,52.226-51.511,74.386"/>
	<path fill="none" stroke="#000000" d="M684.849,433.386c0,30.197-5.394,60.393-16.181,89.021"/>
	<path fill="none" stroke="#000000" d="M695.527,441.387c-1.879,62.086-25.639,123.633-71.279,172.086"/>
	<path fill="none" stroke="#000000" d="M682.521,545.463c-13.241,29.511-31.977,57.156-56.208,81.387"/>
	<path fill="none" stroke="#000000" d="M706.448,433.386c0,33.01-5.937,66.021-17.811,97.293"/>
	<path fill="none" stroke="#000000" d="M717.137,441.387c-1.891,67.616-27.76,134.687-77.608,187.366"/>
	<path fill="none" stroke="#000000" d="M702.49,553.735c-14.3,32.057-34.601,62.088-60.903,88.389"/>
	<path fill="none" stroke="#000000" d="M728.048,433.294c0.011,35.855-6.469,71.712-19.442,105.657"/>
	<path fill="none" stroke="#000000" d="M738.745,441.387c-1.901,73.146-29.88,145.741-83.937,202.645"/>
	<path fill="none" stroke="#000000" d="M722.457,562.006c-15.359,34.604-37.225,67.019-65.598,95.392"/>
	<path fill="none" stroke="#000000" d="M749.648,433.386c0,38.638-7.025,77.277-21.074,113.835"/>
	<path fill="none" stroke="#000000" d="M760.351,441.387c-1.91,78.676-31.999,156.795-90.266,217.924"/>
	<path fill="none" stroke="#000000" d="M742.552,569.989c-16.423,37.259-39.896,72.161-70.418,102.683"/>
	<path fill="none" stroke="#000000" d="M771.248,433.386c0,41.452-7.569,82.904-22.707,122.106"/>
	<path fill="none" stroke="#000000" d="M781.957,441.385c-1.917,84.206-34.115,167.851-96.594,233.203"/>
	<circle fill="none" stroke="#000000" cx="432.848" cy="433.386" r="1.8"/>
	<g>
	</g>
	<g>
	</g>
	<g>
	</g>
	<g>
	</g>
	<g>
	</g>
	<g>
	</g>
</g>
</svg>
