<?xml version="1.0" encoding="utf-8"?>
<!-- Generator: Adobe Illustrator 22.0.1, SVG Export Plug-In . SVG Version: 6.00 Build 0)  -->
<svg version="1.1" xmlns="http://www.w3.org/2000/svg" xmlns:xlink="http://www.w3.org/1999/xlink" x="0px" y="0px" width="1440px"
	 height="864px" viewBox="0 0 1440 864" enable-background="new 0 0 1440 864" xml:space="preserve">
<g id="Layer_1">
	<path fill="none" stroke="#FF0000" d="M1079.849,432.386c0,198.822-161.177,360-360,360s-360-161.177-360-360"/>
	<path fill="none" stroke="#FF0000" d="M773.849,432.386c0,29.823-24.177,54-54,54c-29.823,0-54-24.177-54-54"/>
	<path fill="none" stroke="#FF0000" d="M629.849,432.386c0-49.706,40.294-90,90-90s90,40.294,90,90s-40.294,90-90,90"/>
	<path fill="none" stroke="#FF0000" d="M845.849,432.386c0,69.588-56.412,126-126,126s-126-56.412-126-126s56.412-126,126-126"/>
	<path fill="none" stroke="#FF0000" d="M557.849,432.386c0-89.47,72.53-162,162-162s162,72.53,162,162s-72.53,162-162,162"/>
	<path fill="none" stroke="#FF0000" d="M917.849,432.386c0,109.352-88.648,198-198,198s-198-88.648-198-198s88.648-198,198-198"/>
	<path fill="none" stroke="#FF0000" d="M485.848,432.386c0-129.235,104.765-234,234-234s234,104.765,234,234s-104.765,234-234,234"
		/>
	<path fill="none" stroke="#FF0000" d="M989.849,432.386c0,149.117-120.883,270-270,270s-270-120.883-270-270s120.883-270,270-270"
		/>
	<path fill="none" stroke="#FF0000" d="M413.848,432.386c0-168.999,137.001-306,306-306s306,137.001,306,306s-137.001,306-306,306"
		/>
	<path fill="none" stroke="#FF0000" d="M1061.849,432.386c0,188.881-153.119,342-342,342s-342-153.119-342-342s153.119-342,342-342"
		/>
	<path fill="none" stroke="#FF0000" d="M719.849,360.386c39.764,0,72,32.235,72,72s-32.236,72-72,72c-39.765,0-72-32.236-72-72"/>
	<path fill="none" stroke="#FF0000" d="M719.849,540.386c-59.647,0-108-48.353-108-108s48.353-108,108-108
		c59.647,0,108,48.353,108,108"/>
	<path fill="none" stroke="#FF0000" d="M719.849,288.386c79.529,0,144,64.471,144,144s-64.471,144-144,144s-144-64.471-144-144"/>
	<path fill="none" stroke="#FF0000" d="M719.849,612.386c-99.411,0-180-80.589-180-180s80.589-180,180-180s180,80.589,180,180"/>
	<path fill="none" stroke="#FF0000" d="M719.849,216.386c119.293,0,216,96.706,216,216s-96.707,216-216,216s-216-96.706-216-216"/>
	<path fill="none" stroke="#FF0000" d="M719.849,684.386c-139.176,0-252-112.824-252-252s112.824-252,252-252s252,112.824,252,252"
		/>
	<path fill="none" stroke="#FF0000" d="M719.849,144.386c159.058,0,288,128.942,288,288s-128.942,288-288,288s-288-128.942-288-288"
		/>
	<path fill="none" stroke="#FF0000" d="M719.849,756.386c-178.94,0-324-145.06-324-324s145.06-324,324-324s324,145.06,324,324"/>
	<line display="none" fill="none" stroke="#FF0000" x1="272.419" y1="432.386" x2="1167.278" y2="432.386"/>
	<line display="none" fill="none" stroke="#FF0000" x1="720" y1="819.333" x2="720" y2="44.667"/>
</g>
<g id="Layer_2">
	<line fill="none" stroke="#6400FF" stroke-miterlimit="10" x1="665.849" y1="432.386" x2="647.849" y2="432.386"/>
	<line fill="none" stroke="#6400FF" stroke-miterlimit="10" x1="719.849" y1="522.386" x2="719.849" y2="504.386"/>
	<line fill="none" stroke="#6400FF" stroke-miterlimit="10" x1="719.849" y1="558.386" x2="719.849" y2="540.386"/>
	<line fill="none" stroke="#6400FF" stroke-miterlimit="10" x1="719.849" y1="594.386" x2="719.849" y2="576.386"/>
	<line fill="none" stroke="#6400FF" stroke-miterlimit="10" x1="719.849" y1="630.386" x2="719.849" y2="612.386"/>
	<line fill="none" stroke="#6400FF" stroke-miterlimit="10" x1="719.849" y1="666.386" x2="719.849" y2="648.386"/>
	<line fill="none" stroke="#6400FF" stroke-miterlimit="10" x1="719.849" y1="702.386" x2="719.849" y2="684.386"/>
	<line fill="none" stroke="#6400FF" stroke-miterlimit="10" x1="719.849" y1="738.386" x2="719.849" y2="720.386"/>
	<line fill="none" stroke="#6400FF" stroke-miterlimit="10" x1="719.849" y1="774.386" x2="719.849" y2="756.386"/>
	<line fill="none" stroke="#6400FF" stroke-miterlimit="10" x1="719.849" y1="108.386" x2="719.849" y2="90.386"/>
	<line fill="none" stroke="#6400FF" stroke-miterlimit="10" x1="719.849" y1="144.386" x2="719.849" y2="126.386"/>
	<line fill="none" stroke="#6400FF" stroke-miterlimit="10" x1="719.849" y1="180.386" x2="719.849" y2="162.386"/>
	<line fill="none" stroke="#6400FF" stroke-miterlimit="10" x1="719.849" y1="216.386" x2="719.849" y2="198.386"/>
	<line fill="none" stroke="#6400FF" stroke-miterlimit="10" x1="719.849" y1="252.386" x2="719.849" y2="234.386"/>
	<line fill="none" stroke="#6400FF" stroke-miterlimit="10" x1="719.849" y1="288.386" x2="719.849" y2="270.386"/>
	<line fill="none" stroke="#6400FF" stroke-miterlimit="10" x1="719.849" y1="324.386" x2="719.849" y2="306.386"/>
	<line fill="none" stroke="#6400FF" stroke-miterlimit="10" x1="719.849" y1="360.386" x2="719.849" y2="342.386"/>
	<line fill="none" stroke="#6400FF" stroke-miterlimit="10" x1="629.849" y1="432.386" x2="611.849" y2="432.386"/>
	<line fill="none" stroke="#6400FF" stroke-miterlimit="10" x1="593.849" y1="432.386" x2="575.849" y2="432.386"/>
	<line fill="none" stroke="#6400FF" stroke-miterlimit="10" x1="557.849" y1="432.386" x2="539.849" y2="432.386"/>
	<line fill="none" stroke="#6400FF" stroke-miterlimit="10" x1="521.849" y1="432.386" x2="503.848" y2="432.386"/>
	<line fill="none" stroke="#6400FF" stroke-miterlimit="10" x1="485.848" y1="432.386" x2="467.848" y2="432.386"/>
	<line fill="none" stroke="#6400FF" stroke-miterlimit="10" x1="449.848" y1="432.386" x2="431.848" y2="432.386"/>
	<line fill="none" stroke="#6400FF" stroke-miterlimit="10" x1="413.848" y1="432.386" x2="395.848" y2="432.386"/>
	<line fill="none" stroke="#6400FF" stroke-miterlimit="10" x1="377.848" y1="432.386" x2="359.848" y2="432.386"/>
	<line fill="none" stroke="#6400FF" stroke-miterlimit="10" x1="1079.849" y1="432.386" x2="1061.849" y2="432.386"/>
	<line fill="none" stroke="#6400FF" stroke-miterlimit="10" x1="1043.849" y1="432.386" x2="1025.849" y2="432.386"/>
	<line fill="none" stroke="#6400FF" stroke-miterlimit="10" x1="1007.849" y1="432.386" x2="989.849" y2="432.386"/>
	<line fill="none" stroke="#6400FF" stroke-miterlimit="10" x1="971.849" y1="432.386" x2="953.849" y2="432.386"/>
	<line fill="none" stroke="#6400FF" stroke-miterlimit="10" x1="935.849" y1="432.386" x2="917.849" y2="432.386"/>
	<line fill="none" stroke="#6400FF" stroke-miterlimit="10" x1="899.849" y1="432.386" x2="881.849" y2="432.386"/>
	<line fill="none" stroke="#6400FF" stroke-miterlimit="10" x1="863.849" y1="432.386" x2="845.849" y2="432.386"/>
	<line fill="none" stroke="#6400FF" stroke-miterlimit="10" x1="827.849" y1="432.386" x2="809.849" y2="432.386"/>
	<line fill="none" stroke="#6400FF" stroke-miterlimit="10" x1="791.849" y1="432.386" x2="773.849" y2="432.386"/>
	<circle fill="none" stroke="#FFFF00" stroke-miterlimit="10" cx="719.849" cy="432.386" r="432"/>
	<g>
	</g>
	<g>
	</g>
	<g>
	</g>
	<g>
	</g>
	<g>
	</g>
	<g>
	</g>
</g>
</svg>
