<?xml version="1.0" encoding="utf-8"?>
<!-- Generator: Adobe Illustrator 22.1.0, SVG Export Plug-In . SVG Version: 6.00 Build 0)  -->
<svg version="1.1" xmlns="http://www.w3.org/2000/svg" xmlns:xlink="http://www.w3.org/1999/xlink" x="0px" y="0px" width="1440px"
	 height="864px" viewBox="0 0 1440 864" enable-background="new 0 0 1440 864" xml:space="preserve">
<g id="Layer_1" display="none">
	<g display="inline">
		<rect x="41.697" y="425.387" fill="#0064FF" width="782.303" height="16"/>
	</g>
	<g display="inline">
		
			<rect x="41.697" y="425.387" transform="matrix(0.9239 -0.3827 0.3827 0.9239 -132.9013 198.6335)" fill="#0064FF" width="782.303" height="16"/>
	</g>
	<g display="inline">
		
			<rect x="41.697" y="425.387" transform="matrix(0.7071 -0.7071 0.7071 0.7071 -179.6723 433.0061)" fill="#0064FF" width="782.303" height="16"/>
	</g>
	<g display="inline">
		
			<rect x="41.697" y="425.387" transform="matrix(0.3827 -0.9239 0.9239 0.3827 -133.1926 667.4366)" fill="#0064FF" width="782.303" height="16"/>
	</g>
	<g display="inline">
		<rect x="424.848" y="42.235" fill="#0064FF" width="16" height="782.303"/>
	</g>
	<g display="inline">
		
			<rect x="424.848" y="42.235" transform="matrix(0.9239 -0.3827 0.3827 0.9239 -132.9013 198.6335)" fill="#0064FF" width="16" height="782.303"/>
	</g>
	<g display="inline">
		
			<rect x="424.848" y="42.235" transform="matrix(0.7071 -0.7071 0.7071 0.7071 -179.6723 433.0061)" fill="#0064FF" width="16" height="782.303"/>
	</g>
	<g display="inline">
		
			<rect x="424.848" y="42.235" transform="matrix(0.3827 -0.9239 0.9239 0.3827 -133.1926 667.4366)" fill="#0064FF" width="16" height="782.303"/>
	</g>
	<line display="inline" fill="none" stroke="#6400FF" x1="41.697" y1="433.386" x2="824" y2="433.386"/>
	<g display="inline">
		
			<rect x="41.697" y="425.387" transform="matrix(0.9808 -0.1951 0.1951 0.9808 -76.2325 92.7719)" fill="#0064FF" width="782.303" height="16"/>
	</g>
	<line display="inline" fill="none" stroke="#6400FF" x1="49.213" y1="509.696" x2="816.484" y2="357.076"/>
	<g display="inline">
		
			<rect x="41.697" y="425.387" transform="matrix(0.8315 -0.5556 0.5556 0.8315 -167.8287 313.5165)" fill="#0064FF" width="782.303" height="16"/>
	</g>
	<line display="inline" fill="none" stroke="#6400FF" x1="107.618" y1="650.699" x2="758.079" y2="216.074"/>
	<g display="inline">
		
			<rect x="41.697" y="425.387" transform="matrix(0.5556 -0.8315 0.8315 0.5556 -167.9772 552.5103)" fill="#0064FF" width="782.303" height="16"/>
	</g>
	<line display="inline" fill="none" stroke="#6400FF" x1="215.536" y1="758.617" x2="650.16" y2="108.156"/>
	<g display="inline">
		
			<rect x="41.697" y="425.387" transform="matrix(0.1951 -0.9808 0.9808 0.1951 -76.6555 773.3685)" fill="#0064FF" width="782.303" height="16"/>
	</g>
	<line display="inline" fill="none" stroke="#6400FF" x1="356.538" y1="817.022" x2="509.158" y2="49.751"/>
	<g display="inline">
		
			<rect x="424.848" y="42.235" transform="matrix(0.9808 -0.1951 0.1951 0.9808 -76.2325 92.7719)" fill="#0064FF" width="16" height="782.303"/>
	</g>
	<line display="inline" fill="none" stroke="#6400FF" x1="509.158" y1="817.023" x2="356.538" y2="49.751"/>
	<g display="inline">
		
			<rect x="424.848" y="42.235" transform="matrix(0.8315 -0.5556 0.5556 0.8315 -167.8287 313.5165)" fill="#0064FF" width="16" height="782.303"/>
	</g>
	<line display="inline" fill="none" stroke="#6400FF" x1="650.16" y1="758.618" x2="215.536" y2="108.156"/>
	<g display="inline">
		
			<rect x="424.848" y="42.235" transform="matrix(0.5556 -0.8315 0.8315 0.5556 -167.9772 552.5103)" fill="#0064FF" width="16" height="782.303"/>
	</g>
	<line display="inline" fill="none" stroke="#6400FF" x1="758.079" y1="650.699" x2="107.618" y2="216.075"/>
	<g display="inline">
		
			<rect x="424.848" y="42.235" transform="matrix(0.1951 -0.9808 0.9808 0.1951 -76.6555 773.3685)" fill="#0064FF" width="16" height="782.303"/>
	</g>
	<line display="inline" fill="none" stroke="#6400FF" x1="816.484" y1="509.697" x2="49.213" y2="357.077"/>
	<line display="inline" fill="none" stroke="#6400FF" x1="71.471" y1="583.074" x2="794.225" y2="283.699"/>
	<line display="inline" fill="none" stroke="#6400FF" x1="156.262" y1="709.972" x2="709.434" y2="156.8"/>
	<line display="inline" fill="none" stroke="#6400FF" x1="283.161" y1="794.763" x2="582.536" y2="72.009"/>
	<line display="inline" fill="none" stroke="#6400FF" x1="432.848" y1="824.538" x2="432.848" y2="42.235"/>
	<line display="inline" fill="none" stroke="#6400FF" x1="582.536" y1="794.763" x2="283.161" y2="72.009"/>
	<line display="inline" fill="none" stroke="#6400FF" x1="709.434" y1="709.972" x2="156.262" y2="156.8"/>
	<line display="inline" fill="none" stroke="#6400FF" x1="794.225" y1="583.074" x2="71.471" y2="283.699"/>
</g>
<g id="Layer_2">
	<circle fill="none" stroke="#FFFF00" cx="432.848" cy="433.386" r="360"/>
	<circle fill="none" stroke="#0064FF" cx="432.848" cy="433.386" r="36"/>
	<circle fill="none" stroke="#0064FF" cx="432.848" cy="433.386" r="46.8"/>
	<circle fill="none" stroke="#0064FF" cx="432.848" cy="433.386" r="57.6"/>
	<circle fill="none" stroke="#0064FF" cx="432.848" cy="433.386" r="68.4"/>
	<circle fill="none" stroke="#0064FF" cx="432.848" cy="433.386" r="79.2"/>
	<path fill="none" stroke="#FF0000" d="M518.752,406.463c1.897,6.06,3.171,12.395,3.746,18.931"/>
	<path fill="none" stroke="#FF0000" d="M532.97,421.628c0.448,3.857,0.678,7.781,0.678,11.758"/>
	<path fill="none" stroke="#FF0000" d="M525.727,394.15c1.613,3.813,2.998,7.746,4.137,11.782"/>
	<path fill="none" stroke="#FF0000" d="M538.778,398.168c2.875,8.651,4.719,17.772,5.388,27.218"/>
	<path fill="none" stroke="#FF0000" d="M554.214,417.402c0.682,5.231,1.034,10.567,1.034,15.984"/>
	<path fill="none" stroke="#FF0000" d="M545.961,386.534c2.034,4.905,3.758,9.971,5.148,15.173"/>
	<path fill="none" stroke="#FF0000" d="M558.782,389.882c3.879,11.23,6.297,23.14,7.03,35.504"/>
	<path fill="none" stroke="#FF0000" d="M575.442,413.18c0.927,6.602,1.407,13.348,1.407,20.207"/>
	<path fill="none" stroke="#FF0000" d="M565.922,378.266c2.571,6.2,4.721,12.618,6.415,19.218"/>
	<path fill="none" stroke="#FF0000" d="M578.775,381.601c4.897,13.8,7.893,28.5,8.671,43.785"/>
	<path fill="none" stroke="#FF0000" d="M596.659,408.959c1.179,7.971,1.789,16.128,1.789,24.427"/>
	<path fill="none" stroke="#FF0000" d="M585.883,369.997c3.107,7.494,5.681,15.265,7.672,23.266"/>
	<path fill="none" stroke="#FF0000" d="M598.759,373.323c5.925,16.364,9.498,33.855,10.311,52.063"/>
	<path fill="none" stroke="#FF0000" d="M617.87,404.74c1.434,9.339,2.178,18.906,2.178,28.646"/>
	<path fill="none" stroke="#FF0000" d="M605.844,361.729c3.644,8.787,6.638,17.912,8.922,27.315"/>
	<path fill="none" stroke="#FF0000" d="M618.739,365.048c6.959,18.925,11.111,39.206,11.951,60.339"/>
	<path fill="none" stroke="#FF0000" d="M639.077,400.522c1.693,10.706,2.572,21.682,2.572,32.864"/>
	<path fill="none" stroke="#FF0000" d="M625.805,353.461c4.18,10.081,7.594,20.56,10.167,31.365"/>
	<path fill="none" stroke="#FF0000" d="M638.714,356.773c7.998,21.482,12.729,44.555,13.591,68.613"/>
	<path fill="none" stroke="#FF0000" d="M660.28,396.307c1.953,12.071,2.968,24.457,2.968,37.079"/>
	<path fill="none" stroke="#FF0000" d="M645.766,345.193c4.717,11.374,8.548,23.208,11.409,35.416"/>
	<path fill="none" stroke="#FF0000" d="M658.688,348.5c9.04,24.038,14.351,49.902,15.231,76.886"/>
	<path fill="none" stroke="#FF0000" d="M681.481,392.087c2.215,13.438,3.368,27.234,3.368,41.299"/>
	<path fill="none" stroke="#FF0000" d="M665.727,336.925c5.253,12.667,9.502,25.856,12.649,39.467"/>
	<path fill="none" stroke="#FF0000" d="M678.659,340.228c10.084,26.593,15.976,55.248,16.87,85.159"/>
	<path fill="none" stroke="#FF0000" d="M685.467,328.126c5.891,14.122,10.633,28.844,14.108,44.049"/>
	<path fill="none" stroke="#FF0000" d="M702.68,387.871c2.479,14.803,3.769,30.009,3.769,45.516"/>
	<path fill="none" stroke="#FF0000" d="M698.628,331.956c11.13,29.146,17.603,60.593,18.51,93.43"/>
	<path fill="none" stroke="#FF0000" d="M705.619,320.317c6.339,15.275,11.432,31.198,15.153,47.642"/>
	<path fill="none" stroke="#FF0000" d="M723.877,383.654c2.743,16.168,4.171,32.783,4.171,49.732"/>
	<path fill="none" stroke="#FF0000" d="M718.597,323.685c12.177,31.699,19.231,65.937,20.149,101.702"/>
	<path fill="none" stroke="#FF0000" d="M725.61,312.12c6.861,16.546,12.361,33.8,16.359,51.622"/>
	<path fill="none" stroke="#FF0000" d="M745.073,379.438c3.008,17.533,4.575,35.557,4.575,53.948"/>
	<path fill="none" stroke="#FF0000" d="M738.485,315.208c13.275,34.308,20.939,71.409,21.868,110.179"/>
	<path fill="none" stroke="#FF0000" d="M766.269,375.222c3.274,18.897,4.98,38.331,4.98,58.164"/>
	<path fill="none" stroke="#FF0000" d="M745.571,303.852c7.398,17.839,13.313,36.448,17.593,55.674"/>
	<path fill="none" stroke="#FF0000" d="M758.531,307.144c14.275,36.801,22.492,76.623,23.428,118.243"/>
	<path fill="none" stroke="#FF0000" d="M501.91,375.639c4.072,4.872,7.673,10.238,10.705,16.056"/>
	<path fill="none" stroke="#FF0000" d="M520.849,384.208c1.89,3.392,3.604,6.929,5.126,10.603"/>
	<path fill="none" stroke="#FF0000" d="M503.642,361.594c2.949,2.906,5.734,6.009,8.331,9.302"/>
	<path fill="none" stroke="#FF0000" d="M517.237,360.312c5.966,6.892,11.161,14.613,15.394,23.084"/>
	<path fill="none" stroke="#FF0000" d="M538.859,372.174c2.632,4.572,4.999,9.367,7.072,14.372"/>
	<path fill="none" stroke="#FF0000" d="M519.421,346.814c3.756,3.753,7.288,7.773,10.563,12.048"/>
	<path fill="none" stroke="#FF0000" d="M532.548,345.001c7.881,8.891,14.673,18.969,20.082,30.111"/>
	<path fill="none" stroke="#FF0000" d="M556.855,360.15c3.383,5.745,6.408,11.794,9.032,18.13"/>
	<path fill="none" stroke="#FF0000" d="M534.698,331.536c4.748,4.744,9.19,9.85,13.281,15.301"/>
	<path fill="none" stroke="#FF0000" d="M547.849,329.7c9.805,10.875,18.198,23.31,24.767,37.134"/>
	<path fill="none" stroke="#FF0000" d="M574.842,348.131c4.139,6.914,7.825,14.216,11.001,21.883"/>
	<path fill="none" stroke="#FF0000" d="M549.976,316.259c5.739,5.734,11.09,11.929,15.991,18.559"/>
	<path fill="none" stroke="#FF0000" d="M563.145,314.404c11.737,12.851,21.731,27.643,29.45,44.154"/>
	<path fill="none" stroke="#FF0000" d="M592.824,336.116c4.899,8.079,9.247,16.633,12.975,25.632"/>
	<path fill="none" stroke="#FF0000" d="M565.254,300.981c6.729,6.724,12.987,14.009,18.696,21.822"/>
	<path fill="none" stroke="#FF0000" d="M578.437,299.113c13.672,14.821,25.269,31.969,34.132,51.172"/>
	<path fill="none" stroke="#FF0000" d="M610.802,324.104c5.661,9.243,10.673,19.048,14.952,29.379"/>
	<path fill="none" stroke="#FF0000" d="M580.531,285.704c7.72,7.714,14.884,16.089,21.396,25.087"/>
	<path fill="none" stroke="#FF0000" d="M593.725,283.824c15.61,16.786,28.811,36.292,38.814,58.189"/>
	<path fill="none" stroke="#FF0000" d="M628.779,312.095c6.424,10.405,12.101,21.459,16.932,33.121"/>
	<path fill="none" stroke="#FF0000" d="M595.808,270.426c8.71,8.703,16.779,18.17,24.094,28.354"/>
	<path fill="none" stroke="#FF0000" d="M609.012,268.537c17.551,18.749,32.356,40.611,43.494,65.205"/>
	<path fill="none" stroke="#FF0000" d="M646.75,300.084c7.189,11.567,13.533,23.872,18.916,36.867"/>
	<path fill="none" stroke="#FF0000" d="M611.086,255.149c9.701,9.693,18.674,20.251,26.789,31.622"/>
	<path fill="none" stroke="#FF0000" d="M624.297,253.252c19.493,20.71,35.902,44.929,48.175,72.22"/>
	<path fill="none" stroke="#FF0000" d="M625.956,239.465c10.847,10.793,20.862,22.58,29.891,35.297"/>
	<path fill="none" stroke="#FF0000" d="M664.722,288.075c7.955,12.728,14.966,26.282,20.9,40.609"/>
	<path fill="none" stroke="#FF0000" d="M639.581,237.968c21.436,22.668,39.451,49.244,52.855,79.235"/>
	<path fill="none" stroke="#FF0000" d="M641.586,224.539c11.702,11.687,22.501,24.448,32.232,38.216"/>
	<path fill="none" stroke="#FF0000" d="M682.692,276.068c8.721,13.887,16.399,28.691,22.885,44.35"/>
	<path fill="none" stroke="#FF0000" d="M654.865,222.684c23.381,24.626,43,53.558,57.535,86.249"/>
	<path fill="none" stroke="#FF0000" d="M656.918,209.316c12.671,12.661,24.355,26.497,34.868,41.432"/>
	<path fill="none" stroke="#FF0000" d="M700.662,264.061c9.488,15.047,17.834,31.1,24.872,48.091"/>
	<path fill="none" stroke="#FF0000" d="M669.995,207.242c25.393,26.616,46.672,57.96,62.367,93.423"/>
	<path fill="none" stroke="#FF0000" d="M718.63,252.055c10.256,16.206,19.269,33.508,26.859,51.831"/>
	<path fill="none" stroke="#FF0000" d="M672.196,194.039c13.661,13.65,26.248,28.579,37.559,44.703"/>
	<path fill="none" stroke="#FF0000" d="M685.429,192.12c27.272,28.537,50.103,62.183,66.894,100.277"/>
	<path fill="none" stroke="#FF0000" d="M474.554,353.606c5.626,2.943,11.007,6.522,16.035,10.737"/>
	<path fill="none" stroke="#FF0000" d="M495.331,354.275c3.044,2.411,5.982,5.022,8.794,7.835"/>
	<path fill="none" stroke="#FF0000" d="M470.78,339.967c3.837,1.556,7.597,3.358,11.257,5.405"/>
	<path fill="none" stroke="#FF0000" d="M482.849,333.58c8.15,4.084,15.904,9.23,23.056,15.436"/>
	<path fill="none" stroke="#FF0000" d="M507.365,336.265c4.182,3.217,8.203,6.74,12.034,10.571"/>
	<path fill="none" stroke="#FF0000" d="M479.701,320.274c4.906,2.03,9.708,4.393,14.369,7.088"/>
	<path fill="none" stroke="#FF0000" d="M491.135,313.576c10.683,5.198,20.815,11.909,30.076,20.134"/>
	<path fill="none" stroke="#FF0000" d="M519.389,318.269c5.324,4.013,10.433,8.444,15.283,13.294"/>
	<path fill="none" stroke="#FF0000" d="M487.969,300.313c6.202,2.566,12.26,5.584,18.126,9.053"/>
	<path fill="none" stroke="#FF0000" d="M499.416,293.584c13.221,6.295,25.733,14.571,37.092,24.83"/>
	<path fill="none" stroke="#FF0000" d="M531.408,300.282c6.47,4.803,12.669,10.139,18.537,16.007"/>
	<path fill="none" stroke="#FF0000" d="M496.237,280.352c7.496,3.102,14.811,6.777,21.876,11.027"/>
	<path fill="none" stroke="#FF0000" d="M507.694,273.599c15.761,7.381,30.655,17.222,44.105,29.523"/>
	<path fill="none" stroke="#FF0000" d="M543.423,282.3c7.618,5.59,14.908,11.828,21.796,18.716"/>
	<path fill="none" stroke="#FF0000" d="M504.506,260.391c8.79,3.637,17.36,7.972,25.623,13.006"/>
	<path fill="none" stroke="#FF0000" d="M515.97,253.619c18.303,8.461,35.58,19.866,51.117,34.215"/>
	<path fill="none" stroke="#FF0000" d="M555.435,264.322c8.767,6.373,17.15,13.513,25.057,21.42"/>
	<path fill="none" stroke="#FF0000" d="M512.774,240.43c10.084,4.172,19.908,9.169,29.368,14.989"/>
	<path fill="none" stroke="#FF0000" d="M524.244,233.644c20.846,9.535,40.506,22.504,58.127,38.906"/>
	<path fill="none" stroke="#FF0000" d="M567.448,246.349c9.917,7.155,19.392,15.195,28.318,24.12"/>
	<path fill="none" stroke="#FF0000" d="M521.042,220.469c11.378,4.708,22.455,10.366,33.11,16.975"/>
	<path fill="none" stroke="#FF0000" d="M532.517,213.67c23.39,10.606,45.434,25.138,65.137,43.597"/>
	<path fill="none" stroke="#FF0000" d="M579.455,228.374c11.068,7.935,21.638,16.876,31.584,26.821"/>
	<path fill="none" stroke="#FF0000" d="M529.31,200.508c12.671,5.243,25.002,11.564,36.851,18.963"/>
	<path fill="none" stroke="#FF0000" d="M540.79,193.699c25.934,11.674,50.363,27.769,72.145,48.287"/>
	<path fill="none" stroke="#FF0000" d="M537.047,180.328c14.152,5.82,27.915,12.877,41.123,21.171"/>
	<path fill="none" stroke="#FF0000" d="M591.464,210.402c12.22,8.715,23.884,18.554,34.849,29.52"/>
	<path fill="none" stroke="#FF0000" d="M549.061,173.73c28.479,12.74,55.293,30.399,79.154,52.977"/>
	<path fill="none" stroke="#FF0000" d="M545.774,160.556c15.284,6.319,30.144,13.976,44.403,22.973"/>
	<path fill="none" stroke="#FF0000" d="M603.471,192.432c13.372,9.493,26.131,20.232,38.115,32.216"/>
	<path fill="none" stroke="#FF0000" d="M557.332,153.761c31.025,13.804,60.223,33.026,86.162,57.666"/>
	<path fill="none" stroke="#FF0000" d="M554.114,140.625c16.552,6.848,32.641,15.16,48.069,24.935"/>
	<path fill="none" stroke="#FF0000" d="M615.478,174.463c14.524,10.27,28.378,21.908,41.382,34.912"/>
	<path fill="none" stroke="#FF0000" d="M565.401,133.704c33.646,14.873,65.3,35.688,93.371,62.445"/>
	<path fill="none" stroke="#FF0000" d="M627.484,156.494c15.677,11.048,30.626,23.583,44.65,37.607"/>
	<path fill="none" stroke="#FF0000" d="M562.382,120.664c17.845,7.383,35.187,16.359,51.807,26.927"/>
	<path fill="none" stroke="#FF0000" d="M573.874,113.827c36.116,15.928,70.085,38.277,100.176,67.044"/>
	<path fill="none" stroke="#FF0000" d="M440.849,343.719c6.324,0.566,12.665,1.814,18.923,3.784"/>
	<path fill="none" stroke="#FF0000" d="M460.3,336.386c3.735,1.062,7.448,2.351,11.123,3.873"/>
	<path fill="none" stroke="#FF0000" d="M432.142,332.563c4.14-0.031,8.304,0.195,12.468,0.686"/>
	<path fill="none" stroke="#FF0000" d="M440.849,322.043c9.092,0.655,18.225,2.441,27.208,5.438"/>
	<path fill="none" stroke="#FF0000" d="M464.526,315.142c5.094,1.372,10.158,3.088,15.163,5.161"/>
	<path fill="none" stroke="#FF0000" d="M432.848,310.954c5.31-0.002,10.65,0.344,15.988,1.05"/>
	<path fill="none" stroke="#FF0000" d="M440.849,300.391c11.859,0.714,23.788,3.037,35.492,7.092"/>
	<path fill="none" stroke="#FF0000" d="M468.748,293.915c6.455,1.67,12.871,3.809,19.207,6.433"/>
	<path fill="none" stroke="#FF0000" d="M432.848,289.349c6.711-0.003,13.464,0.467,20.21,1.428"/>
	<path fill="none" stroke="#FF0000" d="M440.849,278.751c14.623,0.756,29.351,3.615,43.77,8.745"/>
	<path fill="none" stroke="#FF0000" d="M472.969,272.697c7.816,1.962,15.585,4.519,23.252,7.695"/>
	<path fill="none" stroke="#FF0000" d="M432.848,267.743c8.112-0.003,16.277,0.594,24.431,1.816"/>
	<path fill="none" stroke="#FF0000" d="M440.849,257.12c17.386,0.788,34.912,4.18,52.046,10.397"/>
	<path fill="none" stroke="#FF0000" d="M477.188,251.486c9.177,2.249,18.3,5.223,27.299,8.95"/>
	<path fill="none" stroke="#FF0000" d="M432.848,246.137c9.513-0.004,19.089,0.722,28.65,2.21"/>
	<path fill="none" stroke="#FF0000" d="M440.849,235.494c20.147,0.812,40.474,4.738,60.319,12.049"/>
	<path fill="none" stroke="#FF0000" d="M481.406,230.28c10.539,2.533,21.016,5.922,31.347,10.201"/>
	<path fill="none" stroke="#FF0000" d="M432.848,224.532c10.913-0.004,21.901,0.852,32.868,2.61"/>
	<path fill="none" stroke="#FF0000" d="M440.849,213.873c22.908,0.832,46.035,5.29,68.591,13.701"/>
	<path fill="none" stroke="#FF0000" d="M485.626,209.077c11.9,2.815,23.731,6.617,35.393,11.448"/>
	<path fill="none" stroke="#FF0000" d="M432.848,202.926c12.313-0.005,24.713,0.984,37.086,3.012"/>
	<path fill="none" stroke="#FF0000" d="M440.849,192.254c25.668,0.848,51.595,5.838,76.862,15.352"/>
	<path fill="none" stroke="#FF0000" d="M489.841,187.876c13.263,3.096,26.449,7.311,39.444,12.693"/>
	<path fill="none" stroke="#FF0000" d="M432.848,181.32c13.713-0.005,27.524,1.116,41.303,3.417"/>
	<path fill="none" stroke="#FF0000" d="M440.849,170.637c28.427,0.86,57.156,6.383,85.132,17.003"/>
	<path fill="none" stroke="#FF0000" d="M432.274,159.716c15.302-0.038,30.718,1.215,46.095,3.823"/>
	<path fill="none" stroke="#FF0000" d="M494.057,166.677c14.625,3.375,29.167,8.002,43.493,13.936"/>
	<path fill="none" stroke="#FF0000" d="M440.849,149.022c31.187,0.871,62.717,6.925,93.402,18.654"/>
	<path fill="none" stroke="#FF0000" d="M432.77,138.109c16.538-0.011,33.198,1.377,49.814,4.232"/>
	<path fill="none" stroke="#FF0000" d="M498.274,145.479c15.987,3.653,31.884,8.692,47.543,15.178"/>
	<path fill="none" stroke="#FF0000" d="M440.849,127.408c33.946,0.88,68.277,7.466,101.671,20.304"/>
	<path fill="none" stroke="#FF0000" d="M432.848,116.503c17.913-0.007,35.958,1.515,53.952,4.641"/>
	<path fill="none" stroke="#FF0000" d="M502.49,124.283c17.349,3.93,34.602,9.38,51.592,16.418"/>
	<path fill="none" stroke="#FF0000" d="M440.628,105.791c36.776,0.865,73.986,7.982,110.16,21.96"/>
	<path fill="none" stroke="#FF0000" d="M506.706,103.088c18.711,4.207,37.319,10.068,55.642,17.658"/>
	<path fill="none" stroke="#FF0000" d="M432.848,94.898c19.312-0.008,38.769,1.648,58.168,5.052"/>
	<path fill="none" stroke="#FF0000" d="M440.849,84.184c39.463,0.895,79.398,8.542,118.208,23.605"/>
	<path fill="none" stroke="#FF0000" d="M405.926,347.482c6.06-1.897,12.395-3.171,18.931-3.746"/>
	<path fill="none" stroke="#FF0000" d="M421.09,333.265c3.857-0.448,7.781-0.678,11.758-0.678"/>
	<path fill="none" stroke="#FF0000" d="M393.613,340.508c3.813-1.613,7.746-2.998,11.782-4.137"/>
	<path fill="none" stroke="#FF0000" d="M397.631,327.457c8.651-2.875,17.772-4.719,27.218-5.388"/>
	<path fill="none" stroke="#FF0000" d="M416.864,312.021c5.231-0.682,10.567-1.034,15.984-1.034"/>
	<path fill="none" stroke="#FF0000" d="M385.996,320.274c4.905-2.034,9.971-3.758,15.173-5.148"/>
	<path fill="none" stroke="#FF0000" d="M389.345,307.453c11.23-3.879,23.14-6.298,35.504-7.03"/>
	<path fill="none" stroke="#FF0000" d="M412.642,290.793c6.602-0.927,13.348-1.407,20.206-1.407"/>
	<path fill="none" stroke="#FF0000" d="M377.728,300.313c6.2-2.571,12.618-4.721,19.219-6.415"/>
	<path fill="none" stroke="#FF0000" d="M381.063,287.46c13.8-4.897,28.5-7.893,43.785-8.671"/>
	<path fill="none" stroke="#FF0000" d="M408.422,269.575c7.971-1.179,16.128-1.789,24.427-1.789"/>
	<path fill="none" stroke="#FF0000" d="M369.459,280.352c7.494-3.107,15.265-5.681,23.266-7.672"/>
	<path fill="none" stroke="#FF0000" d="M372.785,267.476c16.364-5.925,33.855-9.498,52.063-10.311"/>
	<path fill="none" stroke="#FF0000" d="M404.202,248.364c9.339-1.434,18.906-2.178,28.646-2.178"/>
	<path fill="none" stroke="#FF0000" d="M361.191,260.391c8.787-3.644,17.912-6.638,27.315-8.922"/>
	<path fill="none" stroke="#FF0000" d="M364.51,247.496c18.925-6.959,39.206-11.111,60.339-11.951"/>
	<path fill="none" stroke="#FF0000" d="M399.984,227.158c10.706-1.693,21.682-2.572,32.864-2.572"/>
	<path fill="none" stroke="#FF0000" d="M352.923,240.43c10.081-4.18,20.56-7.594,31.365-10.167"/>
	<path fill="none" stroke="#FF0000" d="M356.236,227.52c21.482-7.998,44.555-12.73,68.613-13.591"/>
	<path fill="none" stroke="#FF0000" d="M395.769,205.954c12.071-1.953,24.457-2.968,37.079-2.968"/>
	<path fill="none" stroke="#FF0000" d="M344.655,220.469c11.374-4.717,23.208-8.548,35.416-11.409"/>
	<path fill="none" stroke="#FF0000" d="M347.962,207.547c24.038-9.04,49.902-14.351,76.886-15.231"/>
	<path fill="none" stroke="#FF0000" d="M391.55,184.754c13.438-2.215,27.234-3.368,41.299-3.368"/>
	<path fill="none" stroke="#FF0000" d="M336.387,200.508c12.667-5.253,25.856-9.502,39.467-12.649"/>
	<path fill="none" stroke="#FF0000" d="M339.69,187.576c26.593-10.084,55.248-15.976,85.159-16.87"/>
	<path fill="none" stroke="#FF0000" d="M327.588,180.768c14.122-5.891,28.844-10.633,44.049-14.108"/>
	<path fill="none" stroke="#FF0000" d="M387.333,163.555c14.803-2.479,30.009-3.769,45.516-3.769"/>
	<path fill="none" stroke="#FF0000" d="M331.418,167.606c29.146-11.13,60.593-17.603,93.43-18.51"/>
	<path fill="none" stroke="#FF0000" d="M319.779,160.616c15.275-6.339,31.198-11.432,47.642-15.153"/>
	<path fill="none" stroke="#FF0000" d="M383.116,142.358c16.168-2.743,32.783-4.171,49.732-4.171"/>
	<path fill="none" stroke="#FF0000" d="M323.147,147.638c31.698-12.177,65.937-19.231,101.702-20.149"/>
	<path fill="none" stroke="#FF0000" d="M311.583,140.625c16.546-6.861,33.8-12.361,51.622-16.359"/>
	<path fill="none" stroke="#FF0000" d="M378.9,121.161c17.533-3.008,35.557-4.575,53.948-4.575"/>
	<path fill="none" stroke="#FF0000" d="M314.67,127.75c34.308-13.275,71.409-20.939,110.178-21.868"/>
	<path fill="none" stroke="#FF0000" d="M374.684,99.966c18.897-3.274,38.331-4.98,58.164-4.98"/>
	<path fill="none" stroke="#FF0000" d="M303.315,120.664c17.839-7.398,36.448-13.313,55.674-17.593"/>
	<path fill="none" stroke="#FF0000" d="M306.606,107.704c36.801-14.275,76.623-22.492,118.243-23.428"/>
	<path fill="none" stroke="#FF0000" d="M375.101,364.324c4.872-4.072,10.238-7.673,16.056-10.705"/>
	<path fill="none" stroke="#FF0000" d="M383.671,345.386c3.392-1.89,6.929-3.604,10.603-5.126"/>
	<path fill="none" stroke="#FF0000" d="M361.056,362.593c2.906-2.949,6.009-5.734,9.302-8.331"/>
	<path fill="none" stroke="#FF0000" d="M359.774,348.998c6.892-5.966,14.613-11.161,23.084-15.394"/>
	<path fill="none" stroke="#FF0000" d="M371.636,327.376c4.572-2.632,9.367-4.999,14.372-7.072"/>
	<path fill="none" stroke="#FF0000" d="M346.276,346.814c3.753-3.756,7.773-7.288,12.048-10.563"/>
	<path fill="none" stroke="#FF0000" d="M344.463,333.687c8.891-7.881,18.968-14.673,30.111-20.082"/>
	<path fill="none" stroke="#FF0000" d="M359.612,309.38c5.745-3.383,11.794-6.408,18.13-9.032"/>
	<path fill="none" stroke="#FF0000" d="M330.998,331.536c4.744-4.748,9.85-9.19,15.301-13.281"/>
	<path fill="none" stroke="#FF0000" d="M329.162,318.386c10.875-9.805,23.31-18.198,37.134-24.767"/>
	<path fill="none" stroke="#FF0000" d="M347.593,291.393c6.914-4.139,14.216-7.825,21.883-11.001"/>
	<path fill="none" stroke="#FF0000" d="M315.721,316.259c5.734-5.739,11.929-11.09,18.559-15.991"/>
	<path fill="none" stroke="#FF0000" d="M313.866,303.09c12.851-11.737,27.643-21.731,44.154-29.45"/>
	<path fill="none" stroke="#FF0000" d="M335.578,273.411c8.079-4.899,16.633-9.247,25.632-12.975"/>
	<path fill="none" stroke="#FF0000" d="M300.443,300.981c6.724-6.729,14.009-12.987,21.822-18.696"/>
	<path fill="none" stroke="#FF0000" d="M298.575,287.798c14.821-13.672,31.969-25.269,51.172-34.132"/>
	<path fill="none" stroke="#FF0000" d="M323.566,255.433c9.243-5.661,19.048-10.673,29.379-14.952"/>
	<path fill="none" stroke="#FF0000" d="M285.166,285.704c7.714-7.72,16.089-14.884,25.087-21.396"/>
	<path fill="none" stroke="#FF0000" d="M283.286,272.51c16.786-15.61,36.292-28.811,58.189-38.814"/>
	<path fill="none" stroke="#FF0000" d="M311.557,237.456c10.405-6.424,21.459-12.101,33.121-16.932"/>
	<path fill="none" stroke="#FF0000" d="M269.888,270.426c8.703-8.71,18.17-16.779,28.354-24.094"/>
	<path fill="none" stroke="#FF0000" d="M267.999,257.223c18.749-17.551,40.611-32.356,65.205-43.494"/>
	<path fill="none" stroke="#FF0000" d="M299.546,219.484c11.567-7.189,23.872-13.533,36.867-18.916"/>
	<path fill="none" stroke="#FF0000" d="M254.611,255.149c9.693-9.701,20.251-18.674,31.622-26.789"/>
	<path fill="none" stroke="#FF0000" d="M252.714,241.937c20.71-19.493,44.929-35.902,72.22-48.175"/>
	<path fill="none" stroke="#FF0000" d="M238.927,240.279c10.793-10.847,22.58-20.862,35.297-29.891"/>
	<path fill="none" stroke="#FF0000" d="M287.538,201.513c12.728-7.955,26.282-14.966,40.609-20.9"/>
	<path fill="none" stroke="#FF0000" d="M237.43,226.653c22.668-21.436,49.244-39.451,79.235-52.855"/>
	<path fill="none" stroke="#FF0000" d="M224.001,224.649c11.687-11.702,24.448-22.501,38.216-32.232"/>
	<path fill="none" stroke="#FF0000" d="M275.53,183.543c13.887-8.721,28.691-16.399,44.35-22.885"/>
	<path fill="none" stroke="#FF0000" d="M222.146,211.37c24.626-23.381,53.558-43,86.249-57.535"/>
	<path fill="none" stroke="#FF0000" d="M208.778,209.316c12.661-12.671,26.497-24.355,41.432-34.868"/>
	<path fill="none" stroke="#FF0000" d="M263.523,165.573c15.047-9.488,31.1-17.834,48.091-24.872"/>
	<path fill="none" stroke="#FF0000" d="M206.704,196.24c26.616-25.393,57.96-46.672,93.423-62.367"/>
	<path fill="none" stroke="#FF0000" d="M251.517,147.605c16.206-10.256,33.508-19.269,51.831-26.859"/>
	<path fill="none" stroke="#FF0000" d="M193.501,194.039c13.65-13.661,28.579-26.248,44.703-37.559"/>
	<path fill="none" stroke="#FF0000" d="M191.582,180.806c28.537-27.272,62.183-50.103,100.277-66.894"/>
	<path fill="none" stroke="#FF0000" d="M353.068,391.681c2.943-5.626,6.522-11.007,10.737-16.035"/>
	<path fill="none" stroke="#FF0000" d="M353.738,370.904c2.411-3.044,5.022-5.982,7.835-8.794"/>
	<path fill="none" stroke="#FF0000" d="M339.429,395.455c1.556-3.837,3.358-7.597,5.405-11.257"/>
	<path fill="none" stroke="#FF0000" d="M333.042,383.386c4.084-8.15,9.23-15.904,15.436-23.056"/>
	<path fill="none" stroke="#FF0000" d="M335.727,358.87c3.217-4.182,6.74-8.203,10.571-12.034"/>
	<path fill="none" stroke="#FF0000" d="M319.736,386.534c2.03-4.906,4.393-9.708,7.088-14.369"/>
	<path fill="none" stroke="#FF0000" d="M313.038,375.1c5.198-10.683,11.909-20.815,20.134-30.076"/>
	<path fill="none" stroke="#FF0000" d="M317.732,346.846c4.013-5.324,8.444-10.433,13.294-15.283"/>
	<path fill="none" stroke="#FF0000" d="M299.775,378.266c2.566-6.202,5.584-12.26,9.053-18.126"/>
	<path fill="none" stroke="#FF0000" d="M293.046,366.819c6.295-13.221,14.571-25.733,24.83-37.092"/>
	<path fill="none" stroke="#FF0000" d="M299.744,334.827c4.803-6.47,10.139-12.669,16.007-18.537"/>
	<path fill="none" stroke="#FF0000" d="M279.814,369.997c3.102-7.496,6.777-14.811,11.027-21.876"/>
	<path fill="none" stroke="#FF0000" d="M273.061,358.541c7.381-15.761,17.222-30.655,29.523-44.105"/>
	<path fill="none" stroke="#FF0000" d="M281.762,322.812c5.59-7.618,11.828-14.908,18.716-21.796"/>
	<path fill="none" stroke="#FF0000" d="M259.853,361.729c3.637-8.79,7.972-17.36,13.006-25.623"/>
	<path fill="none" stroke="#FF0000" d="M253.082,350.265c8.461-18.303,19.866-35.58,34.215-51.117"/>
	<path fill="none" stroke="#FF0000" d="M263.784,310.799c6.373-8.767,13.513-17.15,21.42-25.057"/>
	<path fill="none" stroke="#FF0000" d="M239.892,353.461c4.172-10.084,9.169-19.908,14.989-29.368"/>
	<path fill="none" stroke="#FF0000" d="M233.106,341.991c9.535-20.846,22.504-40.506,38.906-58.127"/>
	<path fill="none" stroke="#FF0000" d="M245.811,298.787c7.155-9.917,15.195-19.392,24.12-28.318"/>
	<path fill="none" stroke="#FF0000" d="M219.931,345.193c4.708-11.378,10.366-22.455,16.975-33.11"/>
	<path fill="none" stroke="#FF0000" d="M213.133,333.718c10.606-23.39,25.138-45.434,43.597-65.137"/>
	<path fill="none" stroke="#FF0000" d="M227.836,286.78c7.935-11.068,16.876-21.638,26.821-31.584"/>
	<path fill="none" stroke="#FF0000" d="M199.97,336.925c5.243-12.671,11.564-25.002,18.963-36.851"/>
	<path fill="none" stroke="#FF0000" d="M193.161,325.445c11.674-25.934,27.769-50.363,48.287-72.145"/>
	<path fill="none" stroke="#FF0000" d="M179.79,329.188c5.82-14.152,12.877-27.915,21.172-41.123"/>
	<path fill="none" stroke="#FF0000" d="M209.865,274.771c8.715-12.22,18.554-23.884,29.52-34.849"/>
	<path fill="none" stroke="#FF0000" d="M173.192,317.174c12.74-28.479,30.399-55.293,52.977-79.154"/>
	<path fill="none" stroke="#FF0000" d="M160.018,320.461c6.319-15.284,13.976-30.144,22.973-44.403"/>
	<path fill="none" stroke="#FF0000" d="M191.894,262.764c9.493-13.372,20.232-26.131,32.216-38.115"/>
	<path fill="none" stroke="#FF0000" d="M153.223,308.902c13.804-31.025,33.026-60.223,57.666-86.162"/>
	<path fill="none" stroke="#FF0000" d="M140.087,312.121c6.848-16.552,15.16-32.641,24.935-48.069"/>
	<path fill="none" stroke="#FF0000" d="M173.925,250.757c10.27-14.524,21.908-28.378,34.912-41.382"/>
	<path fill="none" stroke="#FF0000" d="M133.166,300.834c14.873-33.646,35.688-65.3,62.445-93.371"/>
	<path fill="none" stroke="#FF0000" d="M155.956,238.751c11.048-15.677,23.583-30.626,37.607-44.65"/>
	<path fill="none" stroke="#FF0000" d="M120.126,303.852c7.383-17.845,16.359-35.187,26.927-51.807"/>
	<path fill="none" stroke="#FF0000" d="M113.289,292.361c15.928-36.116,38.277-70.085,67.044-100.176"/>
	<path fill="none" stroke="#FF0000" d="M343.181,425.386c0.566-6.324,1.814-12.665,3.784-18.923"/>
	<path fill="none" stroke="#FF0000" d="M335.849,405.935c1.062-3.735,2.351-7.448,3.873-11.123"/>
	<path fill="none" stroke="#FF0000" d="M332.025,434.093c-0.031-4.14,0.195-8.304,0.686-12.468"/>
	<path fill="none" stroke="#FF0000" d="M321.505,425.386c0.655-9.092,2.441-18.225,5.438-27.208"/>
	<path fill="none" stroke="#FF0000" d="M314.604,401.709c1.372-5.094,3.088-10.158,5.161-15.163"/>
	<path fill="none" stroke="#FF0000" d="M310.416,433.386c-0.002-5.31,0.344-10.65,1.05-15.988"/>
	<path fill="none" stroke="#FF0000" d="M299.853,425.386c0.714-11.859,3.037-23.788,7.092-35.492"/>
	<path fill="none" stroke="#FF0000" d="M293.377,397.487c1.67-6.455,3.809-12.871,6.433-19.207"/>
	<path fill="none" stroke="#FF0000" d="M288.811,433.386c-0.003-6.711,0.467-13.464,1.428-20.21"/>
	<path fill="none" stroke="#FF0000" d="M278.213,425.386c0.756-14.623,3.615-29.351,8.745-43.77"/>
	<path fill="none" stroke="#FF0000" d="M272.159,393.266c1.962-7.816,4.519-15.585,7.695-23.252"/>
	<path fill="none" stroke="#FF0000" d="M267.205,433.386c-0.003-8.112,0.593-16.277,1.816-24.431"/>
	<path fill="none" stroke="#FF0000" d="M256.582,425.386c0.788-17.386,4.18-34.912,10.397-52.046"/>
	<path fill="none" stroke="#FF0000" d="M250.948,389.047c2.249-9.177,5.223-18.3,8.95-27.299"/>
	<path fill="none" stroke="#FF0000" d="M245.6,433.386c-0.004-9.513,0.722-19.089,2.21-28.65"/>
	<path fill="none" stroke="#FF0000" d="M234.956,425.386c0.812-20.147,4.738-40.474,12.049-60.319"/>
	<path fill="none" stroke="#FF0000" d="M229.742,384.829c2.533-10.539,5.922-21.016,10.201-31.347"/>
	<path fill="none" stroke="#FF0000" d="M223.994,433.386c-0.004-10.913,0.852-21.901,2.61-32.868"/>
	<path fill="none" stroke="#FF0000" d="M213.335,425.386c0.832-22.908,5.29-46.035,13.701-68.591"/>
	<path fill="none" stroke="#FF0000" d="M208.539,380.609c2.815-11.9,6.617-23.731,11.448-35.393"/>
	<path fill="none" stroke="#FF0000" d="M202.388,433.386c-0.005-12.313,0.984-24.713,3.012-37.086"/>
	<path fill="none" stroke="#FF0000" d="M191.716,425.386c0.848-25.668,5.838-51.595,15.352-76.862"/>
	<path fill="none" stroke="#FF0000" d="M187.338,376.394c3.096-13.263,7.311-26.449,12.693-39.444"/>
	<path fill="none" stroke="#FF0000" d="M180.783,433.386c-0.005-13.713,1.116-27.524,3.417-41.303"/>
	<path fill="none" stroke="#FF0000" d="M170.099,425.386c0.86-28.427,6.383-57.156,17.003-85.132"/>
	<path fill="none" stroke="#FF0000" d="M159.178,433.961c-0.038-15.302,1.215-30.718,3.823-46.095"/>
	<path fill="none" stroke="#FF0000" d="M166.139,372.177c3.375-14.625,8.002-29.167,13.936-43.493"/>
	<path fill="none" stroke="#FF0000" d="M148.484,425.386c0.871-31.187,6.925-62.717,18.654-93.402"/>
	<path fill="none" stroke="#FF0000" d="M137.571,433.464c-0.011-16.538,1.377-33.198,4.232-49.814"/>
	<path fill="none" stroke="#FF0000" d="M144.941,367.961c3.653-15.987,8.692-31.884,15.178-47.543"/>
	<path fill="none" stroke="#FF0000" d="M126.871,425.386c0.88-33.946,7.466-68.277,20.304-101.671"/>
	<path fill="none" stroke="#FF0000" d="M115.966,433.386c-0.007-17.913,1.515-35.958,4.641-53.952"/>
	<path fill="none" stroke="#FF0000" d="M123.745,363.745c3.93-17.349,9.38-34.602,16.418-51.593"/>
	<path fill="none" stroke="#FF0000" d="M105.253,425.607c0.865-36.776,7.982-73.986,21.96-110.16"/>
	<path fill="none" stroke="#FF0000" d="M102.55,359.529c4.207-18.711,10.068-37.319,17.658-55.642"/>
	<path fill="none" stroke="#FF0000" d="M94.36,433.386c-0.008-19.312,1.648-38.769,5.052-58.168"/>
	<path fill="none" stroke="#FF0000" d="M83.646,425.386c0.895-39.463,8.542-79.398,23.605-118.208"/>
	<path fill="none" stroke="#FF0000" d="M346.945,460.309c-1.897-6.06-3.171-12.395-3.746-18.931"/>
	<path fill="none" stroke="#FF0000" d="M332.727,445.145c-0.448-3.857-0.678-7.781-0.678-11.758"/>
	<path fill="none" stroke="#FF0000" d="M339.97,472.622c-1.613-3.813-2.998-7.746-4.137-11.782"/>
	<path fill="none" stroke="#FF0000" d="M326.919,468.604c-2.875-8.651-4.719-17.772-5.388-27.218"/>
	<path fill="none" stroke="#FF0000" d="M311.483,449.37c-0.682-5.231-1.034-10.567-1.034-15.984"/>
	<path fill="none" stroke="#FF0000" d="M319.736,480.239c-2.034-4.905-3.758-9.971-5.148-15.173"/>
	<path fill="none" stroke="#FF0000" d="M306.915,476.89c-3.879-11.23-6.298-23.14-7.03-35.504"/>
	<path fill="none" stroke="#FF0000" d="M290.255,453.593c-0.927-6.602-1.407-13.348-1.407-20.206"/>
	<path fill="none" stroke="#FF0000" d="M299.775,488.507c-2.571-6.2-4.721-12.618-6.415-19.219"/>
	<path fill="none" stroke="#FF0000" d="M286.922,485.171c-4.897-13.8-7.893-28.5-8.671-43.785"/>
	<path fill="none" stroke="#FF0000" d="M269.037,457.813c-1.178-7.971-1.789-16.128-1.789-24.427"/>
	<path fill="none" stroke="#FF0000" d="M279.814,496.775c-3.107-7.494-5.681-15.265-7.672-23.266"/>
	<path fill="none" stroke="#FF0000" d="M266.938,493.449c-5.925-16.364-9.498-33.855-10.311-52.063"/>
	<path fill="none" stroke="#FF0000" d="M247.826,462.032c-1.434-9.339-2.178-18.906-2.178-28.646"/>
	<path fill="none" stroke="#FF0000" d="M259.853,505.043c-3.644-8.787-6.638-17.912-8.922-27.315"/>
	<path fill="none" stroke="#FF0000" d="M246.958,501.725c-6.959-18.925-11.111-39.206-11.951-60.339"/>
	<path fill="none" stroke="#FF0000" d="M226.62,466.251c-1.693-10.706-2.572-21.682-2.572-32.864"/>
	<path fill="none" stroke="#FF0000" d="M239.892,513.312c-4.18-10.081-7.594-20.56-10.167-31.365"/>
	<path fill="none" stroke="#FF0000" d="M226.983,509.999c-7.998-21.482-12.73-44.555-13.591-68.613"/>
	<path fill="none" stroke="#FF0000" d="M205.417,470.466c-1.953-12.071-2.968-24.457-2.968-37.079"/>
	<path fill="none" stroke="#FF0000" d="M219.931,521.58c-4.717-11.374-8.548-23.208-11.409-35.416"/>
	<path fill="none" stroke="#FF0000" d="M207.009,518.272c-9.04-24.038-14.351-49.902-15.231-76.886"/>
	<path fill="none" stroke="#FF0000" d="M184.216,474.685c-2.215-13.438-3.368-27.234-3.368-41.299"/>
	<path fill="none" stroke="#FF0000" d="M199.97,529.848c-5.253-12.667-9.502-25.856-12.649-39.467"/>
	<path fill="none" stroke="#FF0000" d="M187.038,526.545c-10.084-26.593-15.976-55.248-16.87-85.159"/>
	<path fill="none" stroke="#FF0000" d="M180.23,538.647c-5.891-14.122-10.633-28.844-14.108-44.049"/>
	<path fill="none" stroke="#FF0000" d="M163.017,478.902c-2.479-14.803-3.769-30.009-3.769-45.516"/>
	<path fill="none" stroke="#FF0000" d="M167.069,534.817c-11.13-29.146-17.603-60.593-18.51-93.43"/>
	<path fill="none" stroke="#FF0000" d="M160.078,546.456c-6.339-15.275-11.432-31.198-15.153-47.642"/>
	<path fill="none" stroke="#FF0000" d="M141.82,483.118c-2.743-16.168-4.171-32.783-4.171-49.732"/>
	<path fill="none" stroke="#FF0000" d="M147.1,543.088c-12.177-31.698-19.231-65.937-20.149-101.702"/>
	<path fill="none" stroke="#FF0000" d="M140.087,554.652c-6.861-16.546-12.361-33.8-16.359-51.622"/>
	<path fill="none" stroke="#FF0000" d="M120.624,487.335c-3.008-17.533-4.575-35.557-4.575-53.948"/>
	<path fill="none" stroke="#FF0000" d="M127.212,551.565c-13.275-34.308-20.939-71.409-21.868-110.179"/>
	<path fill="none" stroke="#FF0000" d="M99.428,491.551c-3.274-18.897-4.98-38.331-4.98-58.164"/>
	<path fill="none" stroke="#FF0000" d="M120.126,562.92c-7.398-17.839-13.313-36.448-17.593-55.674"/>
	<path fill="none" stroke="#FF0000" d="M107.166,559.629c-14.275-36.801-22.492-76.623-23.428-118.243"/>
	<path fill="none" stroke="#FF0000" d="M363.787,491.134c-4.072-4.872-7.673-10.238-10.705-16.056"/>
	<path fill="none" stroke="#FF0000" d="M344.848,482.564c-1.89-3.392-3.604-6.929-5.126-10.603"/>
	<path fill="none" stroke="#FF0000" d="M362.055,505.179c-2.949-2.906-5.734-6.009-8.331-9.302"/>
	<path fill="none" stroke="#FF0000" d="M348.46,506.461c-5.966-6.892-11.161-14.613-15.394-23.084"/>
	<path fill="none" stroke="#FF0000" d="M326.838,494.598c-2.632-4.572-4.999-9.367-7.072-14.372"/>
	<path fill="none" stroke="#FF0000" d="M346.276,519.959c-3.756-3.753-7.288-7.773-10.563-12.048"/>
	<path fill="none" stroke="#FF0000" d="M333.149,521.772c-7.881-8.891-14.673-18.969-20.082-30.111"/>
	<path fill="none" stroke="#FF0000" d="M308.842,506.623c-3.383-5.745-6.408-11.794-9.032-18.13"/>
	<path fill="none" stroke="#FF0000" d="M330.999,535.236c-4.748-4.744-9.19-9.85-13.281-15.301"/>
	<path fill="none" stroke="#FF0000" d="M317.848,537.073c-9.805-10.875-18.198-23.31-24.767-37.134"/>
	<path fill="none" stroke="#FF0000" d="M290.855,518.642c-4.139-6.914-7.825-14.216-11.001-21.883"/>
	<path fill="none" stroke="#FF0000" d="M315.721,550.514c-5.739-5.734-11.09-11.929-15.991-18.559"/>
	<path fill="none" stroke="#FF0000" d="M302.552,552.369c-11.737-12.851-21.731-27.643-29.45-44.154"/>
	<path fill="none" stroke="#FF0000" d="M272.873,530.657c-4.899-8.079-9.247-16.633-12.975-25.632"/>
	<path fill="none" stroke="#FF0000" d="M300.443,565.791c-6.729-6.724-12.987-14.009-18.696-21.822"/>
	<path fill="none" stroke="#FF0000" d="M287.26,567.66c-13.672-14.821-25.269-31.969-34.132-51.172"/>
	<path fill="none" stroke="#FF0000" d="M254.895,542.669c-5.661-9.243-10.673-19.048-14.952-29.379"/>
	<path fill="none" stroke="#FF0000" d="M285.166,581.069c-7.72-7.714-14.884-16.089-21.396-25.087"/>
	<path fill="none" stroke="#FF0000" d="M271.972,582.949c-15.61-16.786-28.811-36.292-38.814-58.189"/>
	<path fill="none" stroke="#FF0000" d="M236.918,554.678c-6.424-10.405-12.101-21.459-16.932-33.121"/>
	<path fill="none" stroke="#FF0000" d="M269.889,596.346c-8.71-8.703-16.779-18.17-24.094-28.354"/>
	<path fill="none" stroke="#FF0000" d="M256.685,598.236c-17.551-18.749-32.356-40.611-43.494-65.205"/>
	<path fill="none" stroke="#FF0000" d="M218.947,566.689c-7.189-11.567-13.533-23.872-18.916-36.867"/>
	<path fill="none" stroke="#FF0000" d="M254.611,611.624c-9.701-9.693-18.674-20.251-26.789-31.622"/>
	<path fill="none" stroke="#FF0000" d="M241.4,613.521c-19.493-20.71-35.902-44.929-48.175-72.22"/>
	<path fill="none" stroke="#FF0000" d="M239.741,627.307c-10.847-10.793-20.862-22.58-29.891-35.297"/>
	<path fill="none" stroke="#FF0000" d="M200.975,578.697c-7.955-12.728-14.966-26.282-20.9-40.609"/>
	<path fill="none" stroke="#FF0000" d="M226.116,628.805c-21.436-22.668-39.451-49.244-52.855-79.235"/>
	<path fill="none" stroke="#FF0000" d="M224.111,642.234c-11.702-11.687-22.501-24.448-32.232-38.216"/>
	<path fill="none" stroke="#FF0000" d="M183.005,590.705c-8.721-13.888-16.399-28.691-22.885-44.35"/>
	<path fill="none" stroke="#FF0000" d="M210.832,644.088c-23.381-24.626-43-53.558-57.535-86.249"/>
	<path fill="none" stroke="#FF0000" d="M208.779,657.456c-12.671-12.661-24.355-26.497-34.868-41.432"/>
	<path fill="none" stroke="#FF0000" d="M165.035,602.711c-9.488-15.047-17.834-31.1-24.872-48.091"/>
	<path fill="none" stroke="#FF0000" d="M195.702,659.531c-25.393-26.616-46.672-57.96-62.367-93.423"/>
	<path fill="none" stroke="#FF0000" d="M147.067,614.718c-10.256-16.206-19.269-33.508-26.859-51.831"/>
	<path fill="none" stroke="#FF0000" d="M193.501,672.734c-13.661-13.65-26.248-28.579-37.559-44.703"/>
	<path fill="none" stroke="#FF0000" d="M180.268,674.653c-27.272-28.537-50.103-62.183-66.894-100.277"/>
	<path fill="none" stroke="#FF0000" d="M391.143,513.167c-5.626-2.943-11.007-6.522-16.035-10.737"/>
	<path fill="none" stroke="#FF0000" d="M370.366,512.497c-3.044-2.411-5.982-5.022-8.794-7.835"/>
	<path fill="none" stroke="#FF0000" d="M394.917,526.805c-3.837-1.556-7.597-3.358-11.257-5.405"/>
	<path fill="none" stroke="#FF0000" d="M382.848,533.193c-8.15-4.084-15.904-9.23-23.056-15.436"/>
	<path fill="none" stroke="#FF0000" d="M358.332,530.507c-4.182-3.217-8.203-6.74-12.034-10.571"/>
	<path fill="none" stroke="#FF0000" d="M385.996,546.499c-4.906-2.03-9.708-4.393-14.369-7.089"/>
	<path fill="none" stroke="#FF0000" d="M374.562,553.197c-10.683-5.198-20.815-11.909-30.076-20.134"/>
	<path fill="none" stroke="#FF0000" d="M346.308,548.503c-5.324-4.013-10.433-8.444-15.283-13.294"/>
	<path fill="none" stroke="#FF0000" d="M377.728,566.46c-6.202-2.566-12.26-5.584-18.126-9.053"/>
	<path fill="none" stroke="#FF0000" d="M366.281,573.189c-13.221-6.295-25.733-14.571-37.092-24.83"/>
	<path fill="none" stroke="#FF0000" d="M334.289,566.491c-6.47-4.803-12.669-10.139-18.537-16.007"/>
	<path fill="none" stroke="#FF0000" d="M369.46,586.421c-7.496-3.102-14.811-6.777-21.876-11.027"/>
	<path fill="none" stroke="#FF0000" d="M358.003,593.174c-15.761-7.381-30.655-17.222-44.105-29.523"/>
	<path fill="none" stroke="#FF0000" d="M322.274,584.472c-7.618-5.59-14.908-11.828-21.796-18.716"/>
	<path fill="none" stroke="#FF0000" d="M361.191,606.382c-8.79-3.637-17.36-7.972-25.623-13.006"/>
	<path fill="none" stroke="#FF0000" d="M349.727,613.153c-18.303-8.461-35.58-19.866-51.117-34.215"/>
	<path fill="none" stroke="#FF0000" d="M310.262,602.45c-8.767-6.373-17.15-13.513-25.057-21.42"/>
	<path fill="none" stroke="#FF0000" d="M352.923,626.343c-10.084-4.172-19.908-9.169-29.368-14.989"/>
	<path fill="none" stroke="#FF0000" d="M341.453,633.129c-20.846-9.535-40.506-22.504-58.127-38.906"/>
	<path fill="none" stroke="#FF0000" d="M298.249,620.424c-9.917-7.155-19.392-15.195-28.318-24.12"/>
	<path fill="none" stroke="#FF0000" d="M344.655,646.304c-11.378-4.708-22.455-10.366-33.11-16.975"/>
	<path fill="none" stroke="#FF0000" d="M333.18,653.102c-23.39-10.606-45.434-25.138-65.137-43.597"/>
	<path fill="none" stroke="#FF0000" d="M286.242,638.399c-11.068-7.935-21.638-16.876-31.584-26.821"/>
	<path fill="none" stroke="#FF0000" d="M336.387,666.265c-12.671-5.243-25.002-11.564-36.851-18.963"/>
	<path fill="none" stroke="#FF0000" d="M324.907,673.073c-25.934-11.674-50.363-27.769-72.145-48.287"/>
	<path fill="none" stroke="#FF0000" d="M328.65,686.445c-14.152-5.82-27.915-12.877-41.123-21.172"/>
	<path fill="none" stroke="#FF0000" d="M274.233,656.37c-12.22-8.715-23.884-18.554-34.849-29.52"/>
	<path fill="none" stroke="#FF0000" d="M316.636,693.043c-28.479-12.74-55.293-30.399-79.154-52.977"/>
	<path fill="none" stroke="#FF0000" d="M319.923,706.217c-15.284-6.319-30.144-13.977-44.403-22.973"/>
	<path fill="none" stroke="#FF0000" d="M262.226,674.341c-13.372-9.493-26.131-20.232-38.115-32.216"/>
	<path fill="none" stroke="#FF0000" d="M308.365,713.012c-31.025-13.804-60.223-33.026-86.162-57.666"/>
	<path fill="none" stroke="#FF0000" d="M311.583,726.148c-16.552-6.848-32.641-15.16-48.069-24.935"/>
	<path fill="none" stroke="#FF0000" d="M250.219,692.31c-14.524-10.271-28.378-21.908-41.382-34.912"/>
	<path fill="none" stroke="#FF0000" d="M300.296,733.068c-33.646-14.873-65.3-35.688-93.371-62.445"/>
	<path fill="none" stroke="#FF0000" d="M238.213,710.279c-15.677-11.048-30.626-23.583-44.65-37.607"/>
	<path fill="none" stroke="#FF0000" d="M303.315,746.109c-17.845-7.383-35.187-16.359-51.807-26.927"/>
	<path fill="none" stroke="#FF0000" d="M291.823,752.946c-36.116-15.928-70.085-38.277-100.176-67.044"/>
	<path fill="none" stroke="#FF0000" d="M424.848,523.054c-6.324-0.566-12.665-1.814-18.923-3.784"/>
	<path fill="none" stroke="#FF0000" d="M405.397,530.386c-3.735-1.062-7.448-2.351-11.123-3.873"/>
	<path fill="none" stroke="#FF0000" d="M433.555,534.21c-4.14,0.031-8.304-0.195-12.468-0.686"/>
	<path fill="none" stroke="#FF0000" d="M424.848,544.73c-9.092-0.655-18.225-2.441-27.208-5.438"/>
	<path fill="none" stroke="#FF0000" d="M401.171,551.631c-5.094-1.372-10.158-3.088-15.163-5.161"/>
	<path fill="none" stroke="#FF0000" d="M432.848,555.818c-5.31,0.002-10.65-0.344-15.988-1.05"/>
	<path fill="none" stroke="#FF0000" d="M424.848,566.382c-11.859-0.714-23.788-3.037-35.492-7.092"/>
	<path fill="none" stroke="#FF0000" d="M396.949,572.858c-6.455-1.67-12.871-3.809-19.207-6.433"/>
	<path fill="none" stroke="#FF0000" d="M432.849,577.424c-6.711,0.003-13.464-0.467-20.21-1.428"/>
	<path fill="none" stroke="#FF0000" d="M424.848,588.022c-14.623-0.756-29.351-3.615-43.77-8.745"/>
	<path fill="none" stroke="#FF0000" d="M392.728,594.076c-7.816-1.962-15.585-4.519-23.252-7.695"/>
	<path fill="none" stroke="#FF0000" d="M432.849,599.03c-8.112,0.003-16.277-0.594-24.431-1.816"/>
	<path fill="none" stroke="#FF0000" d="M424.848,609.653c-17.386-0.788-34.912-4.18-52.046-10.397"/>
	<path fill="none" stroke="#FF0000" d="M388.509,615.287c-9.177-2.249-18.3-5.223-27.299-8.95"/>
	<path fill="none" stroke="#FF0000" d="M432.848,620.635c-9.513,0.004-19.089-0.722-28.65-2.21"/>
	<path fill="none" stroke="#FF0000" d="M424.848,631.279c-20.147-0.812-40.474-4.738-60.319-12.049"/>
	<path fill="none" stroke="#FF0000" d="M384.291,636.493c-10.539-2.533-21.016-5.922-31.347-10.201"/>
	<path fill="none" stroke="#FF0000" d="M432.848,642.241c-10.913,0.004-21.901-0.852-32.868-2.61"/>
	<path fill="none" stroke="#FF0000" d="M424.848,652.9c-22.908-0.832-46.035-5.29-68.591-13.701"/>
	<path fill="none" stroke="#FF0000" d="M380.071,657.696c-11.9-2.815-23.731-6.617-35.393-11.448"/>
	<path fill="none" stroke="#FF0000" d="M432.849,663.847c-12.313,0.005-24.713-0.984-37.086-3.012"/>
	<path fill="none" stroke="#FF0000" d="M424.848,674.519c-25.668-0.848-51.595-5.838-76.862-15.352"/>
	<path fill="none" stroke="#FF0000" d="M375.856,678.897c-13.263-3.096-26.449-7.311-39.444-12.693"/>
	<path fill="none" stroke="#FF0000" d="M432.848,685.452c-13.713,0.005-27.524-1.116-41.303-3.417"/>
	<path fill="none" stroke="#FF0000" d="M424.848,696.136c-28.427-0.86-57.156-6.383-85.132-17.003"/>
	<path fill="none" stroke="#FF0000" d="M433.423,707.057c-15.302,0.038-30.718-1.215-46.095-3.823"/>
	<path fill="none" stroke="#FF0000" d="M371.64,700.096c-14.625-3.375-29.167-8.002-43.493-13.936"/>
	<path fill="none" stroke="#FF0000" d="M424.848,717.751c-31.187-0.871-62.717-6.925-93.402-18.654"/>
	<path fill="none" stroke="#FF0000" d="M432.926,728.664c-16.538,0.011-33.198-1.377-49.814-4.232"/>
	<path fill="none" stroke="#FF0000" d="M367.423,721.293c-15.987-3.653-31.884-8.692-47.543-15.178"/>
	<path fill="none" stroke="#FF0000" d="M424.848,739.364c-33.946-0.88-68.277-7.466-101.671-20.304"/>
	<path fill="none" stroke="#FF0000" d="M432.849,750.269c-17.913,0.007-35.958-1.515-53.952-4.641"/>
	<path fill="none" stroke="#FF0000" d="M363.207,742.49c-17.349-3.93-34.602-9.38-51.593-16.418"/>
	<path fill="none" stroke="#FF0000" d="M425.069,760.982c-36.776-0.865-73.986-7.982-110.16-21.96"/>
	<path fill="none" stroke="#FF0000" d="M358.991,763.685c-18.711-4.207-37.319-10.068-55.642-17.658"/>
	<path fill="none" stroke="#FF0000" d="M432.849,771.875c-19.312,0.008-38.769-1.648-58.168-5.051"/>
	<path fill="none" stroke="#FF0000" d="M424.848,782.589c-39.463-0.895-79.398-8.542-118.208-23.605"/>
	<path fill="none" stroke="#FF0000" d="M459.771,519.29c-6.06,1.897-12.395,3.171-18.931,3.746"/>
	<path fill="none" stroke="#FF0000" d="M444.607,533.508c-3.857,0.448-7.781,0.679-11.758,0.679"/>
	<path fill="none" stroke="#FF0000" d="M472.084,526.265c-3.813,1.613-7.746,2.998-11.782,4.137"/>
	<path fill="none" stroke="#FF0000" d="M468.066,539.316c-8.651,2.875-17.772,4.719-27.218,5.388"/>
	<path fill="none" stroke="#FF0000" d="M448.833,554.752c-5.231,0.682-10.567,1.034-15.984,1.034"/>
	<path fill="none" stroke="#FF0000" d="M479.701,546.499c-4.905,2.034-9.971,3.758-15.173,5.148"/>
	<path fill="none" stroke="#FF0000" d="M476.352,559.32c-11.23,3.879-23.14,6.298-35.504,7.03"/>
	<path fill="none" stroke="#FF0000" d="M453.055,575.98c-6.602,0.927-13.348,1.407-20.207,1.407"/>
	<path fill="none" stroke="#FF0000" d="M487.969,566.46c-6.2,2.571-12.618,4.721-19.218,6.415"/>
	<path fill="none" stroke="#FF0000" d="M484.634,579.312c-13.8,4.897-28.5,7.893-43.785,8.671"/>
	<path fill="none" stroke="#FF0000" d="M457.275,597.197c-7.971,1.179-16.128,1.789-24.427,1.789"/>
	<path fill="none" stroke="#FF0000" d="M496.238,586.421c-7.494,3.107-15.265,5.681-23.266,7.672"/>
	<path fill="none" stroke="#FF0000" d="M492.911,599.297c-16.364,5.925-33.855,9.499-52.063,10.311"/>
	<path fill="none" stroke="#FF0000" d="M461.495,618.408c-9.339,1.434-18.906,2.178-28.646,2.178"/>
	<path fill="none" stroke="#FF0000" d="M504.506,606.382c-8.787,3.644-17.912,6.638-27.315,8.922"/>
	<path fill="none" stroke="#FF0000" d="M501.187,619.277c-18.925,6.959-39.206,11.111-60.339,11.951"/>
	<path fill="none" stroke="#FF0000" d="M465.713,639.615c-10.706,1.693-21.682,2.572-32.864,2.572"/>
	<path fill="none" stroke="#FF0000" d="M512.774,626.343c-10.081,4.18-20.56,7.594-31.365,10.167"/>
	<path fill="none" stroke="#FF0000" d="M509.461,639.252c-21.482,7.998-44.555,12.73-68.613,13.591"/>
	<path fill="none" stroke="#FF0000" d="M469.928,660.818c-12.071,1.953-24.457,2.968-37.079,2.968"/>
	<path fill="none" stroke="#FF0000" d="M521.042,646.304c-11.374,4.717-23.208,8.548-35.416,11.409"/>
	<path fill="none" stroke="#FF0000" d="M517.735,659.226c-24.038,9.04-49.902,14.351-76.886,15.231"/>
	<path fill="none" stroke="#FF0000" d="M474.147,682.019c-13.438,2.215-27.234,3.368-41.299,3.368"/>
	<path fill="none" stroke="#FF0000" d="M529.31,666.265c-12.667,5.253-25.856,9.502-39.467,12.649"/>
	<path fill="none" stroke="#FF0000" d="M526.007,679.197c-26.593,10.084-55.248,15.976-85.159,16.87"/>
	<path fill="none" stroke="#FF0000" d="M538.109,686.005c-14.122,5.891-28.844,10.633-44.049,14.108"/>
	<path fill="none" stroke="#FF0000" d="M478.364,703.218c-14.803,2.479-30.009,3.769-45.516,3.769"/>
	<path fill="none" stroke="#FF0000" d="M534.279,699.166c-29.146,11.13-60.593,17.603-93.43,18.51"/>
	<path fill="none" stroke="#FF0000" d="M545.918,706.157c-15.275,6.339-31.198,11.432-47.642,15.153"/>
	<path fill="none" stroke="#FF0000" d="M482.581,724.415c-16.168,2.743-32.783,4.171-49.732,4.171"/>
	<path fill="none" stroke="#FF0000" d="M542.55,719.135c-31.699,12.177-65.937,19.231-101.702,20.149"/>
	<path fill="none" stroke="#FF0000" d="M554.114,726.148c-16.546,6.861-33.8,12.361-51.622,16.359"/>
	<path fill="none" stroke="#FF0000" d="M486.797,745.611c-17.533,3.008-35.557,4.575-53.948,4.575"/>
	<path fill="none" stroke="#FF0000" d="M551.027,739.022c-34.308,13.275-71.409,20.939-110.179,21.868"/>
	<path fill="none" stroke="#FF0000" d="M491.013,766.807c-18.897,3.273-38.331,4.98-58.164,4.98"/>
	<path fill="none" stroke="#FF0000" d="M562.382,746.109c-17.839,7.398-36.448,13.313-55.674,17.593"/>
	<path fill="none" stroke="#FF0000" d="M559.091,759.069c-36.801,14.275-76.623,22.492-118.243,23.428"/>
	<path fill="none" stroke="#FF0000" d="M490.596,502.448c-4.872,4.072-10.238,7.673-16.056,10.705"/>
	<path fill="none" stroke="#FF0000" d="M482.026,521.387c-3.392,1.89-6.929,3.604-10.603,5.126"/>
	<path fill="none" stroke="#FF0000" d="M504.641,504.18c-2.906,2.949-6.009,5.734-9.302,8.331"/>
	<path fill="none" stroke="#FF0000" d="M505.923,517.775c-6.892,5.966-14.613,11.161-23.084,15.394"/>
	<path fill="none" stroke="#FF0000" d="M494.061,539.397c-4.572,2.632-9.367,4.999-14.372,7.072"/>
	<path fill="none" stroke="#FF0000" d="M519.421,519.959c-3.753,3.756-7.773,7.288-12.048,10.563"/>
	<path fill="none" stroke="#FF0000" d="M521.234,533.086c-8.891,7.881-18.969,14.673-30.111,20.082"/>
	<path fill="none" stroke="#FF0000" d="M506.085,557.393c-5.745,3.383-11.794,6.408-18.13,9.032"/>
	<path fill="none" stroke="#FF0000" d="M534.699,535.236c-4.744,4.748-9.85,9.19-15.301,13.281"/>
	<path fill="none" stroke="#FF0000" d="M536.535,548.387c-10.875,9.805-23.31,18.198-37.134,24.767"/>
	<path fill="none" stroke="#FF0000" d="M518.104,575.38c-6.914,4.139-14.216,7.825-21.883,11.001"/>
	<path fill="none" stroke="#FF0000" d="M549.976,550.514c-5.734,5.739-11.929,11.09-18.559,15.991"/>
	<path fill="none" stroke="#FF0000" d="M551.831,563.683c-12.851,11.736-27.643,21.731-44.154,29.45"/>
	<path fill="none" stroke="#FF0000" d="M530.119,593.362c-8.079,4.899-16.633,9.247-25.632,12.975"/>
	<path fill="none" stroke="#FF0000" d="M565.254,565.791c-6.724,6.729-14.009,12.987-21.822,18.696"/>
	<path fill="none" stroke="#FF0000" d="M567.122,578.974c-14.821,13.672-31.969,25.269-51.172,34.132"/>
	<path fill="none" stroke="#FF0000" d="M542.131,611.34c-9.243,5.661-19.048,10.673-29.379,14.952"/>
	<path fill="none" stroke="#FF0000" d="M580.531,581.069c-7.714,7.72-16.089,14.884-25.087,21.396"/>
	<path fill="none" stroke="#FF0000" d="M582.411,594.263c-16.786,15.61-36.292,28.811-58.189,38.814"/>
	<path fill="none" stroke="#FF0000" d="M554.14,629.316c-10.405,6.424-21.459,12.101-33.121,16.932"/>
	<path fill="none" stroke="#FF0000" d="M595.809,596.346c-8.703,8.71-18.17,16.779-28.354,24.094"/>
	<path fill="none" stroke="#FF0000" d="M597.698,609.55c-18.749,17.551-40.611,32.356-65.205,43.494"/>
	<path fill="none" stroke="#FF0000" d="M566.151,647.288c-11.567,7.189-23.872,13.533-36.867,18.916"/>
	<path fill="none" stroke="#FF0000" d="M611.086,611.624c-9.693,9.701-20.251,18.674-31.622,26.789"/>
	<path fill="none" stroke="#FF0000" d="M612.983,624.835c-20.71,19.493-44.929,35.902-72.22,48.175"/>
	<path fill="none" stroke="#FF0000" d="M626.769,626.494c-10.793,10.847-22.58,20.862-35.297,29.891"/>
	<path fill="none" stroke="#FF0000" d="M578.159,665.26c-12.728,7.955-26.282,14.966-40.609,20.9"/>
	<path fill="none" stroke="#FF0000" d="M628.267,640.119c-22.668,21.436-49.244,39.451-79.235,52.855"/>
	<path fill="none" stroke="#FF0000" d="M641.696,642.124c-11.687,11.702-24.448,22.501-38.216,32.232"/>
	<path fill="none" stroke="#FF0000" d="M590.167,683.23c-13.888,8.721-28.691,16.399-44.35,22.885"/>
	<path fill="none" stroke="#FF0000" d="M643.551,655.402c-24.626,23.381-53.558,43-86.249,57.535"/>
	<path fill="none" stroke="#FF0000" d="M656.919,657.456c-12.661,12.671-26.497,24.355-41.432,34.868"/>
	<path fill="none" stroke="#FF0000" d="M602.174,701.2c-15.047,9.488-31.1,17.834-48.091,24.872"/>
	<path fill="none" stroke="#FF0000" d="M658.993,670.532c-26.616,25.393-57.96,46.672-93.423,62.367"/>
	<path fill="none" stroke="#FF0000" d="M614.18,719.168c-16.206,10.256-33.508,19.269-51.831,26.859"/>
	<path fill="none" stroke="#FF0000" d="M672.196,672.734c-13.65,13.661-28.579,26.248-44.703,37.559"/>
	<path fill="none" stroke="#FF0000" d="M674.115,685.967c-28.537,27.272-62.183,50.103-100.277,66.894"/>
	<path fill="none" stroke="#FF0000" d="M512.629,475.092c-2.943,5.626-6.522,11.007-10.737,16.035"/>
	<path fill="none" stroke="#FF0000" d="M511.959,495.869c-2.411,3.044-5.022,5.982-7.835,8.794"/>
	<path fill="none" stroke="#FF0000" d="M526.268,471.318c-1.556,3.837-3.358,7.597-5.405,11.257"/>
	<path fill="none" stroke="#FF0000" d="M532.655,483.387c-4.084,8.15-9.23,15.904-15.436,23.056"/>
	<path fill="none" stroke="#FF0000" d="M529.969,507.902c-3.217,4.182-6.74,8.203-10.571,12.034"/>
	<path fill="none" stroke="#FF0000" d="M545.961,480.239c-2.03,4.906-4.393,9.708-7.088,14.369"/>
	<path fill="none" stroke="#FF0000" d="M552.659,491.673c-5.198,10.683-11.909,20.815-20.134,30.076"/>
	<path fill="none" stroke="#FF0000" d="M547.965,519.927c-4.013,5.324-8.444,10.433-13.294,15.283"/>
	<path fill="none" stroke="#FF0000" d="M565.922,488.507c-2.566,6.202-5.584,12.26-9.053,18.126"/>
	<path fill="none" stroke="#FF0000" d="M572.651,499.954c-6.295,13.221-14.571,25.733-24.83,37.092"/>
	<path fill="none" stroke="#FF0000" d="M565.953,531.946c-4.803,6.47-10.139,12.669-16.007,18.538"/>
	<path fill="none" stroke="#FF0000" d="M585.883,496.775c-3.102,7.496-6.777,14.811-11.027,21.876"/>
	<path fill="none" stroke="#FF0000" d="M592.636,508.232c-7.381,15.761-17.222,30.655-29.523,44.105"/>
	<path fill="none" stroke="#FF0000" d="M583.935,543.961c-5.59,7.618-11.828,14.908-18.716,21.796"/>
	<path fill="none" stroke="#FF0000" d="M605.844,505.043c-3.637,8.79-7.972,17.36-13.006,25.623"/>
	<path fill="none" stroke="#FF0000" d="M612.615,516.508c-8.461,18.303-19.866,35.58-34.215,51.117"/>
	<path fill="none" stroke="#FF0000" d="M601.913,555.973c-6.373,8.767-13.513,17.15-21.42,25.057"/>
	<path fill="none" stroke="#FF0000" d="M625.805,513.312c-4.172,10.084-9.169,19.908-14.989,29.368"/>
	<path fill="none" stroke="#FF0000" d="M632.591,524.782c-9.535,20.846-22.504,40.506-38.906,58.127"/>
	<path fill="none" stroke="#FF0000" d="M619.886,567.986c-7.155,9.917-15.195,19.392-24.12,28.318"/>
	<path fill="none" stroke="#FF0000" d="M645.766,521.58c-4.708,11.378-10.366,22.455-16.975,33.11"/>
	<path fill="none" stroke="#FF0000" d="M652.564,533.055c-10.606,23.39-25.138,45.434-43.597,65.137"/>
	<path fill="none" stroke="#FF0000" d="M637.861,579.993c-7.935,11.068-16.876,21.638-26.821,31.584"/>
	<path fill="none" stroke="#FF0000" d="M665.727,529.848c-5.243,12.671-11.564,25.002-18.963,36.851"/>
	<path fill="none" stroke="#FF0000" d="M672.536,541.328c-11.674,25.934-27.769,50.363-48.287,72.145"/>
	<path fill="none" stroke="#FF0000" d="M685.907,537.584c-5.82,14.152-12.878,27.915-21.172,41.123"/>
	<path fill="none" stroke="#FF0000" d="M655.832,592.001c-8.715,12.22-18.554,23.884-29.52,34.849"/>
	<path fill="none" stroke="#FF0000" d="M692.505,549.599c-12.74,28.479-30.399,55.293-52.977,79.154"/>
	<path fill="none" stroke="#FF0000" d="M705.679,546.312c-6.319,15.284-13.976,30.144-22.973,44.403"/>
	<path fill="none" stroke="#FF0000" d="M673.803,604.009c-9.493,13.372-20.232,26.131-32.216,38.115"/>
	<path fill="none" stroke="#FF0000" d="M712.474,557.87c-13.804,31.025-33.026,60.223-57.666,86.162"/>
	<path fill="none" stroke="#FF0000" d="M725.61,554.652c-6.848,16.552-15.16,32.641-24.935,48.069"/>
	<path fill="none" stroke="#FF0000" d="M691.772,616.016c-10.27,14.524-21.908,28.378-34.912,41.382"/>
	<path fill="none" stroke="#FF0000" d="M732.531,565.939c-14.873,33.646-35.688,65.3-62.445,93.371"/>
	<path fill="none" stroke="#FF0000" d="M709.741,628.022c-11.048,15.677-23.583,30.626-37.607,44.65"/>
	<path fill="none" stroke="#FF0000" d="M745.571,562.92c-7.383,17.845-16.359,35.187-26.927,51.807"/>
	<path fill="none" stroke="#FF0000" d="M752.408,574.412c-15.928,36.116-38.277,70.085-67.044,100.176"/>
	<path fill="none" stroke="#FF0000" d="M522.516,441.387c-0.566,6.324-1.814,12.665-3.784,18.923"/>
	<path fill="none" stroke="#FF0000" d="M529.848,460.838c-1.062,3.735-2.351,7.448-3.873,11.123"/>
	<path fill="none" stroke="#FF0000" d="M533.672,432.68c0.031,4.14-0.195,8.304-0.686,12.468"/>
	<path fill="none" stroke="#FF0000" d="M544.192,441.387c-0.655,9.092-2.441,18.225-5.438,27.208"/>
	<path fill="none" stroke="#FF0000" d="M551.093,465.064c-1.372,5.094-3.088,10.158-5.161,15.163"/>
	<path fill="none" stroke="#FF0000" d="M555.281,433.386c0.002,5.31-0.344,10.65-1.05,15.988"/>
	<path fill="none" stroke="#FF0000" d="M565.844,441.387c-0.714,11.859-3.037,23.788-7.092,35.492"/>
	<path fill="none" stroke="#FF0000" d="M572.32,469.286c-1.67,6.455-3.809,12.871-6.433,19.207"/>
	<path fill="none" stroke="#FF0000" d="M576.886,433.386c0.003,6.711-0.467,13.464-1.428,20.21"/>
	<path fill="none" stroke="#FF0000" d="M587.484,441.387c-0.756,14.623-3.615,29.351-8.745,43.77"/>
	<path fill="none" stroke="#FF0000" d="M593.538,473.507c-1.962,7.816-4.519,15.585-7.695,23.252"/>
	<path fill="none" stroke="#FF0000" d="M598.492,433.386c0.003,8.112-0.594,16.277-1.816,24.431"/>
	<path fill="none" stroke="#FF0000" d="M609.115,441.387c-0.788,17.386-4.18,34.912-10.397,52.046"/>
	<path fill="none" stroke="#FF0000" d="M614.749,477.726c-2.249,9.177-5.223,18.3-8.95,27.299"/>
	<path fill="none" stroke="#FF0000" d="M620.097,433.386c0.004,9.513-0.722,19.089-2.21,28.65"/>
	<path fill="none" stroke="#FF0000" d="M630.741,441.387c-0.812,20.147-4.738,40.474-12.049,60.319"/>
	<path fill="none" stroke="#FF0000" d="M635.955,481.944c-2.533,10.539-5.922,21.016-10.201,31.347"/>
	<path fill="none" stroke="#FF0000" d="M641.703,433.386c0.004,10.913-0.852,21.901-2.61,32.868"/>
	<path fill="none" stroke="#FF0000" d="M652.362,441.387c-0.832,22.908-5.29,46.035-13.701,68.591"/>
	<path fill="none" stroke="#FF0000" d="M657.158,486.164c-2.815,11.9-6.617,23.731-11.448,35.393"/>
	<path fill="none" stroke="#FF0000" d="M663.309,433.386c0.005,12.313-0.984,24.713-3.012,37.086"/>
	<path fill="none" stroke="#FF0000" d="M673.981,441.387c-0.848,25.668-5.838,51.595-15.352,76.862"/>
	<path fill="none" stroke="#FF0000" d="M678.359,490.379c-3.096,13.263-7.311,26.449-12.693,39.444"/>
	<path fill="none" stroke="#FF0000" d="M684.914,433.386c0.005,13.713-1.116,27.524-3.417,41.303"/>
	<path fill="none" stroke="#FF0000" d="M695.598,441.387c-0.86,28.427-6.383,57.156-17.003,85.132"/>
	<path fill="none" stroke="#FF0000" d="M706.519,432.811c0.038,15.302-1.215,30.718-3.823,46.095"/>
	<path fill="none" stroke="#FF0000" d="M699.558,494.595c-3.375,14.625-8.002,29.167-13.936,43.493"/>
	<path fill="none" stroke="#FF0000" d="M717.213,441.387c-0.871,31.187-6.925,62.717-18.654,93.402"/>
	<path fill="none" stroke="#FF0000" d="M728.126,433.308c0.011,16.538-1.377,33.198-4.232,49.814"/>
	<path fill="none" stroke="#FF0000" d="M720.756,498.812c-3.653,15.987-8.692,31.884-15.178,47.543"/>
	<path fill="none" stroke="#FF0000" d="M738.826,441.387c-0.88,33.946-7.466,68.277-20.304,101.671"/>
	<path fill="none" stroke="#FF0000" d="M749.731,433.386c0.007,17.913-1.515,35.958-4.641,53.952"/>
	<path fill="none" stroke="#FF0000" d="M741.952,503.028c-3.93,17.349-9.38,34.602-16.418,51.593"/>
	<path fill="none" stroke="#FF0000" d="M760.444,441.166c-0.865,36.776-7.982,73.986-21.96,110.16"/>
	<path fill="none" stroke="#FF0000" d="M763.147,507.244c-4.207,18.711-10.068,37.319-17.658,55.643"/>
	<path fill="none" stroke="#FF0000" d="M771.337,433.386c0.008,19.312-1.648,38.769-5.052,58.168"/>
	<path fill="none" stroke="#FF0000" d="M782.051,441.387c-0.895,39.463-8.542,79.398-23.605,118.208"/>
	<g>
	</g>
	<g>
	</g>
	<g>
	</g>
	<g>
	</g>
	<g>
	</g>
	<g>
	</g>
</g>
</svg>
