<?xml version="1.0" encoding="utf-8"?>
<!-- Generator: Adobe Illustrator 22.1.0, SVG Export Plug-In . SVG Version: 6.00 Build 0)  -->
<svg version="1.1" xmlns="http://www.w3.org/2000/svg" xmlns:xlink="http://www.w3.org/1999/xlink" x="0px" y="0px" width="1440px"
	 height="864px" viewBox="0 0 1440 864" style="enable-background:new 0 0 1440 864;" xml:space="preserve">
<style type="text/css">
	.st0{fill:none;stroke:#FF0000;}
	.st1{fill:none;stroke:#00FF00;}
	.st2{fill:none;stroke:#000000;}
	.st3{display:none;}
	.st4{display:inline;fill:none;stroke:#0064FF;}
	.st5{display:inline;fill:none;stroke:#000000;}
	.st6{display:inline;fill:none;stroke:#FF0000;}
</style>
<g id="Layer_1">
	<circle class="st0" cx="432.8" cy="433.4" r="360"/>
	<circle class="st1" cx="432.8" cy="433.4" r="54"/>
	<path class="st2" d="M432.8,343.4c43.3,0,79.5,30.6,88.1,71.4"/>
	<path class="st2" d="M342.8,433.4c0-43.5,30.9-79.8,71.9-88.2"/>
	<path class="st2" d="M432.8,523.4c-43.8,0-80.4-31.4-88.4-72.9"/>
	<path class="st2" d="M522.8,433.4c0,43.5-30.9,79.8-71.9,88.2"/>
	<path class="st2" d="M432.8,307.4c63.1,0,115.4,46.4,124.6,107"/>
	<path class="st2" d="M306.8,433.4c0-63.5,46.9-115.9,107.9-124.7"/>
	<path class="st2" d="M432.8,559.4c-63.8,0-116.5-47.4-124.8-108.8"/>
	<path class="st2" d="M558.8,433.4c0,63.5-46.9,115.9-107.9,124.7"/>
	<path class="st2" d="M432.8,271.4c83.1,0,151.5,62.5,160.9,143"/>
	<path class="st2" d="M270.8,433.4c0-83.4,63-152.1,144.1-161"/>
	<path class="st2" d="M432.8,595.4c-83.7,0-152.5-63.4-161.1-144.8"/>
	<path class="st2" d="M594.8,433.4c0,83.4-63,152.1-144,161"/>
	<path class="st2" d="M432.8,235.4c102.5,0,186.8,77.9,197,177.8"/>
	<path class="st2" d="M234.8,433.4c0-103.3,79.1-188.1,180-197.2"/>
	<path class="st2" d="M432.8,631.4c-103.6,0-188.6-79.5-197.3-180.9"/>
	<path class="st2" d="M630.8,433.4c0,103.3-79,188.1-179.9,197.2"/>
	<path class="st2" d="M432.8,199.4c121.2,0,220.8,92.1,232.8,210.1"/>
	<path class="st2" d="M198.8,433.4c0-123.2,95.1-224.1,215.9-233.3"/>
	<path class="st2" d="M432.8,667.4c-123.5,0-224.6-95.6-233.4-216.8"/>
	<path class="st2" d="M666.8,433.4c0,123.2-95.1,224.1-215.9,233.3"/>
	<path class="st2" d="M432.8,163.4c142.7,0,259.6,110.8,269.3,251"/>
	<path class="st2" d="M162.8,433.4c0-143,111.2-260.1,251.9-269.4"/>
	<path class="st2" d="M432.8,703.4c-143.4,0-260.6-111.7-269.5-252.9"/>
	<path class="st2" d="M702.8,433.4c0,143.1-111.2,260.1-252,269.4"/>
	<path class="st2" d="M432.8,127.4c162.6,0,295.6,126.9,305.4,287"/>
	<path class="st2" d="M126.8,433.4c0-162.9,127.3-296.1,287.9-305.5"/>
	<path class="st2" d="M432.8,739.4c-163.2,0-296.6-127.8-305.5-288.9"/>
	<path class="st2" d="M738.8,433.4c0,162.9-127.4,296.1-288,305.5"/>
	<path class="st2" d="M432.8,91.4c182.5,0,331.6,143,341.5,323"/>
	<path class="st2" d="M90.8,433.4c0-182.8,143.5-332.1,324-341.5"/>
	<path class="st2" d="M432.8,775.4c-183.1,0-332.6-143.9-341.6-324.9"/>
	<path class="st2" d="M774.8,433.4c0,182.8-143.5,332.1-324,341.5"/>
	<path class="st2" d="M450.9,363.7c31,8,54,36.2,54,69.7"/>
	<path class="st2" d="M363.4,414.4c8.3-30.6,36.3-53,69.5-53"/>
	<path class="st2" d="M414.8,503.1c-31-8-53.9-36.2-53.9-69.7"/>
	<path class="st2" d="M503.4,447.9c-6.7,32.8-35.7,57.5-70.5,57.5"/>
	<path class="st2" d="M450.9,326.9c51,8.6,89.9,53,89.9,106.5"/>
	<path class="st2" d="M326.5,414.4c9-50.6,53.2-89,106.3-89"/>
	<path class="st2" d="M414.8,539.9c-51-8.6-89.9-53-89.9-106.5"/>
	<path class="st2" d="M539.5,450.5c-8.2,51.5-52.8,90.8-106.6,90.8"/>
	<path class="st2" d="M450.9,290.5c71,8.9,126,69.5,126,142.9"/>
	<path class="st2" d="M290,414.8c9.1-70.8,69.6-125.4,142.8-125.4"/>
	<path class="st2" d="M414.8,576.3c-71-8.9-125.9-69.5-125.9-142.9"/>
	<path class="st2" d="M576.1,448.1c-7.4,72.6-68.7,129.3-143.3,129.3"/>
	<path class="st2" d="M450.9,254.3c90.9,9.1,162,85.8,162,179.1"/>
	<path class="st2" d="M253.8,415c9.2-90.8,85.9-161.6,179.1-161.6"/>
	<path class="st2" d="M414.8,612.5c-90.9-9.1-161.9-85.8-161.9-179.1"/>
	<path class="st2" d="M612,450.5c-8.6,91.4-85.6,162.8-179.2,162.8"/>
	<path class="st2" d="M450.9,218.1c110.8,9.2,197.9,102,197.9,215.3"/>
	<path class="st2" d="M217.7,414.4c9.6-110.4,102.3-197,215.2-197"/>
	<path class="st2" d="M414.8,648.6c-110.8-9.2-197.9-102-197.9-215.3"/>
	<path class="st2" d="M648.2,450.5c-8.7,111.3-101.8,198.8-215.3,198.8"/>
	<path class="st2" d="M450.9,182c130.7,9.3,233.9,118.3,233.9,251.4"/>
	<path class="st2" d="M181.6,414.4c9.7-130.3,118.5-233,251.3-233"/>
	<path class="st2" d="M414.8,684.7C284,675.5,180.8,566.5,180.8,433.4"/>
	<path class="st2" d="M684.3,450.5c-8.8,131.2-118,234.8-251.4,234.8"/>
	<path class="st2" d="M450.9,145.9c144.4,8.9,259.9,124.2,269.3,268.5"/>
	<path class="st2" d="M145.5,414.4c9.8-150.2,134.7-269,287.4-269"/>
	<path class="st2" d="M414.8,720.8c-150.6-9.3-269.9-134.5-269.9-287.4"/>
	<path class="st2" d="M720.3,450.5c-8.9,151.1-134.2,270.9-287.5,270.9"/>
	<path class="st2" d="M720.2,414.4c0.4,6.3,0.6,12.6,0.6,19"/>
	<path class="st2" d="M109.4,414.4c9.8-170.1,150.9-305,323.5-305"/>
	<path class="st2" d="M414.8,756.9c-170.5-9.4-305.9-150.6-305.9-323.5"/>
	<path class="st2" d="M756.4,450.5c-8.9,171-150.4,306.9-323.6,306.9"/>
	<path class="st2" d="M450.9,109.9c170.5,9.4,306,150.6,306,323.5"/>
	<line class="st2" x1="774.8" y1="433.4" x2="756.8" y2="433.4"/>
	<line class="st2" x1="432.8" y1="91.4" x2="432.8" y2="109.4"/>
	<line class="st2" x1="432.8" y1="757.4" x2="432.8" y2="775.4"/>
	<line class="st2" x1="108.8" y1="433.4" x2="90.8" y2="433.4"/>
	<line class="st2" x1="738.8" y1="433.4" x2="720.8" y2="433.4"/>
	<line class="st2" x1="702.8" y1="433.4" x2="684.8" y2="433.4"/>
	<line class="st2" x1="666.8" y1="433.4" x2="648.8" y2="433.4"/>
	<line class="st2" x1="630.8" y1="433.4" x2="612.8" y2="433.4"/>
	<line class="st2" x1="594.8" y1="433.4" x2="576.8" y2="433.4"/>
	<line class="st2" x1="558.8" y1="433.4" x2="540.8" y2="433.4"/>
	<line class="st2" x1="522.8" y1="433.4" x2="504.8" y2="433.4"/>
	<line class="st2" x1="360.8" y1="433.4" x2="342.8" y2="433.4"/>
	<line class="st2" x1="324.8" y1="433.4" x2="306.8" y2="433.4"/>
	<line class="st2" x1="288.8" y1="433.4" x2="270.8" y2="433.4"/>
	<line class="st2" x1="252.8" y1="433.4" x2="234.8" y2="433.4"/>
	<line class="st2" x1="216.8" y1="433.4" x2="198.8" y2="433.4"/>
	<line class="st2" x1="180.8" y1="433.4" x2="162.8" y2="433.4"/>
	<line class="st2" x1="144.8" y1="433.4" x2="126.8" y2="433.4"/>
	<line class="st2" x1="432.8" y1="127.4" x2="432.8" y2="145.4"/>
	<line class="st2" x1="432.8" y1="163.4" x2="432.8" y2="181.4"/>
	<line class="st2" x1="432.8" y1="199.4" x2="432.8" y2="217.4"/>
	<line class="st2" x1="432.8" y1="235.4" x2="432.8" y2="253.4"/>
	<line class="st2" x1="432.8" y1="271.4" x2="432.8" y2="289.4"/>
	<line class="st2" x1="432.8" y1="307.4" x2="432.8" y2="325.4"/>
	<line class="st2" x1="432.8" y1="343.4" x2="432.8" y2="361.4"/>
	<line class="st2" x1="432.8" y1="739.4" x2="432.8" y2="721.4"/>
	<line class="st2" x1="432.8" y1="703.4" x2="432.8" y2="685.4"/>
	<line class="st2" x1="432.8" y1="667.4" x2="432.8" y2="649.4"/>
	<line class="st2" x1="432.8" y1="631.4" x2="432.8" y2="613.4"/>
	<line class="st2" x1="432.8" y1="595.4" x2="432.8" y2="577.4"/>
	<line class="st2" x1="432.8" y1="559.4" x2="432.8" y2="541.4"/>
	<line class="st2" x1="432.8" y1="523.4" x2="432.8" y2="505.4"/>
</g>
<g id="Layer_2" class="st3">
	<rect x="41.3" y="414.4" class="st4" width="783" height="36.1"/>
	
		<rect x="41.3" y="414.4" transform="matrix(4.489659e-11 -1 1 4.489659e-11 0.377 865.3199)" class="st4" width="783" height="36.1"/>
	<line class="st5" x1="41.3" y1="433.4" x2="824.3" y2="433.4"/>
	<line class="st5" x1="432.8" y1="824.9" x2="432.8" y2="41.9"/>
	<path class="st6" d=""/>
</g>
</svg>
