<?xml version="1.0" encoding="utf-8"?>
<!-- Generator: Adobe Illustrator 24.3.0, SVG Export Plug-In . SVG Version: 6.00 Build 0)  -->
<svg version="1.1" id="Layer_1" xmlns="http://www.w3.org/2000/svg" xmlns:xlink="http://www.w3.org/1999/xlink" x="0px" y="0px"
	 viewBox="0 0 1404 792" style="enable-background:new 0 0 1404 792;" xml:space="preserve">
<style type="text/css">
	.st0{fill:none;stroke:#000000;stroke-width:2;stroke-linecap:round;stroke-linejoin:round;}
	.st1{fill:none;stroke:#000000;stroke-width:2;stroke-linecap:round;stroke-linejoin:round;stroke-dasharray:3.0176,3.0176;}
	.st2{fill:none;stroke:#000000;stroke-width:2;stroke-linecap:round;stroke-linejoin:round;stroke-miterlimit:10;}
	.st3{fill:none;stroke:#000000;stroke-width:2;stroke-linecap:round;stroke-linejoin:round;stroke-dasharray:3.1043,3.1043;}
	.st4{fill:none;stroke:#000000;stroke-width:2;stroke-linecap:round;stroke-linejoin:round;stroke-dasharray:2.9828,2.9828;}
	.st5{fill:none;stroke:#000000;stroke-width:2;stroke-linecap:round;stroke-linejoin:round;stroke-dasharray:3.1349,3.1349;}
	.st6{fill:none;stroke:#000000;stroke-width:2;stroke-linecap:round;stroke-linejoin:round;stroke-dasharray:2.914,2.914;}
	.st7{fill:none;stroke:#000000;stroke-width:2;stroke-linecap:round;stroke-linejoin:round;stroke-dasharray:3.0395,3.0395;}
	.st8{fill:none;stroke:#000000;stroke-width:2;stroke-linecap:round;stroke-linejoin:round;stroke-dasharray:3.0178,3.0178;}
	.st9{fill:none;stroke:#000000;stroke-width:2;stroke-linecap:round;stroke-linejoin:round;stroke-dasharray:3.039,3.039;}
	
		.st10{fill:none;stroke:#FF0000;stroke-width:2;stroke-linecap:round;stroke-linejoin:round;stroke-miterlimit:10;stroke-dasharray:3,3;}
</style>
<g>
	<g>
		<line class="st0" x1="240.98" y1="265.35" x2="240.98" y2="266.85"/>
		<line class="st1" x1="240.98" y1="269.87" x2="240.98" y2="612.37"/>
		<line class="st0" x1="240.98" y1="613.88" x2="240.98" y2="615.38"/>
	</g>
</g>
<line class="st2" x1="240.98" y1="440.37" x2="262.86" y2="418.49"/>
<line class="st2" x1="262.86" y1="462.24" x2="240.98" y2="440.37"/>
<line class="st2" x1="306.61" y1="462.24" x2="328.49" y2="440.37"/>
<line class="st2" x1="306.61" y1="418.49" x2="328.49" y2="440.37"/>
<line class="st2" x1="262.86" y1="418.49" x2="306.61" y2="418.49"/>
<line class="st2" x1="262.86" y1="462.24" x2="306.61" y2="462.24"/>
<line class="st2" x1="350.36" y1="418.49" x2="328.49" y2="440.37"/>
<line class="st2" x1="350.36" y1="462.24" x2="328.49" y2="440.37"/>
<line class="st2" x1="306.61" y1="418.49" x2="350.36" y2="374.74"/>
<line class="st2" x1="350.36" y1="418.49" x2="306.61" y2="374.74"/>
<g>
	<g>
		<line class="st0" x1="262.86" y1="418.49" x2="263.92" y2="417.43"/>
		<line class="st3" x1="266.11" y1="415.23" x2="282.57" y2="398.77"/>
		<line class="st0" x1="283.67" y1="397.67" x2="284.73" y2="396.61"/>
	</g>
</g>
<line class="st2" x1="262.86" y1="265.35" x2="262.86" y2="418.49"/>
<line class="st2" x1="306.61" y1="265.35" x2="306.61" y2="374.74"/>
<g>
	<g>
		<line class="st0" x1="284.73" y1="396.61" x2="284.73" y2="395.11"/>
		<line class="st4" x1="284.73" y1="392.13" x2="284.73" y2="268.34"/>
		<line class="st0" x1="284.73" y1="266.85" x2="284.73" y2="265.35"/>
	</g>
</g>
<g>
	<g>
		<line class="st0" x1="328.49" y1="396.61" x2="326.99" y2="396.61"/>
		<line class="st5" x1="323.85" y1="396.61" x2="287.8" y2="396.61"/>
		<line class="st0" x1="286.23" y1="396.61" x2="284.73" y2="396.61"/>
	</g>
</g>
<line class="st2" x1="306.61" y1="374.74" x2="284.73" y2="396.61"/>
<line class="st2" x1="262.86" y1="462.24" x2="262.86" y2="615.38"/>
<line class="st2" x1="306.61" y1="462.24" x2="306.61" y2="615.38"/>
<g>
	<g>
		<line class="st0" x1="284.73" y1="484.12" x2="283.67" y2="483.06"/>
		<line class="st3" x1="281.48" y1="480.86" x2="265.01" y2="464.4"/>
		<line class="st0" x1="263.92" y1="463.3" x2="262.86" y2="462.24"/>
	</g>
</g>
<g>
	<g>
		<line class="st0" x1="306.61" y1="462.24" x2="305.55" y2="463.3"/>
		<line class="st3" x1="303.35" y1="465.5" x2="286.89" y2="481.96"/>
		<line class="st0" x1="285.79" y1="483.06" x2="284.73" y2="484.12"/>
	</g>
</g>
<line class="st2" x1="350.36" y1="374.74" x2="394.12" y2="374.74"/>
<line class="st2" x1="350.36" y1="418.49" x2="394.12" y2="418.49"/>
<line class="st2" x1="415.99" y1="396.61" x2="394.12" y2="374.74"/>
<line class="st2" x1="394.12" y1="418.49" x2="415.99" y2="396.61"/>
<g>
	<g>
		<line class="st0" x1="350.36" y1="374.74" x2="351.42" y2="373.67"/>
		<line class="st3" x1="353.62" y1="371.48" x2="370.08" y2="355.02"/>
		<line class="st0" x1="371.18" y1="353.92" x2="372.24" y2="352.86"/>
	</g>
</g>
<g>
	<g>
		<line class="st0" x1="394.12" y1="374.74" x2="393.06" y2="373.67"/>
		<line class="st3" x1="390.86" y1="371.48" x2="374.4" y2="355.02"/>
		<line class="st0" x1="373.3" y1="353.92" x2="372.24" y2="352.86"/>
	</g>
</g>
<line class="st2" x1="350.36" y1="265.35" x2="350.36" y2="374.74"/>
<line class="st2" x1="394.12" y1="265.35" x2="394.12" y2="374.74"/>
<g>
	<g>
		<line class="st0" x1="372.24" y1="352.86" x2="372.24" y2="351.36"/>
		<line class="st6" x1="372.24" y1="348.44" x2="372.24" y2="268.31"/>
		<line class="st0" x1="372.24" y1="266.85" x2="372.24" y2="265.35"/>
	</g>
</g>
<line class="st2" x1="350.36" y1="462.24" x2="350.36" y2="615.38"/>
<g>
	<g>
		<line class="st0" x1="240.98" y1="440.37" x2="242.48" y2="440.37"/>
		<line class="st7" x1="245.52" y1="440.37" x2="347.34" y2="440.37"/>
		<line class="st0" x1="348.86" y1="440.37" x2="350.36" y2="440.37"/>
	</g>
</g>
<g>
	<g>
		<line class="st0" x1="415.99" y1="265.35" x2="415.99" y2="266.85"/>
		<line class="st1" x1="415.99" y1="269.87" x2="415.99" y2="612.37"/>
		<line class="st0" x1="415.99" y1="613.88" x2="415.99" y2="615.38"/>
	</g>
</g>
<line class="st2" x1="350.36" y1="462.24" x2="372.24" y2="440.37"/>
<g>
	<g>
		<line class="st0" x1="394.12" y1="418.49" x2="393.06" y2="419.55"/>
		<line class="st3" x1="390.86" y1="421.74" x2="374.4" y2="438.21"/>
		<line class="st0" x1="373.3" y1="439.31" x2="372.24" y2="440.37"/>
	</g>
</g>
<g>
	<g>
		<line class="st0" x1="372.24" y1="440.37" x2="370.74" y2="440.37"/>
		<line class="st5" x1="367.6" y1="440.37" x2="331.55" y2="440.37"/>
		<line class="st0" x1="329.99" y1="440.37" x2="328.49" y2="440.37"/>
	</g>
</g>
<line class="st2" x1="394.12" y1="418.49" x2="394.12" y2="615.38"/>
<g>
	<g>
		<line class="st0" x1="284.73" y1="484.12" x2="284.73" y2="485.62"/>
		<line class="st4" x1="284.73" y1="488.6" x2="284.73" y2="612.39"/>
		<line class="st0" x1="284.73" y1="613.88" x2="284.73" y2="615.38"/>
	</g>
</g>
<g>
	<g>
		<line class="st0" x1="372.24" y1="440.37" x2="372.24" y2="441.87"/>
		<line class="st8" x1="372.24" y1="444.88" x2="372.24" y2="612.37"/>
		<line class="st0" x1="372.24" y1="613.88" x2="372.24" y2="615.38"/>
	</g>
</g>
<g>
	<g>
		<line class="st0" x1="415.99" y1="396.61" x2="414.49" y2="396.61"/>
		<line class="st6" x1="411.58" y1="396.61" x2="331.44" y2="396.61"/>
		<line class="st0" x1="329.99" y1="396.61" x2="328.49" y2="396.61"/>
	</g>
</g>
<g>
	<g>
		<line class="st0" x1="306.61" y1="462.24" x2="308.11" y2="462.24"/>
		<line class="st5" x1="311.24" y1="462.24" x2="347.29" y2="462.24"/>
		<line class="st0" x1="348.86" y1="462.24" x2="350.36" y2="462.24"/>
	</g>
</g>
<g>
	<g>
		<line class="st0" x1="306.61" y1="374.74" x2="308.11" y2="374.74"/>
		<line class="st5" x1="311.24" y1="374.74" x2="347.29" y2="374.74"/>
		<line class="st0" x1="348.86" y1="374.74" x2="350.36" y2="374.74"/>
	</g>
</g>
<g>
	<g>
		<line class="st0" x1="350.36" y1="418.49" x2="348.86" y2="418.49"/>
		<line class="st5" x1="345.73" y1="418.49" x2="309.68" y2="418.49"/>
		<line class="st0" x1="308.11" y1="418.49" x2="306.61" y2="418.49"/>
	</g>
</g>
<g>
	<g>
		<line class="st0" x1="415.99" y1="396.61" x2="417.49" y2="396.61"/>
		<line class="st5" x1="420.63" y1="396.61" x2="456.68" y2="396.61"/>
		<line class="st0" x1="458.25" y1="396.61" x2="459.75" y2="396.61"/>
	</g>
</g>
<g>
	<g>
		<line class="st0" x1="634.92" y1="265.35" x2="634.92" y2="266.85"/>
		<line class="st1" x1="634.92" y1="269.87" x2="634.92" y2="612.37"/>
		<line class="st0" x1="634.92" y1="613.88" x2="634.92" y2="615.38"/>
	</g>
</g>
<line class="st2" x1="634.92" y1="440.37" x2="613.05" y2="418.49"/>
<line class="st2" x1="613.05" y1="462.24" x2="634.92" y2="440.37"/>
<line class="st2" x1="569.29" y1="462.24" x2="547.42" y2="440.37"/>
<line class="st2" x1="569.29" y1="418.49" x2="547.42" y2="440.37"/>
<line class="st2" x1="613.05" y1="418.49" x2="569.29" y2="418.49"/>
<line class="st2" x1="613.05" y1="462.24" x2="569.29" y2="462.24"/>
<line class="st2" x1="525.54" y1="418.49" x2="547.42" y2="440.37"/>
<line class="st2" x1="525.54" y1="462.24" x2="547.42" y2="440.37"/>
<line class="st2" x1="569.29" y1="418.49" x2="525.54" y2="374.74"/>
<line class="st2" x1="525.54" y1="418.49" x2="569.29" y2="374.74"/>
<g>
	<g>
		<line class="st0" x1="613.05" y1="418.49" x2="611.99" y2="417.43"/>
		<line class="st3" x1="609.79" y1="415.23" x2="593.33" y2="398.77"/>
		<line class="st0" x1="592.23" y1="397.67" x2="591.17" y2="396.61"/>
	</g>
</g>
<line class="st2" x1="613.05" y1="265.35" x2="613.05" y2="418.49"/>
<line class="st2" x1="569.29" y1="265.35" x2="569.29" y2="374.74"/>
<g>
	<g>
		<line class="st0" x1="591.17" y1="396.61" x2="591.17" y2="395.11"/>
		<line class="st4" x1="591.17" y1="392.13" x2="591.17" y2="268.34"/>
		<line class="st0" x1="591.17" y1="266.85" x2="591.17" y2="265.35"/>
	</g>
</g>
<g>
	<g>
		<line class="st0" x1="547.42" y1="396.61" x2="548.92" y2="396.61"/>
		<line class="st5" x1="552.05" y1="396.61" x2="588.1" y2="396.61"/>
		<line class="st0" x1="589.67" y1="396.61" x2="591.17" y2="396.61"/>
	</g>
</g>
<line class="st2" x1="569.29" y1="374.74" x2="591.17" y2="396.61"/>
<line class="st2" x1="613.05" y1="462.24" x2="613.05" y2="615.38"/>
<line class="st2" x1="569.29" y1="462.24" x2="569.29" y2="615.38"/>
<g>
	<g>
		<line class="st0" x1="591.17" y1="484.12" x2="592.23" y2="483.06"/>
		<line class="st3" x1="594.43" y1="480.86" x2="610.89" y2="464.4"/>
		<line class="st0" x1="611.99" y1="463.3" x2="613.05" y2="462.24"/>
	</g>
</g>
<g>
	<g>
		<line class="st0" x1="569.29" y1="462.24" x2="570.35" y2="463.3"/>
		<line class="st3" x1="572.55" y1="465.5" x2="589.01" y2="481.96"/>
		<line class="st0" x1="590.11" y1="483.06" x2="591.17" y2="484.12"/>
	</g>
</g>
<line class="st2" x1="525.54" y1="374.74" x2="481.79" y2="374.74"/>
<line class="st2" x1="525.54" y1="418.49" x2="481.79" y2="418.49"/>
<line class="st2" x1="459.91" y1="396.61" x2="481.79" y2="374.74"/>
<line class="st2" x1="481.79" y1="418.49" x2="459.91" y2="396.61"/>
<g>
	<g>
		<line class="st0" x1="525.54" y1="374.74" x2="524.48" y2="373.67"/>
		<line class="st3" x1="522.28" y1="371.48" x2="505.82" y2="355.02"/>
		<line class="st0" x1="504.72" y1="353.92" x2="503.66" y2="352.86"/>
	</g>
</g>
<g>
	<g>
		<line class="st0" x1="481.79" y1="374.74" x2="482.85" y2="373.67"/>
		<line class="st3" x1="485.04" y1="371.48" x2="501.5" y2="355.02"/>
		<line class="st0" x1="502.6" y1="353.92" x2="503.66" y2="352.86"/>
	</g>
</g>
<line class="st2" x1="525.54" y1="265.35" x2="525.54" y2="374.74"/>
<line class="st2" x1="481.79" y1="265.35" x2="481.79" y2="374.74"/>
<g>
	<g>
		<line class="st0" x1="503.66" y1="352.86" x2="503.66" y2="351.36"/>
		<line class="st6" x1="503.66" y1="348.44" x2="503.66" y2="268.31"/>
		<line class="st0" x1="503.66" y1="266.85" x2="503.66" y2="265.35"/>
	</g>
</g>
<line class="st2" x1="525.54" y1="462.24" x2="525.54" y2="615.38"/>
<g>
	<g>
		<line class="st0" x1="459.91" y1="265.35" x2="459.91" y2="266.85"/>
		<line class="st1" x1="459.91" y1="269.87" x2="459.91" y2="612.37"/>
		<line class="st0" x1="459.91" y1="613.88" x2="459.91" y2="615.38"/>
	</g>
</g>
<line class="st2" x1="525.54" y1="462.24" x2="503.66" y2="440.37"/>
<g>
	<g>
		<line class="st0" x1="481.79" y1="418.49" x2="482.85" y2="419.55"/>
		<line class="st3" x1="485.04" y1="421.74" x2="501.5" y2="438.21"/>
		<line class="st0" x1="502.6" y1="439.31" x2="503.66" y2="440.37"/>
	</g>
</g>
<g>
	<g>
		<line class="st0" x1="503.66" y1="440.37" x2="505.16" y2="440.37"/>
		<line class="st5" x1="508.3" y1="440.37" x2="544.35" y2="440.37"/>
		<line class="st0" x1="545.92" y1="440.37" x2="547.42" y2="440.37"/>
	</g>
</g>
<line class="st2" x1="481.79" y1="418.49" x2="481.79" y2="615.38"/>
<g>
	<g>
		<line class="st0" x1="591.17" y1="484.12" x2="591.17" y2="485.62"/>
		<line class="st4" x1="591.17" y1="488.6" x2="591.17" y2="612.39"/>
		<line class="st0" x1="591.17" y1="613.88" x2="591.17" y2="615.38"/>
	</g>
</g>
<g>
	<g>
		<line class="st0" x1="503.66" y1="440.37" x2="503.66" y2="441.87"/>
		<line class="st8" x1="503.66" y1="444.88" x2="503.66" y2="612.37"/>
		<line class="st0" x1="503.66" y1="613.88" x2="503.66" y2="615.38"/>
	</g>
</g>
<g>
	<g>
		<line class="st0" x1="459.91" y1="396.61" x2="461.41" y2="396.61"/>
		<line class="st6" x1="464.32" y1="396.61" x2="544.46" y2="396.61"/>
		<line class="st0" x1="545.92" y1="396.61" x2="547.42" y2="396.61"/>
	</g>
</g>
<g>
	<g>
		<line class="st0" x1="569.29" y1="462.24" x2="567.79" y2="462.24"/>
		<line class="st5" x1="564.66" y1="462.24" x2="528.61" y2="462.24"/>
		<line class="st0" x1="527.04" y1="462.24" x2="525.54" y2="462.24"/>
	</g>
</g>
<g>
	<g>
		<line class="st0" x1="569.29" y1="374.74" x2="567.79" y2="374.74"/>
		<line class="st5" x1="564.66" y1="374.74" x2="528.61" y2="374.74"/>
		<line class="st0" x1="527.04" y1="374.74" x2="525.54" y2="374.74"/>
	</g>
</g>
<g>
	<g>
		<line class="st0" x1="525.54" y1="418.49" x2="527.04" y2="418.49"/>
		<line class="st5" x1="530.17" y1="418.49" x2="566.23" y2="418.49"/>
		<line class="st0" x1="567.79" y1="418.49" x2="569.29" y2="418.49"/>
	</g>
</g>
<g>
	<g>
		<line class="st0" x1="678.68" y1="265.35" x2="678.68" y2="266.85"/>
		<line class="st1" x1="678.68" y1="269.87" x2="678.68" y2="612.37"/>
		<line class="st0" x1="678.68" y1="613.88" x2="678.68" y2="615.38"/>
	</g>
</g>
<line class="st2" x1="678.68" y1="440.37" x2="700.55" y2="418.49"/>
<line class="st2" x1="700.55" y1="462.24" x2="678.68" y2="440.37"/>
<line class="st2" x1="744.31" y1="462.24" x2="766.18" y2="440.37"/>
<line class="st2" x1="744.31" y1="418.49" x2="766.18" y2="440.37"/>
<line class="st2" x1="700.55" y1="418.49" x2="744.31" y2="418.49"/>
<line class="st2" x1="700.55" y1="462.24" x2="744.31" y2="462.24"/>
<line class="st2" x1="788.06" y1="418.49" x2="766.18" y2="440.37"/>
<line class="st2" x1="788.06" y1="462.24" x2="766.18" y2="440.37"/>
<line class="st2" x1="744.31" y1="418.49" x2="788.06" y2="374.74"/>
<line class="st2" x1="788.06" y1="418.49" x2="744.31" y2="374.74"/>
<g>
	<g>
		<line class="st0" x1="700.55" y1="418.49" x2="701.61" y2="417.43"/>
		<line class="st3" x1="703.81" y1="415.23" x2="720.27" y2="398.77"/>
		<line class="st0" x1="721.37" y1="397.67" x2="722.43" y2="396.61"/>
	</g>
</g>
<line class="st2" x1="700.55" y1="265.35" x2="700.55" y2="418.49"/>
<line class="st2" x1="744.31" y1="265.35" x2="744.31" y2="374.74"/>
<g>
	<g>
		<line class="st0" x1="722.43" y1="396.61" x2="722.43" y2="395.11"/>
		<line class="st4" x1="722.43" y1="392.13" x2="722.43" y2="268.34"/>
		<line class="st0" x1="722.43" y1="266.85" x2="722.43" y2="265.35"/>
	</g>
</g>
<g>
	<g>
		<line class="st0" x1="766.18" y1="396.61" x2="764.68" y2="396.61"/>
		<line class="st5" x1="761.55" y1="396.61" x2="725.5" y2="396.61"/>
		<line class="st0" x1="723.93" y1="396.61" x2="722.43" y2="396.61"/>
	</g>
</g>
<line class="st2" x1="744.31" y1="374.74" x2="722.43" y2="396.61"/>
<line class="st2" x1="700.55" y1="462.24" x2="700.55" y2="615.38"/>
<line class="st2" x1="744.31" y1="462.24" x2="744.31" y2="615.38"/>
<g>
	<g>
		<line class="st0" x1="722.43" y1="484.12" x2="721.37" y2="483.06"/>
		<line class="st3" x1="719.17" y1="480.86" x2="702.71" y2="464.4"/>
		<line class="st0" x1="701.61" y1="463.3" x2="700.55" y2="462.24"/>
	</g>
</g>
<g>
	<g>
		<line class="st0" x1="744.31" y1="462.24" x2="743.25" y2="463.3"/>
		<line class="st3" x1="741.05" y1="465.5" x2="724.59" y2="481.96"/>
		<line class="st0" x1="723.49" y1="483.06" x2="722.43" y2="484.12"/>
	</g>
</g>
<line class="st2" x1="788.06" y1="374.74" x2="831.81" y2="374.74"/>
<line class="st2" x1="788.06" y1="418.49" x2="831.81" y2="418.49"/>
<line class="st2" x1="853.69" y1="396.61" x2="831.81" y2="374.74"/>
<line class="st2" x1="831.81" y1="418.49" x2="853.69" y2="396.61"/>
<g>
	<g>
		<line class="st0" x1="788.06" y1="374.74" x2="789.12" y2="373.67"/>
		<line class="st3" x1="791.32" y1="371.48" x2="807.78" y2="355.02"/>
		<line class="st0" x1="808.88" y1="353.92" x2="809.94" y2="352.86"/>
	</g>
</g>
<g>
	<g>
		<line class="st0" x1="831.81" y1="374.74" x2="830.75" y2="373.67"/>
		<line class="st3" x1="828.56" y1="371.48" x2="812.1" y2="355.02"/>
		<line class="st0" x1="811" y1="353.92" x2="809.94" y2="352.86"/>
	</g>
</g>
<line class="st2" x1="788.06" y1="265.35" x2="788.06" y2="374.74"/>
<line class="st2" x1="831.81" y1="265.35" x2="831.81" y2="374.74"/>
<g>
	<g>
		<line class="st0" x1="809.94" y1="352.86" x2="809.94" y2="351.36"/>
		<line class="st6" x1="809.94" y1="348.44" x2="809.94" y2="268.31"/>
		<line class="st0" x1="809.94" y1="266.85" x2="809.94" y2="265.35"/>
	</g>
</g>
<line class="st2" x1="788.06" y1="462.24" x2="788.06" y2="615.38"/>
<g>
	<g>
		<path class="st0" d="M766.18,440.37c0,0-0.52,0-1.5,0"/>
		<path class="st9" d="M761.65,440.37c-20.65,0-104.85,0-104.85,0H550.44"/>
		<line class="st0" x1="548.92" y1="440.37" x2="547.42" y2="440.37"/>
	</g>
</g>
<g>
	<g>
		<line class="st0" x1="853.69" y1="265.35" x2="853.69" y2="266.85"/>
		<line class="st1" x1="853.69" y1="269.87" x2="853.69" y2="612.37"/>
		<line class="st0" x1="853.69" y1="613.88" x2="853.69" y2="615.38"/>
	</g>
</g>
<line class="st2" x1="788.06" y1="462.24" x2="809.94" y2="440.37"/>
<g>
	<g>
		<line class="st0" x1="831.81" y1="418.49" x2="830.75" y2="419.55"/>
		<line class="st3" x1="828.56" y1="421.74" x2="812.1" y2="438.21"/>
		<line class="st0" x1="811" y1="439.31" x2="809.94" y2="440.37"/>
	</g>
</g>
<g>
	<g>
		<line class="st0" x1="809.94" y1="440.37" x2="808.44" y2="440.37"/>
		<line class="st5" x1="805.3" y1="440.37" x2="769.25" y2="440.37"/>
		<line class="st0" x1="767.68" y1="440.37" x2="766.18" y2="440.37"/>
	</g>
</g>
<line class="st2" x1="831.81" y1="418.49" x2="831.81" y2="615.38"/>
<g>
	<g>
		<line class="st0" x1="722.43" y1="484.12" x2="722.43" y2="485.62"/>
		<line class="st4" x1="722.43" y1="488.6" x2="722.43" y2="612.39"/>
		<line class="st0" x1="722.43" y1="613.88" x2="722.43" y2="615.38"/>
	</g>
</g>
<g>
	<g>
		<line class="st0" x1="809.94" y1="440.37" x2="809.94" y2="441.87"/>
		<line class="st8" x1="809.94" y1="444.88" x2="809.94" y2="612.37"/>
		<line class="st0" x1="809.94" y1="613.88" x2="809.94" y2="615.38"/>
	</g>
</g>
<g>
	<g>
		<line class="st0" x1="853.69" y1="396.61" x2="852.19" y2="396.61"/>
		<line class="st6" x1="849.28" y1="396.61" x2="769.14" y2="396.61"/>
		<line class="st0" x1="767.68" y1="396.61" x2="766.18" y2="396.61"/>
	</g>
</g>
<g>
	<g>
		<line class="st0" x1="744.31" y1="462.24" x2="745.81" y2="462.24"/>
		<line class="st5" x1="748.94" y1="462.24" x2="784.99" y2="462.24"/>
		<line class="st0" x1="786.56" y1="462.24" x2="788.06" y2="462.24"/>
	</g>
</g>
<g>
	<g>
		<line class="st0" x1="744.31" y1="374.74" x2="745.81" y2="374.74"/>
		<line class="st5" x1="748.94" y1="374.74" x2="784.99" y2="374.74"/>
		<line class="st0" x1="786.56" y1="374.74" x2="788.06" y2="374.74"/>
	</g>
</g>
<g>
	<g>
		<line class="st0" x1="788.06" y1="418.49" x2="786.56" y2="418.49"/>
		<line class="st5" x1="783.43" y1="418.49" x2="747.37" y2="418.49"/>
		<line class="st0" x1="745.81" y1="418.49" x2="744.31" y2="418.49"/>
	</g>
</g>
<g>
	<g>
		<line class="st0" x1="897.44" y1="265.35" x2="897.44" y2="266.85"/>
		<line class="st1" x1="897.44" y1="269.87" x2="897.44" y2="612.37"/>
		<line class="st0" x1="897.44" y1="613.88" x2="897.44" y2="615.38"/>
	</g>
</g>
<g>
	<g>
		<line class="st0" x1="853.69" y1="396.61" x2="855.19" y2="396.61"/>
		<line class="st5" x1="858.33" y1="396.61" x2="894.38" y2="396.61"/>
		<line class="st0" x1="895.94" y1="396.61" x2="897.44" y2="396.61"/>
	</g>
</g>
<g>
	<g>
		<line class="st0" x1="197.22" y1="440.37" x2="198.72" y2="440.37"/>
		<line class="st5" x1="201.85" y1="440.37" x2="237.9" y2="440.37"/>
		<line class="st0" x1="239.47" y1="440.37" x2="240.97" y2="440.37"/>
	</g>
</g>
<g>
	<g>
		<line class="st0" x1="197.22" y1="267.11" x2="197.22" y2="268.61"/>
		<line class="st1" x1="197.22" y1="271.63" x2="197.22" y2="614.13"/>
		<line class="st0" x1="197.22" y1="615.64" x2="197.22" y2="617.14"/>
	</g>
</g>
<rect x="197.22" y="267.11" class="st10" width="700.23" height="348.27"/>
</svg>
