<?xml version="1.0" encoding="utf-8"?>
<!-- Generator: Adobe Illustrator 22.0.1, SVG Export Plug-In . SVG Version: 6.00 Build 0)  -->
<svg version="1.1" xmlns="http://www.w3.org/2000/svg" xmlns:xlink="http://www.w3.org/1999/xlink" x="0px" y="0px" width="1440px"
	 height="864px" viewBox="0 0 1440 864" enable-background="new 0 0 1440 864" xml:space="preserve">
<g id="Layer_1">
	<polyline fill="none" stroke="#000000" points="1006.613,543.81 1006.613,320.19 894.803,126.53 701.143,14.72 477.523,14.72 
		283.863,126.53 172.053,320.19 	"/>
	<polyline fill="none" stroke="#000000" points="526.741,448.771 543.513,477.821 572.562,494.592 606.105,494.592 635.154,477.821 
		651.925,448.771 651.925,415.229 635.154,386.179 	"/>
	<polyline fill="none" stroke="#000000" points="528.239,493.094 566.971,515.456 611.695,515.456 650.427,493.094 672.789,454.362 
		672.789,409.638 650.427,370.906 611.695,348.544 	"/>
	<polyline fill="none" stroke="#000000" points="561.381,536.32 617.286,536.32 665.701,508.368 693.653,459.952 693.653,404.048 
		665.701,355.632 617.286,327.68 561.381,327.68 	"/>
	<polyline fill="none" stroke="#000000" points="622.876,557.184 680.974,523.641 714.517,465.543 714.517,398.457 680.974,340.359 
		622.876,306.816 555.79,306.816 497.692,340.359 	"/>
	<polyline fill="none" stroke="#000000" points="696.248,538.915 735.381,471.133 735.381,392.867 696.248,325.085 628.467,285.952 
		550.2,285.952 482.419,325.085 443.285,392.867 	"/>
	<polyline fill="none" stroke="#000000" points="756.245,476.724 756.245,387.276 711.521,309.812 634.057,265.088 544.609,265.088 
		467.145,309.812 422.421,387.276 422.421,476.724 	"/>
	<polyline fill="none" stroke="#000000" points="777.109,381.686 726.795,294.538 639.648,244.224 539.019,244.224 451.872,294.538 
		401.557,381.686 401.557,482.314 451.872,569.462 	"/>
	<polyline fill="none" stroke="#000000" points="742.068,279.265 645.238,223.36 533.428,223.36 436.598,279.265 380.693,376.095 
		380.693,487.905 436.598,584.735 533.428,640.64 	"/>
	<polyline fill="none" stroke="#000000" points="650.829,202.496 527.838,202.496 421.325,263.991 359.829,370.505 359.829,493.495 
		421.325,600.009 527.838,661.504 650.829,661.504 	"/>
	<polyline fill="none" stroke="#000000" points="522.247,181.632 406.051,248.718 338.965,364.914 338.965,499.086 406.051,615.282 
		522.247,682.368 656.419,682.368 772.615,615.282 	"/>
	<polyline fill="none" stroke="#000000" points="390.778,233.444 318.101,359.324 318.101,504.676 390.778,630.556 516.657,703.232 
		662.01,703.232 787.889,630.556 860.565,504.676 	"/>
	<polyline fill="none" stroke="#000000" points="297.237,353.733 297.237,510.267 375.504,645.829 511.066,724.096 667.6,724.096 
		803.162,645.829 881.429,510.267 881.429,353.733 	"/>
	<polyline fill="none" stroke="#000000" points="276.373,515.857 360.231,661.103 505.476,744.96 673.191,744.96 818.436,661.103 
		902.293,515.857 902.293,348.143 818.436,202.897 	"/>
	<polyline fill="none" stroke="#000000" points="344.957,676.376 499.885,765.824 678.781,765.824 833.709,676.376 923.157,521.448 
		923.157,342.552 833.709,187.624 678.781,98.176 	"/>
	<polyline fill="none" stroke="#000000" points="494.295,786.688 684.372,786.688 848.983,691.65 944.021,527.038 944.021,336.962 
		848.983,172.35 684.372,77.312 494.295,77.312 	"/>
	<polyline fill="none" stroke="#000000" points="689.962,807.552 864.256,706.923 964.885,532.629 964.885,331.371 864.256,157.077 
		689.962,56.448 488.704,56.448 314.41,157.077 	"/>
	<polyline fill="none" stroke="#000000" points="879.53,722.197 985.749,538.219 985.749,325.781 879.53,141.803 695.553,35.584 
		483.114,35.584 299.137,141.803 192.917,325.781 	"/>
</g>
<g id="Layer_2" display="none">
	<line display="inline" fill="none" stroke="#0000FF" x1="172.053" y1="320.19" x2="1006.613" y2="543.81"/>
	<line display="inline" fill="none" stroke="#0000FF" x1="172.053" y1="543.81" x2="1006.613" y2="320.19"/>
	<line display="inline" fill="none" stroke="#0000FF" x1="283.863" y1="737.47" x2="894.803" y2="126.53"/>
	<line display="inline" fill="none" stroke="#0000FF" x1="477.523" y1="849.28" x2="701.143" y2="14.72"/>
	<line display="inline" fill="none" stroke="#0000FF" x1="701.143" y1="849.28" x2="477.523" y2="14.72"/>
	<line display="inline" fill="none" stroke="#0000FF" x1="894.803" y1="737.47" x2="283.863" y2="126.53"/>
</g>
</svg>
