<?xml version="1.0" encoding="utf-8"?>
<!-- Generator: Adobe Illustrator 22.0.1, SVG Export Plug-In . SVG Version: 6.00 Build 0)  -->
<svg version="1.1" xmlns="http://www.w3.org/2000/svg" xmlns:xlink="http://www.w3.org/1999/xlink" x="0px" y="0px" width="1440px"
	 height="864px" viewBox="0 0 1440 864" enable-background="new 0 0 1440 864" xml:space="preserve">
<g id="Layer_1">
	<polyline fill="none" stroke="#000000" points="1152,432 936,57.877 504,57.877 288,432 	"/>
	<polyline fill="none" stroke="#000000" points="921,780.142 1122,432 921,83.858 519,83.858 318,432 	"/>
	<polyline fill="none" stroke="#000000" points="534,754.161 906,754.161 1092,432 906,109.839 534,109.839 	"/>
	<polyline fill="none" stroke="#000000" points="378,432 549,728.181 891,728.181 1062,432 891,135.819 	"/>
	<polyline fill="none" stroke="#000000" points="564,161.8 408,432 564,702.2 876,702.2 1032,432 	"/>
	<polyline fill="none" stroke="#000000" points="861,187.781 579,187.781 438,432 579,676.219 861,676.219 	"/>
	<polyline fill="none" stroke="#000000" points="972,432 846,213.762 594,213.762 468,432 594,650.238 	"/>
	<polyline fill="none" stroke="#000000" points="831,624.258 942,432 831,239.742 609,239.742 498,432 	"/>
	<polyline fill="none" stroke="#000000" points="624,598.277 816,598.277 912,432 816,265.723 624,265.723 	"/>
	<polyline fill="none" stroke="#000000" points="558,432 639,572.296 801,572.296 882,432 801,291.704 	"/>
	<polyline fill="none" stroke="#000000" points="654,317.685 588,432 654,546.315 786,546.315 852,432 	"/>
	<polyline fill="none" stroke="#000000" points="771,343.665 669,343.665 618,432 669,520.335 771,520.335 	"/>
	<polyline fill="none" stroke="#000000" points="756,369.646 684,369.646 648,432 684,494.354 	"/>
	<g display="none">
		<line display="inline" fill="none" stroke="#000000" x1="1152" y1="432" x2="288" y2="432"/>
		<line display="inline" fill="none" stroke="#000000" x1="504" y1="57.877" x2="936" y2="806.123"/>
		<line display="inline" fill="none" stroke="#000000" x1="936" y1="57.877" x2="504" y2="806.123"/>
	</g>
</g>
<g id="Layer_2">
	<line fill="none" stroke="#00FF00" x1="288" y1="432" x2="318" y2="432"/>
	<line fill="none" stroke="#00FF00" x1="378" y1="432" x2="408" y2="432"/>
	<line fill="none" stroke="#00FF00" x1="498" y1="432" x2="468" y2="432"/>
	<line fill="none" stroke="#00FF00" x1="558" y1="432" x2="588" y2="432"/>
	<line fill="none" stroke="#00FF00" x1="852" y1="432" x2="882" y2="432"/>
	<line fill="none" stroke="#00FF00" x1="972" y1="432" x2="942" y2="432"/>
	<line fill="none" stroke="#00FF00" x1="1032" y1="432" x2="1062" y2="432"/>
	<line fill="none" stroke="#00FF00" x1="1152" y1="432" x2="1122" y2="432"/>
	<line fill="none" stroke="#00FF00" x1="519" y1="83.858" x2="534" y2="109.839"/>
	<line fill="none" stroke="#00FF00" x1="564" y1="161.8" x2="579" y2="187.781"/>
	<line fill="none" stroke="#00FF00" x1="609" y1="239.742" x2="624" y2="265.723"/>
	<line fill="none" stroke="#00FF00" x1="654" y1="317.685" x2="669" y2="343.665"/>
	<line fill="none" stroke="#00FF00" x1="771" y1="520.335" x2="786" y2="546.315"/>
	<line fill="none" stroke="#00FF00" x1="816" y1="598.277" x2="831" y2="624.258"/>
	<line fill="none" stroke="#00FF00" x1="861" y1="676.219" x2="876" y2="702.2"/>
	<line fill="none" stroke="#00FF00" x1="906" y1="754.161" x2="921" y2="780.142"/>
	<line fill="none" stroke="#00FF00" x1="534" y1="754.161" x2="549" y2="728.181"/>
	<line fill="none" stroke="#00FF00" x1="579" y1="676.219" x2="594" y2="650.238"/>
	<line fill="none" stroke="#00FF00" x1="624" y1="598.277" x2="639" y2="572.296"/>
	<line fill="none" stroke="#00FF00" x1="684" y1="494.354" x2="669" y2="520.335"/>
	<line fill="none" stroke="#00FF00" x1="756" y1="369.646" x2="771" y2="343.665"/>
	<line fill="none" stroke="#00FF00" x1="801" y1="291.704" x2="816" y2="265.723"/>
	<line fill="none" stroke="#00FF00" x1="846" y1="213.762" x2="861" y2="187.781"/>
	<line fill="none" stroke="#00FF00" x1="891" y1="135.819" x2="906" y2="109.839"/>
	<g>
	</g>
	<g>
	</g>
	<g>
	</g>
	<g>
	</g>
	<g>
	</g>
	<g>
	</g>
</g>
</svg>
