<?xml version="1.0" encoding="utf-8"?>
<!-- Generator: Adobe Illustrator 23.0.4, SVG Export Plug-In . SVG Version: 6.00 Build 0)  -->
<svg version="1.1" xmlns="http://www.w3.org/2000/svg" xmlns:xlink="http://www.w3.org/1999/xlink" x="0px" y="0px" width="1440px"
	 height="864px" viewBox="0 0 1440 864" style="enable-background:new 0 0 1440 864;" xml:space="preserve">
<style type="text/css">
	.st0{fill:none;stroke:#FF0000;}
	.st1{fill:none;stroke:#0064FF;}
	.st2{fill:none;stroke:#0064FF;stroke-width:4;}
</style>
<g id="Layer_1">
	<circle class="st0" cx="432.8" cy="433.4" r="360"/>
	<path class="st1" d="M382.4,414.2c7.7-20.4,27.4-34.8,50.5-34.8c23.1,0,42.8,14.5,50.5,34.8"/>
	<path class="st1" d="M484.1,450.4c-7.1,21.5-27.4,37-51.3,37c-23.9,0-44.2-15.5-51.3-37"/>
	<path class="st1" d="M344.9,414.2c8.8-40.5,44.8-70.8,87.9-70.8c43.1,0,79.2,30.3,88,70.8"/>
	<path class="st1" d="M521.2,450.4c-7.9,41.6-44.5,73-88.4,73c-43.9,0-80.5-31.4-88.4-73"/>
	<path class="st1" d="M308.3,414.2c9.2-60.5,61.5-106.8,124.5-106.8s115.3,46.3,124.6,106.8"/>
	<path class="st1" d="M557.7,450.4c-8.3,61.6-61,109-124.9,109s-116.6-47.5-124.9-109"/>
	<path class="st1" d="M272,414.2c9.5-80.4,77.9-142.8,160.9-142.8s151.4,62.4,160.9,142.8"/>
	<path class="st1" d="M594,450.4c-8.5,81.5-77.4,145-161.1,145s-152.6-63.5-161.1-145"/>
	<path class="st1" d="M235.8,414.2c9.6-100.4,94.2-178.8,197.1-178.8s187.4,78.5,197.1,178.8"/>
	<path class="st1" d="M630.1,450.4c-8.6,101.4-93.7,181-197.3,181s-188.7-79.6-197.3-181"/>
	<path class="st1" d="M199.6,414.2c9.8-120.3,110.4-214.8,233.2-214.8c122.8,0,223.5,94.5,233.2,214.8"/>
	<path class="st1" d="M666.2,450.4c-8.7,121.3-109.9,217-233.4,217c-123.5,0-224.7-95.7-233.4-217"/>
	<path class="st1" d="M163.5,414.2c9.8-140.2,126.6-250.8,269.3-250.8S692.3,274,702.2,414.2"/>
	<path class="st1" d="M702.3,450.4c-8.8,141.2-126,253-269.5,253s-260.7-111.8-269.5-253"/>
	<path class="st1" d="M127.4,414.2c9.9-160.1,142.8-286.8,305.4-286.8s295.5,126.8,305.4,286.8"/>
	<path class="st1" d="M738.4,450.4c-8.8,161.1-142.2,289-305.5,289s-296.7-127.9-305.5-289"/>
	<path class="st1" d="M91.4,414.2c9.9-180,159-322.8,341.5-322.8s331.5,142.8,341.5,322.8"/>
	<path class="st1" d="M774.4,450.4c-8.8,181-158.4,325-341.6,325s-332.7-144-341.6-325"/>
	<line class="st2" x1="774.3" y1="414.2" x2="774.4" y2="450.4"/>
	<line class="st2" x1="450.7" y1="756.9" x2="414.5" y2="756.9"/>
	<line class="st2" x1="127.3" y1="450.4" x2="127.4" y2="414.2"/>
	<line class="st2" x1="414.5" y1="146" x2="450.7" y2="145.9"/>
	<line class="st2" x1="702.2" y1="414.2" x2="702.3" y2="450.4"/>
	<line class="st2" x1="450.7" y1="684.8" x2="414.5" y2="684.7"/>
	<line class="st2" x1="199.5" y1="450.4" x2="199.6" y2="414.2"/>
	<line class="st2" x1="414.5" y1="218.2" x2="450.7" y2="218.1"/>
	<line class="st2" x1="629.9" y1="414.2" x2="630.1" y2="450.4"/>
	<line class="st2" x1="450.7" y1="612.5" x2="414.5" y2="612.5"/>
	<line class="st2" x1="271.7" y1="450.4" x2="272" y2="414.2"/>
	<line class="st2" x1="414.5" y1="290.5" x2="450.7" y2="290.5"/>
	<line class="st2" x1="557.4" y1="414.2" x2="557.7" y2="450.4"/>
	<line class="st2" x1="450.7" y1="539.9" x2="414.5" y2="539.8"/>
	<line class="st2" x1="344.5" y1="450.4" x2="344.9" y2="414.2"/>
	<line class="st2" x1="414.5" y1="363.7" x2="450.7" y2="363.6"/>
	<line class="st2" x1="483.3" y1="414.2" x2="484.1" y2="450.4"/>
</g>
<g id="Layer_2">
	<path class="st1" d="M414.5,503c-30.9-8.1-53.7-36.2-53.7-69.6c0-33.5,22.8-61.6,53.7-69.7"/>
	<path class="st1" d="M450.7,363.6c31.1,7.9,54.1,36.1,54.1,69.8c0,33.6-23,61.8-54.1,69.8"/>
	<path class="st1" d="M414.5,539.8c-50.9-8.7-89.7-53-89.7-106.4c0-53.4,38.8-97.8,89.7-106.5"/>
	<path class="st1" d="M450.7,326.9c51.2,8.5,90.1,53,90.1,106.5c0,53.6-39,98-90.1,106.5"/>
	<path class="st1" d="M414.5,576.2c-70.9-9-125.7-69.5-125.7-142.8s54.8-133.9,125.7-142.8"/>
	<path class="st1" d="M450.7,290.5c71.1,8.8,126.1,69.4,126.1,142.9s-55,134.1-126.1,142.9"/>
	<path class="st1" d="M414.5,612.5c-90.8-9.2-161.7-85.8-161.7-179.1s70.9-169.9,161.7-179.1"/>
	<path class="st1" d="M450.7,254.3c91,9,162.1,85.7,162.1,179.1s-71.1,170.2-162.1,179.1"/>
	<path class="st1" d="M414.5,648.6c-110.7-9.3-197.7-102.1-197.7-215.2c0-113.1,87-206,197.7-215.2"/>
	<path class="st1" d="M450.7,218.1c110.9,9.1,198.1,102,198.1,215.3c0,113.3-87.2,206.2-198.1,215.3"/>
	<path class="st1" d="M414.5,684.7c-130.6-9.4-233.7-118.3-233.7-251.3c0-133,103.1-242,233.7-251.3"/>
	<path class="st1" d="M450.7,182c130.8,9.2,234.1,118.2,234.1,251.4c0,133.2-103.3,242.2-234.1,251.4"/>
	<path class="st1" d="M414.5,720.8C264,711.4,144.8,586.3,144.8,433.4c0-152.9,119.2-278,269.7-287.4"/>
	<path class="st1" d="M450.7,145.9c150.7,9.2,270.1,134.4,270.1,287.5c0,153.1-119.4,278.2-270.1,287.5"/>
	<path class="st1" d="M414.5,756.9c-170.4-9.5-305.7-150.7-305.7-323.5s135.3-314,305.7-323.5"/>
	<path class="st1" d="M450.7,109.9c170.6,9.3,306.1,150.6,306.1,323.5S621.3,747.6,450.7,756.9"/>
	<path class="st1" d="M431,440.4c-3.1-0.8-5.4-3.6-5.4-7c0-3.3,2.3-6.2,5.4-7"/>
	<path class="st1" d="M434.6,426.4c3.1,0.8,5.4,3.6,5.4,7c0,3.4-2.3,6.2-5.4,7"/>
</g>
</svg>
