<?xml version="1.0" encoding="utf-8"?>
<!-- Generator: Adobe Illustrator 28.2.0, SVG Export Plug-In . SVG Version: 6.00 Build 0)  -->
<svg version="1.1" xmlns="http://www.w3.org/2000/svg" xmlns:xlink="http://www.w3.org/1999/xlink" x="0px" y="0px"
	 viewBox="0 0 1440 864" style="enable-background:new 0 0 1440 864;" xml:space="preserve">
<style type="text/css">
	.st0{display:none;}
	.st1{display:inline;}
	.st2{fill:#0064FF;}
	.st3{display:inline;fill:none;stroke:#6400FF;}
	.st4{fill:none;stroke:#FFFF00;}
	.st5{fill:none;stroke:#00FFFF;}
	.st6{fill:none;stroke:#640000;}
	.st7{fill:none;stroke:#6400FF;}
	.st8{fill:none;stroke:#FF0000;}
	.st9{fill:none;stroke:#0064FF;}
</style>
<g id="Layer_1" class="st0">
	<g class="st1">
		<rect x="41.7" y="425.39" class="st2" width="782.3" height="16"/>
	</g>
	<g class="st1">
		
			<rect x="41.7" y="425.39" transform="matrix(0.9239 -0.3827 0.3827 0.9239 -132.9013 198.6335)" class="st2" width="782.3" height="16"/>
	</g>
	<g class="st1">
		
			<rect x="41.7" y="425.39" transform="matrix(0.7071 -0.7071 0.7071 0.7071 -179.6723 433.0061)" class="st2" width="782.3" height="16"/>
	</g>
	<g class="st1">
		
			<rect x="41.7" y="425.39" transform="matrix(0.3827 -0.9239 0.9239 0.3827 -133.1926 667.4366)" class="st2" width="782.3" height="16"/>
	</g>
	<g class="st1">
		<rect x="424.85" y="42.24" class="st2" width="16" height="782.3"/>
	</g>
	<g class="st1">
		
			<rect x="424.85" y="42.24" transform="matrix(0.9239 -0.3827 0.3827 0.9239 -132.9013 198.6335)" class="st2" width="16" height="782.3"/>
	</g>
	<g class="st1">
		
			<rect x="424.85" y="42.24" transform="matrix(0.7071 -0.7071 0.7071 0.7071 -179.6723 433.0061)" class="st2" width="16" height="782.3"/>
	</g>
	<g class="st1">
		
			<rect x="424.85" y="42.24" transform="matrix(0.3827 -0.9239 0.9239 0.3827 -133.1926 667.4366)" class="st2" width="16" height="782.3"/>
	</g>
	<line class="st3" x1="41.7" y1="433.39" x2="824" y2="433.39"/>
	<line class="st3" x1="71.47" y1="583.07" x2="794.23" y2="283.7"/>
	<line class="st3" x1="156.26" y1="709.97" x2="709.43" y2="156.8"/>
	<line class="st3" x1="283.16" y1="794.76" x2="582.54" y2="72.01"/>
	<line class="st3" x1="432.85" y1="824.54" x2="432.85" y2="42.23"/>
	<line class="st3" x1="582.54" y1="794.76" x2="283.16" y2="72.01"/>
	<line class="st3" x1="709.43" y1="709.97" x2="156.26" y2="156.8"/>
	<line class="st3" x1="794.23" y1="583.07" x2="71.47" y2="283.7"/>
</g>
<g id="Layer_2">
	<circle class="st4" cx="432.85" cy="433.39" r="360"/>
	<path class="st5" d="M458.3,458.84c-6.51,6.51-15.51,10.54-25.46,10.54c-19.88,0-36-16.12-36-36c0-9.94,4.03-18.94,10.54-25.46"/>
	<path class="st5" d="M399.76,400.29c8.47-8.47,20.17-13.71,33.09-13.71c25.85,0,46.8,20.95,46.8,46.8
		c0,12.92-5.24,24.62-13.71,33.09"/>
	<path class="st5" d="M455.39,486.41c-6.92,2.95-14.55,4.58-22.55,4.58c-31.81,0-57.6-25.79-57.6-57.6
		c0-23.86,14.51-44.33,35.18-53.07"/>
	<path class="st5" d="M406.22,370.36c8.18-3.46,17.18-5.38,26.62-5.38c37.78,0,68.4,30.62,68.4,68.4
		c0,28.33-17.23,52.64-41.78,63.02"/>
	<path class="st5" d="M432.85,512.59c-43.74,0-79.2-35.46-79.2-79.2s35.46-79.2,79.2-79.2"/>
	<path class="st5" d="M432.85,343.39c49.71,0,90,40.29,90,90s-40.29,90-90,90"/>
	<path class="st5" d="M394.63,526.69c-36.72-15.06-62.58-51.16-62.58-93.3c0-55.67,45.13-100.8,100.8-100.8
		c13.67,0,26.7,2.72,38.58,7.65"/>
	<path class="st5" d="M475.57,330.25c40.44,16.77,68.88,56.63,68.88,103.13c0,61.63-49.97,111.6-111.6,111.6
		c-15.13,0-29.56-3.01-42.72-8.47"/>
	<path class="st6" d="M346.51,520.14c-22.27-22.17-36.06-52.85-36.06-86.76c0-67.6,54.8-122.4,122.4-122.4
		c33.8,0,64.4,13.7,86.55,35.85"/>
	<path class="st6" d="M527.04,339.2c24.1,24.1,39.01,57.4,39.01,94.19c0,73.56-59.64,133.2-133.2,133.2
		c-36.78,0-70.08-14.91-94.19-39.01"/>
	<path class="st6" d="M299.73,488.39c-7.01-16.95-10.88-35.52-10.88-55.01c0-79.53,64.47-144,144-144
		c59.65,0,110.82,36.26,132.68,87.95"/>
	<path class="st6" d="M575.48,373.13c7.83,18.52,12.16,38.88,12.16,60.26c0,85.49-69.31,154.8-154.8,154.8
		c-64.5,0-119.79-39.45-143.05-95.55"/>
	<path class="st6" d="M267.25,433.39c0-91.46,74.14-165.6,165.6-165.6s165.6,74.14,165.6,165.6"/>
	<path class="st6" d="M609.25,433.39c0,97.42-78.98,176.4-176.4,176.4s-176.4-78.98-176.4-176.4"/>
	<path class="st6" d="M259.85,361.73c28.13-67.83,94.99-115.54,173-115.54c103.39,0,187.2,83.81,187.2,187.2
		c0,25.38-5.05,49.58-14.2,71.66"/>
	<path class="st6" d="M615.82,509.18c-29.75,71.75-100.47,122.21-182.98,122.21c-109.35,0-198-88.65-198-198
		c0-26.85,5.34-52.45,15.02-75.79"/>
	<path class="st7" d="M285.03,285.91c37.8-37.89,90.07-61.33,147.82-61.33c115.32,0,208.8,93.48,208.8,208.8
		c0,57.66-23.37,109.86-61.16,147.64"/>
	<path class="st7" d="M588.13,588.67c-39.74,39.74-94.64,64.32-155.28,64.32c-121.28,0-219.6-98.32-219.6-219.6
		c0-60.64,24.58-115.54,64.32-155.28"/>
	<path class="st7" d="M344.66,220.47c27.17-11.27,56.95-17.48,88.19-17.48c127.25,0,230.4,103.15,230.4,230.4
		c0,95.43-58.02,177.32-140.72,212.29"/>
	<path class="st8" d="M522.53,645.68c-0.5,0.21-0.99,0.42-1.49,0.62"/>
	<path class="st7" d="M525.18,656.28c-28.44,11.79-59.62,18.3-92.33,18.3c-133.21,0-241.2-107.99-241.2-241.2
		c0-100.51,61.47-186.66,148.87-222.9"/>
	<path class="st7" d="M432.85,181.39c139.18,0,252,112.82,252,252s-112.82,252-252,252"/>
	<path class="st7" d="M432.85,696.19c-145.14,0-262.8-117.66-262.8-262.8s117.66-262.8,262.8-262.8"/>
	<path class="st7" d="M537.35,180.45c99.26,41.06,169.1,138.84,169.1,252.93c0,151.11-122.49,273.6-273.6,273.6
		c-37.1,0-72.47-7.38-104.73-20.76"/>
	<path class="st7" d="M323.94,696.19c-103.03-42.74-175.49-144.31-175.49-262.8c0-157.07,127.33-284.4,284.4-284.4
		c38.56,0,75.33,7.67,108.86,21.58"/>
	<path class="st8" d="M641.52,224.59c53.46,53.43,86.52,127.25,86.52,208.8c0,163.03-132.17,295.2-295.2,295.2
		c-81.49,0-155.26-33.02-208.68-86.4"/>
	<path class="st8" d="M216.47,649.76c-55.38-55.38-89.63-131.88-89.63-216.37c0-169,137-306,306-306c84.5,0,161,34.25,216.37,89.63"
		/>
	<path class="st8" d="M725.61,312.12c15.49,37.35,24.04,78.31,24.04,121.27c0,174.96-141.84,316.8-316.8,316.8
		c-132.09,0-245.3-80.84-292.85-195.74"/>
	<path class="st8" d="M130.11,558.79c-16.02-38.63-24.86-80.98-24.86-125.4c0-180.93,146.67-327.6,327.6-327.6
		c136.51,0,253.52,83.49,302.74,202.2"/>
	<path class="st8" d="M771.25,433.39c0,186.89-151.51,338.4-338.4,338.4s-338.4-151.51-338.4-338.4"/>
	<path class="st8" d="M83.65,433.39c0-192.86,156.34-349.2,349.2-349.2s349.2,156.34,349.2,349.2"/>
	<line class="st9" x1="83.65" y1="433.39" x2="94.45" y2="433.39"/>
	<line class="st9" x1="782.05" y1="433.39" x2="771.25" y2="433.39"/>
	<line class="st9" x1="130.11" y1="558.79" x2="140.09" y2="554.65"/>
	<line class="st9" x1="735.59" y1="307.99" x2="725.61" y2="312.12"/>
	<line class="st9" x1="216.47" y1="649.76" x2="224.17" y2="642.19"/>
	<line class="st9" x1="641.52" y1="224.59" x2="649.22" y2="217.01"/>
	<line class="st9" x1="323.99" y1="696.21" x2="328.12" y2="686.23"/>
	<line class="st9" x1="541.71" y1="170.57" x2="537.58" y2="180.55"/>
	<line class="st9" x1="432.85" y1="170.59" x2="432.85" y2="181.39"/>
	<line class="st9" x1="432.85" y1="685.39" x2="432.85" y2="696.19"/>
	<line class="st9" x1="340.52" y1="210.49" x2="344.66" y2="220.47"/>
	<line class="st9" x1="521.04" y1="646.3" x2="525.17" y2="656.28"/>
	<line class="st9" x1="277.81" y1="277.84" x2="284.96" y2="285.95"/>
	<line class="st9" x1="580.49" y1="581.03" x2="588.13" y2="588.67"/>
	<line class="st9" x1="249.88" y1="357.6" x2="259.86" y2="361.73"/>
	<line class="st9" x1="605.84" y1="505.04" x2="615.82" y2="509.18"/>
	<line class="st9" x1="256.45" y1="433.39" x2="267.25" y2="433.39"/>
	<line class="st9" x1="609.25" y1="433.39" x2="598.45" y2="433.39"/>
	<line class="st9" x1="289.8" y1="492.64" x2="299.65" y2="488.56"/>
	<line class="st9" x1="575.51" y1="373.13" x2="565.53" y2="377.27"/>
	<line class="st9" x1="338.66" y1="527.57" x2="346.3" y2="519.94"/>
	<line class="st9" x1="527.04" y1="339.2" x2="519.4" y2="346.84"/>
	<line class="st9" x1="394.27" y1="526.53" x2="390.13" y2="536.51"/>
	<line class="st9" x1="475.57" y1="330.26" x2="471.43" y2="340.24"/>
	<line class="st9" x1="432.85" y1="512.59" x2="432.85" y2="523.39"/>
	<line class="st9" x1="432.85" y1="343.39" x2="432.85" y2="354.19"/>
	<line class="st9" x1="454.9" y1="486.61" x2="459.03" y2="496.59"/>
	<line class="st9" x1="406.67" y1="370.18" x2="410.8" y2="380.16"/>
	<line class="st9" x1="399.76" y1="400.29" x2="407.39" y2="407.93"/>
	<line class="st9" x1="458.3" y1="458.84" x2="465.94" y2="466.48"/>
	<path class="st4" d="M450.67,451.21c-4.56,4.56-10.86,7.38-17.82,7.38c-13.92,0-25.2-11.28-25.2-25.2s11.28-25.2,25.2-25.2
		s25.2,11.28,25.2,25.2C458.05,440.35,455.23,446.65,450.67,451.21"/>
	<circle class="st5" cx="109.96" cy="567.59" r="4.28"/>
</g>
</svg>
