<?xml version="1.0" encoding="utf-8"?>
<!-- Generator: Adobe Illustrator 28.2.0, SVG Export Plug-In . SVG Version: 6.00 Build 0)  -->
<svg version="1.1" id="Layer_1" xmlns="http://www.w3.org/2000/svg" xmlns:xlink="http://www.w3.org/1999/xlink" x="0px" y="0px"
	 viewBox="0 0 1440 864" style="enable-background:new 0 0 1440 864;" xml:space="preserve">
<style type="text/css">
	.st0{fill:none;stroke:#5ABA47;stroke-width:2;}
	.st1{fill:none;stroke:#000000;stroke-width:2;}
	.st2{fill:none;stroke:#FF0000;stroke-width:2;}
</style>
<circle class="st0" cx="432.85" cy="433.39" r="360"/>
<circle class="st1" cx="432.85" cy="433.39" r="54"/>
<path class="st1" d="M369.21,369.75c16.29-16.29,38.79-26.36,63.64-26.36c49.71,0,90,40.29,90,90c0,24.85-10.07,47.35-26.36,63.64"
	/>
<path class="st1" d="M432.85,307.39c69.59,0,126,56.41,126,126s-56.41,126-126,126"/>
<path class="st1" d="M547.4,318.84c29.32,29.32,47.45,69.82,47.45,114.55c0,89.47-72.53,162-162,162
	c-44.74,0-85.24-18.13-114.55-47.45"/>
<path class="st1" d="M630.85,433.39c0,109.35-88.65,198-198,198s-198-88.65-198-198"/>
<path class="st1" d="M598.31,598.85c-42.35,42.35-100.85,68.54-165.46,68.54c-129.23,0-234-104.77-234-234
	c0-64.62,26.19-123.12,68.54-165.46"/>
<path class="st1" d="M432.85,703.39c-149.12,0-270-120.88-270-270s120.88-270,270-270"/>
<path class="st1" d="M216.85,650.13c-55.59-55.4-90-132.06-90-216.75c0-169,137-306,306-306c84.31,0,160.66,34.1,216,89.25"/>
<path class="st1" d="M90.85,433.39c0-188.88,153.12-342,342-342s342,153.12,342,342"/>
<path class="st1" d="M483.76,484.3c-13.03,13.03-31.03,21.09-50.91,21.09c-39.76,0-72-32.24-72-72c0-19.88,8.06-37.88,21.09-50.91"
	/>
<path class="st1" d="M432.85,541.39c-59.65,0-108-48.35-108-108s48.35-108,108-108"/>
<path class="st1" d="M331.03,535.21c-26.06-26.06-42.18-62.06-42.18-101.82c0-79.53,64.47-144,144-144
	c39.76,0,75.76,16.12,101.82,42.18"/>
<path class="st1" d="M252.85,433.39c0-99.41,80.59-180,180-180s180,80.59,180,180"/>
<path class="st1" d="M280.11,280.65c39.09-39.09,93.09-63.26,152.74-63.26c119.29,0,216,96.71,216,216
	c0,59.65-24.18,113.65-63.26,152.74"/>
<path class="st1" d="M432.85,181.39c139.18,0,252,112.82,252,252s-112.82,252-252,252"/>
<path class="st1" d="M636.5,229.74c52.12,52.12,84.35,124.12,84.35,203.65c0,159.06-128.94,288-288,288
	c-79.53,0-151.53-32.24-203.65-84.35"/>
<path class="st1" d="M756.85,433.39c0,178.94-145.06,324-324,324s-324-145.06-324-324"/>
<line class="st2" x1="756.85" y1="433.39" x2="774.85" y2="433.39"/>
<line class="st2" x1="630.85" y1="433.39" x2="612.85" y2="433.39"/>
<line class="st2" x1="234.85" y1="433.39" x2="252.85" y2="433.39"/>
<line class="st2" x1="90.85" y1="433.39" x2="108.85" y2="433.39"/>
<line class="st2" x1="432.85" y1="541.39" x2="432.85" y2="559.39"/>
<line class="st2" x1="432.85" y1="685.39" x2="432.85" y2="703.39"/>
<line class="st2" x1="432.85" y1="307.39" x2="432.85" y2="325.39"/>
<line class="st2" x1="432.85" y1="163.39" x2="432.85" y2="181.39"/>
<line class="st2" x1="648.85" y1="216.64" x2="636.12" y2="229.37"/>
<line class="st2" x1="547.4" y1="318.84" x2="534.67" y2="331.56"/>
<line class="st2" x1="331.03" y1="535.21" x2="318.3" y2="547.94"/>
<line class="st2" x1="229.2" y1="637.03" x2="216.47" y2="649.76"/>
<line class="st2" x1="267.39" y1="267.92" x2="280.11" y2="280.65"/>
<line class="st2" x1="369.21" y1="369.75" x2="381.94" y2="382.47"/>
<line class="st2" x1="483.76" y1="484.3" x2="496.49" y2="497.03"/>
<line class="st2" x1="585.58" y1="586.12" x2="598.31" y2="598.85"/>
</svg>
