<?xml version="1.0" encoding="utf-8"?>
<!-- Generator: Adobe Illustrator 22.1.0, SVG Export Plug-In . SVG Version: 6.00 Build 0)  -->
<svg version="1.1" id="Layer_1" xmlns="http://www.w3.org/2000/svg" xmlns:xlink="http://www.w3.org/1999/xlink" x="0px" y="0px"
	 width="1404px" height="792px" viewBox="0 0 1404 792" style="enable-background:new 0 0 1404 792;" xml:space="preserve">
<style type="text/css">
	.st0{fill:none;stroke:#FF0000;}
	.st1{fill:none;stroke:#000000;}
</style>
<circle class="st0" cx="702" cy="396" r="360"/>
<path class="st1" d="M659.7,428.9c7.4,16.7,23.9,29.6,42.5,33.5c43.4,9.2,82-24.6,88.7-66.5c8.9-55.8-34.6-104-88.7-110.8
	c-68-8.7-126,44.5-133,110.8c-8.5,80.3,54.4,148,133,155.2c92.5,8.4,170.1-64.4,177.4-155.2c8.3-104.8-74.3-192.2-177.4-199.5
	c-117-8.3-214.4,84.2-221.7,199.5c-8.2,129.3,94.2,236.5,221.7,243.9c141.5,8.2,258.6-104.1,266-243.9
	c8.2-153.7-114.1-280.8-266-288.2c-166-8.1-302.9,124-310.4,288.2"/>
<path class="st1" d="M735.2,438.3c16.7-7.4,29.6-23.9,33.5-42.5c9.2-43.4-24.6-82-66.5-88.7c-55.8-8.9-104,34.6-110.8,88.7
	c-8.7,68,44.5,126,110.8,133c80.3,8.5,148-54.4,155.2-133c8.4-92.5-64.4-170.1-155.2-177.4c-104.8-8.3-192.2,74.3-199.5,177.4
	c-8.3,117,84.2,214.4,199.5,221.7c129.3,8.2,236.5-94.2,243.9-221.7c8.2-141.5-104.1-258.6-243.9-266
	c-153.7-8.2-280.8,114.1-288.2,266c-8.1,166,124,302.9,288.2,310.4"/>
<path class="st1" d="M744.6,362.9c-7.4-16.7-23.9-29.6-42.5-33.6c-43.4-9.2-82,24.6-88.7,66.5c-8.9,55.8,34.6,104,88.7,110.8
	c68,8.7,126-44.5,133-110.8c8.5-80.3-54.4-148-133-155.2c-92.5-8.4-170.1,64.4-177.4,155.2c-8.3,104.8,74.3,192.2,177.4,199.5
	c117,8.3,214.4-84.2,221.7-199.5c8.2-129.3-94.2-236.5-221.7-243.9c-141.5-8.2-258.6,104.1-266,243.9
	c-8.2,153.7,114.1,280.8,266,288.2c166,8.1,302.9-124,310.4-288.2"/>
<path class="st1" d="M669.3,353.3c-16.8,7.4-29.7,23.9-33.7,42.5c-9.2,43.4,24.6,82,66.5,88.7c55.8,8.9,104-34.6,110.8-88.7
	c8.7-68-44.5-126-110.8-133c-80.3-8.5-148,54.4-155.2,133c-8.4,92.5,64.4,170.1,155.2,177.4c104.8,8.3,192.2-74.3,199.5-177.4
	c8.3-117-84.2-214.4-199.5-221.7c-129.3-8.2-236.5,94.2-243.9,221.7c-8.2,141.5,104.1,258.6,243.9,266
	c153.7,8.2,280.8-114.1,288.2-266c8.1-166-124-302.9-288.2-310.4"/>
<g>
</g>
<g>
</g>
<g>
</g>
<g>
</g>
<g>
</g>
<g>
</g>
</svg>
