<?xml version="1.0" encoding="utf-8"?>
<!-- Generator: Adobe Illustrator 22.1.0, SVG Export Plug-In . SVG Version: 6.00 Build 0)  -->
<svg version="1.1" id="Layer_1" xmlns="http://www.w3.org/2000/svg" xmlns:xlink="http://www.w3.org/1999/xlink" x="0px" y="0px"
	 width="1404px" height="792px" viewBox="0 0 1404 792" style="enable-background:new 0 0 1404 792;" xml:space="preserve">
<style type="text/css">
	.st0{fill:none;stroke:#FF0000;}
	.st1{fill:none;stroke:#000000;}
</style>
<circle class="st0" cx="702" cy="396" r="360"/>
<path class="st1" d="M662.2,433.8c8.2,14.3,23.3,25.1,40,28.6c43.4,9.2,82-24.6,88.7-66.5c8.9-55.8-34.6-104-88.7-110.8
	c-68-8.7-126,44.5-133,110.8c-8.5,80.3,54.4,148,133,155.2c92.5,8.4,170.1-64.4,177.4-155.2c8.3-104.8-74.3-192.2-177.4-199.5
	c-117-8.3-214.4,84.2-221.7,199.5c-8.2,129.3,94.2,236.5,221.7,243.9c141.5,8.2,258.6-104.1,266-243.9
	c8.2-153.7-114.1-280.8-266-288.2c-166-8.1-302.9,124-310.4,288.2"/>
<path class="st1" d="M740,435.9c14.3-8.2,25.1-23.3,28.6-40c9.2-43.4-24.6-82-66.5-88.7c-55.8-8.9-104,34.6-110.8,88.7
	c-8.7,68,44.5,126,110.8,133c80.3,8.5,148-54.4,155.2-133c8.4-92.5-64.4-170.1-155.2-177.4c-104.8-8.3-192.2,74.3-199.5,177.4
	c-8.3,117,84.2,214.4,199.5,221.7c129.3,8.2,236.5-94.2,243.9-221.7c8.2-141.5-104.1-258.6-243.9-266
	c-153.7-8.2-280.8,114.1-288.2,266c-8.1,166,124,302.9,288.2,310.4"/>
<path class="st1" d="M742.1,358c-8.2-14.3-23.3-25.1-40-28.6c-43.4-9.2-82,24.6-88.7,66.5c-8.9,55.8,34.6,104,88.7,110.8
	c68,8.7,126-44.5,133-110.8c8.5-80.3-54.4-148-133-155.2c-92.5-8.4-170.1,64.4-177.4,155.2c-8.3,104.8,74.3,192.2,177.4,199.5
	c117,8.3,214.4-84.2,221.7-199.5c8.2-129.3-94.2-236.5-221.7-243.9c-141.5-8.2-258.6,104.1-266,243.9
	c-8.2,153.7,114.1,280.8,266,288.2c166,8.1,302.9-124,310.4-288.2"/>
<path class="st1" d="M664.3,355.9c-14.3,8.2-25.1,23.3-28.6,40c-9.2,43.4,24.6,82,66.5,88.7c55.8,8.9,104-34.6,110.8-88.7
	c8.7-68-44.5-126-110.8-133c-80.3-8.5-148,54.4-155.2,133c-8.4,92.5,64.4,170.1,155.2,177.4c104.8,8.3,192.2-74.3,199.5-177.4
	c8.3-117-84.2-214.4-199.5-221.7c-129.3-8.2-236.5,94.2-243.9,221.7c-8.2,141.5,104.1,258.6,243.9,266
	c153.7,8.2,280.8-114.1,288.2-266c8.1-166-124-302.9-288.2-310.4"/>
<path class="st1" d="M700.7,450.9c15.9,4.3,34.2,1.3,48.5-8c37.2-24.2,40.6-75.4,15.7-109.7c-33.2-45.7-97.9-49.1-141.1-15.7
	c-54.2,42-57.6,120.5-15.7,172.4c50.8,62.8,143.2,66.2,203.8,15.7c71.4-59.5,74.8-165.8,15.7-235.1c-68.2-80-188.5-83.4-266.5-15.7
	c-88.6,76.9-92,211.1-15.7,297.8c85.6,97.2,233.8,100.6,329.2,15.7c105.8-94.3,109.2-256.5,15.7-360.5
	C787.3,93.3,611.1,89.9,498.4,192.1c-123.1,111.6-126.5,301.9-15.7,423.2"/>
<path class="st1" d="M757.6,396c3.8-15.6,0.7-33.3-8.4-47.2c-24.2-37.2-75.4-40.6-109.7-15.7c-45.7,33.2-49.1,97.9-15.7,141.1
	c42,54.2,120.5,57.6,172.4,15.7c62.8-50.8,66.2-143.2,15.7-203.8c-59.5-71.4-165.8-74.8-235.1-15.7c-80,68.2-83.4,188.5-15.7,266.5
	c76.9,88.6,211.1,92,297.8,15.7c97.2-85.6,100.6-233.8,15.7-329.2C780.3,117.6,618.1,114.2,514,207.8
	c-114.5,102.9-117.9,279.2-15.7,391.9C610,722.8,800.2,726.2,921.6,615.3"/>
<path class="st1" d="M702,340.4c-15.5-3.7-33.1-0.5-46.9,8.4c-37.2,24.2-40.6,75.4-15.7,109.7c33.2,45.7,97.9,49.1,141.1,15.7
	c54.2-42,57.6-120.5,15.7-172.4C745.5,239,653,235.6,592.4,286.1C521,345.6,517.6,452,576.7,521.3c68.2,80,188.5,83.4,266.5,15.7
	c88.6-76.9,92-211.1,15.7-297.8c-85.6-97.2-233.8-100.6-329.2-15.7C423.9,317.7,420.5,479.9,514,584
	C617,698.5,793.2,701.9,905.9,599.7c123.1-111.6,126.5-301.9,15.7-423.2"/>
<path class="st1" d="M647.1,394.4c-4.3,15.9-1.3,34.2,8,48.5c24.2,37.2,75.4,40.6,109.7,15.7c45.7-33.2,49.1-97.9,15.7-141.1
	c-42-54.2-120.5-57.6-172.4-15.7c-62.8,50.8-66.2,143.2-15.7,203.8c59.5,71.4,165.8,74.8,235.1,15.7c80-68.2,83.4-188.5,15.7-266.5
	c-76.9-88.6-211.1-92-297.8-15.7c-97.2,85.6-100.6,233.8-15.7,329.2C624,674.2,786.2,677.6,890.3,584
	c114.5-102.9,117.9-279.2,15.7-391.9C794.3,69,604.1,65.6,482.7,176.4"/>
<g>
</g>
<g>
</g>
<g>
</g>
<g>
</g>
<g>
</g>
<g>
</g>
</svg>
