<?xml version="1.0" encoding="utf-8"?>
<!-- Generator: Adobe Illustrator 23.0.4, SVG Export Plug-In . SVG Version: 6.00 Build 0)  -->
<svg version="1.1" id="Layer_1" xmlns="http://www.w3.org/2000/svg" xmlns:xlink="http://www.w3.org/1999/xlink" x="0px" y="0px"
	 width="1404px" height="792px" viewBox="0 0 1404 792" style="enable-background:new 0 0 1404 792;" xml:space="preserve">
<style type="text/css">
	.st0{fill:none;stroke:#FF0000;}
	.st1{fill:none;stroke:#000000;}
</style>
<polygon class="st0" points="808.1,259 1092,299.8 886.9,500.4 935.9,783 681.7,650 428,783.9 476.1,501 270.3,301.1 554.2,259.4 
	680.7,2 "/>
<polyline class="st1" points="486.8,665.8 517.1,487.4 352.5,327.5 579.6,294.1 680.8,88.1 782.7,293.8 1009.9,326.4 845.8,486.9 
	884.9,713 681.6,606.5 522.4,690.6 "/>
<polyline class="st1" points="458.4,343.3 599.9,322.5 680.9,157.7 762.4,322.2 944.1,348.3 812.9,476.7 844.2,657.6 681.5,572.4 
	519.2,658.1 549.9,477.1 447.4,377.5 "/>
<polyline class="st1" points="695,241 746.2,344.4 891.5,365.2 786.5,467.9 811.6,612.7 681.5,544.5 551.6,613.1 576.2,468.3 
	470.8,365.9 616.1,344.6 667.2,240.8 "/>
<polyline class="st1" points="830.9,397 765.5,460.9 785.5,576.7 681.4,522.2 577.5,577 597.2,461.2 512.9,379.3 629.2,362.2 
	681,256.8 733.2,362.1 826.2,375.4 "/>
<polyline class="st1" points="745,538.5 681.4,505.1 598.2,549 614,456.3 546.6,390.8 639.6,377.2 681,292.8 722.8,377 815.8,390.4 
	748.6,456.1 761.2,528.8 "/>
<polyline class="st1" points="617.2,511.2 627.4,451.3 573.5,398.8 647.9,387.9 681.1,320.4 714.4,387.8 788.9,398.5 735.1,451.1 
	748,525.2 681.3,490.3 626.8,519.1 "/>
<polyline class="st1" points="606.6,404.3 654.5,397.2 681.1,343.2 707.8,397.1 767.3,405.7 724.3,447.8 734.6,507 681.3,479.1 
	628.1,507.2 638.2,447.9 603.7,414.4 "/>
<polyline class="st1" points="687,373.4 702.5,404.8 750.1,411.6 715.7,445.3 723.9,492.7 681.3,470.4 638.7,492.8 646.8,445.4 
	612.3,411.8 659.9,404.8 675.5,373.1 "/>
</svg>
