<?xml version="1.0" encoding="utf-8"?>
<!-- Generator: Adobe Illustrator 22.1.0, SVG Export Plug-In . SVG Version: 6.00 Build 0)  -->
<svg version="1.1" id="Layer_1" xmlns="http://www.w3.org/2000/svg" xmlns:xlink="http://www.w3.org/1999/xlink" x="0px" y="0px"
	 width="1440px" height="864px" viewBox="0 0 1440 864" enable-background="new 0 0 1440 864" xml:space="preserve">
<g>
</g>
<rect x="240.865" y="40.573" transform="matrix(4.489837e-11 -1 1 4.489837e-11 110.2917 983.4375)" fill="none" stroke="#FFFF00" stroke-width="2" width="612" height="792"/>
<line fill="none" stroke="#000000" stroke-width="2" x1="211.788" y1="606.573" x2="211.788" y2="130.573"/>
<line fill="none" stroke="#000000" stroke-width="2" x1="272.711" y1="742.573" x2="272.711" y2="334.573"/>
<line fill="none" stroke="#000000" stroke-width="2" x1="272.711" y1="198.573" x2="272.711" y2="130.573"/>
<line fill="none" stroke="#000000" stroke-width="2" x1="333.634" y1="606.573" x2="333.634" y2="130.573"/>
<line fill="none" stroke="#000000" stroke-width="2" x1="394.557" y1="742.573" x2="394.557" y2="334.573"/>
<line fill="none" stroke="#000000" stroke-width="2" x1="394.557" y1="198.573" x2="394.557" y2="130.573"/>
<line fill="none" stroke="#000000" stroke-width="2" x1="455.48" y1="130.573" x2="455.48" y2="606.573"/>
<line fill="none" stroke="#000000" stroke-width="2" x1="516.403" y1="742.573" x2="516.403" y2="334.573"/>
<line fill="none" stroke="#000000" stroke-width="2" x1="516.403" y1="198.573" x2="516.403" y2="130.573"/>
<line fill="none" stroke="#000000" stroke-width="2" x1="577.326" y1="130.573" x2="577.326" y2="606.573"/>
<line fill="none" stroke="#000000" stroke-width="2" x1="638.249" y1="742.573" x2="638.249" y2="334.573"/>
<line fill="none" stroke="#000000" stroke-width="2" x1="638.249" y1="198.573" x2="638.249" y2="130.573"/>
<line fill="none" stroke="#000000" stroke-width="2" x1="699.172" y1="130.573" x2="699.172" y2="606.573"/>
<line fill="none" stroke="#000000" stroke-width="2" x1="760.095" y1="742.573" x2="760.095" y2="334.573"/>
<line fill="none" stroke="#000000" stroke-width="2" x1="760.095" y1="198.573" x2="760.095" y2="130.573"/>
<line fill="none" stroke="#000000" stroke-width="2" x1="821.018" y1="130.573" x2="821.018" y2="606.573"/>
<line fill="none" stroke="#000000" stroke-width="2" x1="881.942" y1="742.573" x2="881.942" y2="334.573"/>
<line fill="none" stroke="#000000" stroke-width="2" x1="881.942" y1="198.573" x2="881.942" y2="130.573"/>
<line fill="none" stroke="#0064FF" stroke-width="2" x1="956.083" y1="198.573" x2="137.646" y2="198.573"/>
<line fill="none" stroke="#0064FF" stroke-width="2" x1="137.646" y1="334.573" x2="956.083" y2="334.573"/>
<line fill="none" stroke="#0064FF" stroke-width="2" x1="137.646" y1="468.303" x2="956.083" y2="468.303"/>
<line fill="none" stroke="#0064FF" stroke-width="2" x1="956.083" y1="608.843" x2="137.646" y2="608.843"/>
<g>
</g>
<g>
</g>
<g>
</g>
<g>
</g>
<g>
</g>
<g>
</g>
</svg>
